SplineFontDB: 3.2
FontName: IRFerdosi
FullName: IRFerdosi
FamilyName: IRFerdosi
Weight: Book
Copyright: Copyright (c) 2022, Information Technology Organization of Iran (ito.gov.ir)
Version: 1.001
ItalicAngle: 0
UnderlinePosition: -100
UnderlineWidth: 60
Ascent: 1638
Descent: 410
InvalidEm: 0
sfntRevision: 0x00010042
LayerCount: 2
Layer: 0 1 "Back" 1
Layer: 1 1 "Fore" 0
XUID: [1021 420 722297922 15094582]
StyleMap: 0x0040
FSType: 0
OS2Version: 3
OS2_WeightWidthSlopeOnly: 0
OS2_UseTypoMetrics: 0
CreationTime: 1354315497
ModificationTime: 1662627420
PfmFamily: 17
TTFWeight: 400
TTFWidth: 5
LineGap: 100
VLineGap: 0
Panose: 2 0 5 6 0 0 0 2 0 2
OS2TypoAscent: 1833
OS2TypoAOffset: 0
OS2TypoDescent: -1085
OS2TypoDOffset: 0
OS2TypoLinegap: 1500
OS2WinAscent: 1833
OS2WinAOffset: 0
OS2WinDescent: 1085
OS2WinDOffset: 0
HheadAscent: 1833
HheadAOffset: 0
HheadDescent: -1085
HheadDOffset: 0
OS2SubXSize: 1434
OS2SubYSize: 1331
OS2SubXOff: 0
OS2SubYOff: 293
OS2SupXSize: 1434
OS2SupYSize: 1331
OS2SupXOff: 0
OS2SupYOff: 930
OS2StrikeYSize: 50
OS2StrikeYPos: 250
OS2CapHeight: 1851
OS2XHeight: 594
OS2FamilyClass: 2048
OS2Vendor: 'PARS'
OS2CodePages: 20000041.00000000
OS2UnicodeRanges: 00002003.00000000.00000000.00000000
Lookup: 1 1 0 "'isol' Isolated Forms in Arabic lookup 0" { "'isol' Isolated Forms in Arabic lookup 0 subtable"  } ['isol' ('arab' <'dflt' > ) ]
Lookup: 1 1 0 "'init' Initial Forms in Arabic lookup 1" { "'init' Initial Forms in Arabic lookup 1 subtable"  } ['init' ('arab' <'dflt' > ) ]
Lookup: 1 1 0 "'fina' Terminal Forms in Arabic lookup 2" { "'fina' Terminal Forms in Arabic lookup 2 subtable"  } ['fina' ('arab' <'dflt' > ) ]
Lookup: 1 1 0 "'medi' Medial Forms in Arabic lookup 3" { "'medi' Medial Forms in Arabic lookup 3 subtable"  } ['medi' ('arab' <'dflt' > ) ]
Lookup: 4 1 0 "'ccmp' Glyph Composition/Decomposition in Arabic lookup 4" { "'ccmp' Glyph Composition/Decomposition in Arabic lookup 4 subtable"  } ['ccmp' ('arab' <'dflt' > ) ]

StartChar: quotedbl
Encoding: 34 34 4
Width: 711
Flags: W
LayerCount: 2
Fore
SplineSet
484 751 m 1,0,1
 473 809 473 809 463 868 c 128,-1,2
 453 927 453 927 445 976.5 c 128,-1,3
 437 1026 437 1026 432.5 1060.5 c 128,-1,4
 428 1095 428 1095 428 1105 c 0,5,6
 428 1136 428 1136 450 1156 c 128,-1,7
 472 1176 472 1176 503 1176 c 0,8,9
 533 1176 533 1176 554.5 1156.5 c 128,-1,10
 576 1137 576 1137 576 1108 c 0,11,12
 576 1070 576 1070 564.5 995 c 128,-1,13
 553 920 553 920 533 820 c 2,14,-1
 520 751 l 1,15,-1
 484 751 l 1,0,1
190 751 m 1,16,17
 179 809 179 809 168.5 868 c 128,-1,18
 158 927 158 927 150.5 976.5 c 128,-1,19
 143 1026 143 1026 138.5 1060.5 c 128,-1,20
 134 1095 134 1095 134 1105 c 0,21,22
 134 1136 134 1136 155.5 1156 c 128,-1,23
 177 1176 177 1176 209 1176 c 0,24,25
 239 1176 239 1176 260.5 1156.5 c 128,-1,26
 282 1137 282 1137 282 1108 c 0,27,28
 282 1070 282 1070 270.5 995 c 128,-1,29
 259 920 259 920 239 820 c 2,30,-1
 226 751 l 1,31,-1
 190 751 l 1,16,17
EndSplineSet
EndChar

StartChar: quotesingle
Encoding: 39 39 5
Width: 430
Flags: W
LayerCount: 2
Fore
SplineSet
190 751 m 1,0,1
 179 809 179 809 168.5 868 c 128,-1,2
 158 927 158 927 150.5 976.5 c 128,-1,3
 143 1026 143 1026 138.5 1060.5 c 128,-1,4
 134 1095 134 1095 134 1105 c 0,5,6
 134 1136 134 1136 155.5 1156 c 128,-1,7
 177 1176 177 1176 209 1176 c 0,8,9
 239 1176 239 1176 260.5 1156.5 c 128,-1,10
 282 1137 282 1137 282 1108 c 0,11,12
 282 1070 282 1070 270.5 995 c 128,-1,13
 259 920 259 920 239 820 c 2,14,-1
 226 751 l 1,15,-1
 190 751 l 1,0,1
EndSplineSet
EndChar

StartChar: asterisk
Encoding: 42 42 6
Width: 1126
Flags: W
LayerCount: 2
Fore
SplineSet
568 347 m 1,0,-1
 574 687 l 1,1,-1
 355 467 l 1,2,-1
 250 467 l 1,3,-1
 527 746 l 1,4,-1
 203 746 l 1,5,-1
 223 839 l 1,6,-1
 547 839 l 1,7,-1
 277 1104 l 1,8,-1
 370 1104 l 1,9,-1
 579 899 l 1,10,-1
 585 1199 l 1,11,-1
 704 1239 l 1,12,-1
 699 912 l 1,13,-1
 905 1104 l 1,14,-1
 1013 1104 l 1,15,-1
 730 839 l 1,16,-1
 1065 839 l 1,17,-1
 1043 746 l 1,18,-1
 729 746 l 1,19,-1
 1002 467 l 1,20,-1
 910 467 l 1,21,-1
 696 687 l 1,22,-1
 688 386 l 1,23,-1
 568 347 l 1,0,-1
EndSplineSet
EndChar

StartChar: plus
Encoding: 43 43 7
Width: 953
GlyphClass: 2
Flags: W
LayerCount: 2
Fore
SplineSet
823 372 m 1,0,-1
 532 372 l 1,1,-1
 532 85 l 1,2,-1
 428 85 l 1,3,-1
 428 372 l 1,4,-1
 139 372 l 1,5,-1
 139 482 l 1,6,-1
 428 482 l 1,7,-1
 428 772 l 1,8,-1
 532 772 l 1,9,-1
 532 482 l 1,10,-1
 823 482 l 1,11,-1
 823 372 l 1,0,-1
EndSplineSet
EndChar

StartChar: hyphen
Encoding: 45 45 8
Width: 953
Flags: W
LayerCount: 2
Fore
SplineSet
823 372 m 1,0,-1
 139 372 l 1,1,-1
 139 482 l 1,2,-1
 823 482 l 1,3,-1
 823 372 l 1,0,-1
EndSplineSet
EndChar

StartChar: period
Encoding: 46 46 9
Width: 411
GlyphClass: 2
Flags: W
LayerCount: 2
Fore
SplineSet
345 92 m 256,0,1
 345 52 345 52 317 24 c 128,-1,2
 289 -4 289 -4 248 -4 c 0,3,4
 208 -4 208 -4 180.5 24 c 128,-1,5
 153 52 153 52 153 92 c 256,6,7
 153 132 153 132 181 160 c 128,-1,8
 209 188 209 188 248 188 c 0,9,10
 288 188 288 188 316.5 160 c 128,-1,11
 345 132 345 132 345 92 c 256,0,1
EndSplineSet
EndChar

StartChar: slash
Encoding: 47 47 10
Width: 423
Flags: W
LayerCount: 2
Fore
SplineSet
378 1119 m 1,0,-1
 112 -93 l 1,1,-1
 43 -93 l 1,2,-1
 310 1119 l 1,3,-1
 378 1119 l 1,0,-1
EndSplineSet
EndChar

StartChar: less
Encoding: 60 60 11
Width: 932
Flags: W
LayerCount: 2
Fore
SplineSet
54 319 m 1,0,-1
 54 448 l 1,1,-1
 830 789 l 1,2,-1
 830 642 l 1,3,-1
 242 384 l 1,4,-1
 830 126 l 1,5,-1
 830 -21 l 1,6,-1
 54 319 l 1,0,-1
EndSplineSet
EndChar

StartChar: equal
Encoding: 61 61 12
Width: 969
Flags: W
LayerCount: 2
Fore
SplineSet
840 224 m 1,0,-1
 118 224 l 1,1,-1
 118 326 l 1,2,-1
 840 326 l 1,3,-1
 840 224 l 1,0,-1
840 462 m 1,4,-1
 118 462 l 1,5,-1
 118 564 l 1,6,-1
 840 564 l 1,7,-1
 840 462 l 1,4,-1
EndSplineSet
EndChar

StartChar: greater
Encoding: 62 62 13
Width: 901
Flags: W
LayerCount: 2
Fore
SplineSet
54 -21 m 1,0,-1
 54 126 l 1,1,-1
 642 384 l 1,2,-1
 54 642 l 1,3,-1
 54 789 l 1,4,-1
 830 448 l 1,5,-1
 830 319 l 1,6,-1
 54 -21 l 1,0,-1
EndSplineSet
EndChar

StartChar: bracketleft
Encoding: 91 91 14
Width: 580
GlyphClass: 2
Flags: W
LayerCount: 2
Fore
SplineSet
520 -271 m 1,0,-1
 153 -271 l 1,1,-1
 153 1153 l 1,2,-1
 520 1153 l 1,3,-1
 520 1109 l 1,4,-1
 364 1109 l 2,5,6
 322 1109 322 1109 304 1091.5 c 128,-1,7
 286 1074 286 1074 286 1032 c 2,8,-1
 286 -138 l 2,9,10
 286 -228 286 -228 371 -228 c 2,11,-1
 520 -228 l 1,12,-1
 520 -271 l 1,0,-1
EndSplineSet
EndChar

StartChar: bracketright
Encoding: 93 93 15
Width: 580
GlyphClass: 2
Flags: W
LayerCount: 2
Fore
SplineSet
216 -228 m 2,0,1
 256 -228 256 -228 275 -210.5 c 128,-1,2
 294 -193 294 -193 294 -151 c 2,3,-1
 294 1018 l 2,4,5
 294 1109 294 1109 209 1109 c 2,6,-1
 59 1109 l 1,7,-1
 59 1153 l 1,8,-1
 427 1153 l 1,9,-1
 427 -271 l 1,10,-1
 59 -271 l 1,11,-1
 59 -228 l 1,12,-1
 216 -228 l 2,0,1
EndSplineSet
EndChar

StartChar: grave
Encoding: 96 96 16
Width: 580
Flags: W
LayerCount: 2
Fore
SplineSet
352 882 m 1,0,-1
 83 1051 l 2,1,2
 60 1068 60 1068 46.5 1086.5 c 128,-1,3
 33 1105 33 1105 33 1126 c 0,4,5
 33 1151 33 1151 49 1166 c 128,-1,6
 65 1181 65 1181 93 1181 c 0,7,8
 111 1181 111 1181 126.5 1172 c 128,-1,9
 142 1163 142 1163 166 1140 c 2,10,-1
 422 882 l 1,11,-1
 352 882 l 1,0,-1
EndSplineSet
EndChar

StartChar: braceleft
Encoding: 123 123 17
Width: 836
GlyphClass: 2
Flags: W
LayerCount: 2
Fore
SplineSet
609 -315 m 1,0,1
 566 -315 566 -315 534.5 -312.5 c 128,-1,2
 503 -310 503 -310 479 -305 c 128,-1,3
 455 -300 455 -300 436 -291.5 c 128,-1,4
 417 -283 417 -283 399 -271 c 0,5,6
 362 -247 362 -247 342 -196.5 c 128,-1,7
 322 -146 322 -146 322 -71 c 2,8,-1
 322 237 l 2,9,10
 322 282 322 282 315.5 313.5 c 128,-1,11
 309 345 309 345 292 367.5 c 128,-1,12
 275 390 275 390 246.5 405.5 c 128,-1,13
 218 421 218 421 174 435 c 1,14,15
 218 448 218 448 246.5 463.5 c 128,-1,16
 275 479 275 479 292 501 c 128,-1,17
 309 523 309 523 315.5 554.5 c 128,-1,18
 322 586 322 586 322 632 c 2,19,-1
 322 942 l 2,20,21
 322 1013 322 1013 336.5 1059 c 128,-1,22
 351 1105 351 1105 385 1132 c 128,-1,23
 419 1159 419 1159 474 1170.5 c 128,-1,24
 529 1182 529 1182 609 1184 c 1,25,-1
 609 1164 l 1,26,27
 564 1152 564 1152 533.5 1135.5 c 128,-1,28
 503 1119 503 1119 484.5 1094.5 c 128,-1,29
 466 1070 466 1070 458 1034.5 c 128,-1,30
 450 999 450 999 450 950 c 2,31,-1
 450 658 l 2,32,33
 450 604 450 604 443 567 c 128,-1,34
 436 530 436 530 417.5 504.5 c 128,-1,35
 399 479 399 479 367.5 462.5 c 128,-1,36
 336 446 336 446 287 433 c 1,37,38
 336 421 336 421 367.5 405 c 128,-1,39
 399 389 399 389 417.5 364 c 128,-1,40
 436 339 436 339 443 302 c 128,-1,41
 450 265 450 265 450 211 c 2,42,-1
 450 -82 l 2,43,44
 450 -131 450 -131 458 -166 c 128,-1,45
 466 -201 466 -201 484.5 -226 c 128,-1,46
 503 -251 503 -251 533.5 -267.5 c 128,-1,47
 564 -284 564 -284 609 -296 c 1,48,-1
 609 -315 l 1,0,1
EndSplineSet
EndChar

StartChar: bar
Encoding: 124 124 18
Width: 348
Flags: W
LayerCount: 2
Fore
SplineSet
116 1176 m 1,0,-1
 231 1176 l 1,1,-1
 231 -25 l 1,2,-1
 116 -25 l 1,3,-1
 116 1176 l 1,0,-1
EndSplineSet
EndChar

StartChar: asciitilde
Encoding: 126 126 19
Width: 942
Flags: W
LayerCount: 2
Fore
SplineSet
874 472 m 1,0,1
 844 430 844 430 818 401.5 c 128,-1,2
 792 373 792 373 766.5 356 c 128,-1,3
 741 339 741 339 715.5 331.5 c 128,-1,4
 690 324 690 324 660 324 c 256,5,6
 630 324 630 324 607 327 c 128,-1,7
 584 330 584 330 556 340 c 128,-1,8
 528 350 528 350 490.5 368.5 c 128,-1,9
 453 387 453 387 395 418 c 0,10,11
 372 430 372 430 345 436 c 128,-1,12
 318 442 318 442 292 442 c 0,13,14
 272 442 272 442 256 437.5 c 128,-1,15
 240 433 240 433 225 423 c 128,-1,16
 210 413 210 413 195.5 396 c 128,-1,17
 181 379 181 379 164 354 c 1,18,-1
 70 409 l 1,19,20
 100 451 100 451 125.5 479 c 128,-1,21
 151 507 151 507 176.5 524.5 c 128,-1,22
 202 542 202 542 228 549.5 c 128,-1,23
 254 557 254 557 284 557 c 0,24,25
 313 557 313 557 336 554 c 128,-1,26
 359 551 359 551 387 541 c 128,-1,27
 415 531 415 531 452.5 512.5 c 128,-1,28
 490 494 490 494 548 463 c 0,29,30
 571 450 571 450 597.5 444.5 c 128,-1,31
 624 439 624 439 651 439 c 0,32,33
 670 439 670 439 686.5 443 c 128,-1,34
 703 447 703 447 718 457.5 c 128,-1,35
 733 468 733 468 748 485 c 128,-1,36
 763 502 763 502 780 528 c 1,37,-1
 874 472 l 1,0,1
EndSplineSet
EndChar

StartChar: agrave
Encoding: 224 224 20
Width: 1075
Flags: W
LayerCount: 2
Fore
SplineSet
741 331 m 1,0,1
 720 266 720 266 690.5 213 c 128,-1,2
 661 160 661 160 626 114 c 0,3,4
 519 -19 519 -19 400 -19 c 0,5,6
 208 -19 208 -19 159 214 c 0,7,8
 133 334 133 334 157 451 c 128,-1,9
 181 568 181 568 252 683 c 0,10,11
 325 801 325 801 433 860 c 128,-1,12
 541 919 541 919 684 919 c 0,13,14
 712 919 712 919 746 918.5 c 128,-1,15
 780 918 780 918 815.5 916 c 128,-1,16
 851 914 851 914 886 912 c 128,-1,17
 921 910 921 910 952 908 c 1,18,-1
 946 646 l 1,19,-1
 946 647 l 1,20,-1
 950 254 l 2,21,22
 952 209 952 209 954.5 179.5 c 128,-1,23
 957 150 957 150 958 139 c 0,24,25
 961 114 961 114 985 114 c 0,26,27
 1053 114 1053 114 1214 346 c 1,28,-1
 1218 179 l 1,29,30
 1073 -19 1073 -19 925 -19 c 0,31,32
 785 -19 785 -19 753 126 c 0,33,34
 749 146 749 146 747 182 c 128,-1,35
 745 218 745 218 745 264 c 2,36,-1
 741 331 l 1,0,1
737 758 m 1,37,38
 688 775 688 775 647 783.5 c 128,-1,39
 606 792 606 792 561 792 c 0,40,41
 497 792 497 792 453.5 749.5 c 128,-1,42
 410 707 410 707 387 625 c 0,43,44
 362 522 362 522 357 425 c 128,-1,45
 352 328 352 328 368 248 c 0,46,47
 388 146 388 146 437 146 c 0,48,49
 493 146 493 146 589 280 c 0,50,51
 637 352 637 352 674 430 c 128,-1,52
 711 508 711 508 739 599 c 1,53,-1
 737 758 l 1,37,38
641 537 m 1,54,-1
 372 706 l 2,55,56
 349 723 349 723 335.5 741.5 c 128,-1,57
 322 760 322 760 322 781 c 0,58,59
 322 806 322 806 338 821 c 128,-1,60
 354 836 354 836 382 836 c 0,61,62
 400 836 400 836 415.5 827 c 128,-1,63
 431 818 431 818 455 795 c 2,64,-1
 711 537 l 1,65,-1
 641 537 l 1,54,-1
EndSplineSet
EndChar

StartChar: ocircumflex.001
Encoding: 65539 -1 26
Width: 1112
Flags: W
LayerCount: 2
Fore
SplineSet
416 -19 m 0,0,1
 301 -19 301 -19 205 70 c 0,2,3
 110 160 110 160 85 288 c 0,4,5
 32 528 32 528 170 726 c 0,6,7
 307 928 307 928 522 928 c 0,8,9
 643 928 643 928 742 842 c 1,10,11
 837 753 837 753 864 626 c 0,12,13
 890 499 890 499 869 388.5 c 128,-1,14
 848 278 848 278 781 179 c 0,15,16
 711 79 711 79 619.5 30 c 128,-1,17
 528 -19 528 -19 416 -19 c 0,0,1
483 98 m 0,18,19
 536 98 536 98 573.5 133 c 128,-1,20
 611 168 611 168 637 236 c 0,21,22
 665 310 665 310 668.5 393.5 c 128,-1,23
 672 477 672 477 652 574 c 0,24,25
 602 813 602 813 466 813 c 0,26,27
 365 813 365 813 313 670 c 0,28,29
 284 595 284 595 281 510.5 c 128,-1,30
 278 426 278 426 298 332 c 0,31,32
 324 213 324 213 370 155.5 c 128,-1,33
 416 98 416 98 483 98 c 0,18,19
EndSplineSet
EndChar

StartChar: dagger
Encoding: 8224 8224 30
Width: 932
Flags: W
LayerCount: 2
Fore
SplineSet
347 -231 m 1,0,-1
 567 622 l 1,1,-1
 248 592 l 1,2,-1
 297 700 l 1,3,-1
 576 668 l 1,4,-1
 607 1066 l 1,5,-1
 755 1093 l 1,6,-1
 621 668 l 1,7,-1
 941 700 l 1,8,-1
 895 592 l 1,9,-1
 612 622 l 1,10,-1
 496 -213 l 1,11,-1
 347 -231 l 1,0,-1
EndSplineSet
EndChar

StartChar: degree
Encoding: 176 176 31
Width: 409
Flags: W
LayerCount: 2
Fore
SplineSet
395 844 m 0,0,1
 344 844 344 844 307.5 880 c 128,-1,2
 271 916 271 916 271 968 c 0,3,4
 271 1021 271 1021 307.5 1057 c 128,-1,5
 344 1093 344 1093 395 1093 c 0,6,7
 447 1093 447 1093 483 1057 c 128,-1,8
 519 1021 519 1021 519 968 c 0,9,10
 519 916 519 916 483 880 c 128,-1,11
 447 844 447 844 395 844 c 0,0,1
395 888 m 256,12,13
 427 888 427 888 450.5 912 c 128,-1,14
 474 936 474 936 474 968 c 256,15,16
 474 1000 474 1000 450.5 1024 c 128,-1,17
 427 1048 427 1048 395 1048 c 256,18,19
 363 1048 363 1048 339 1024 c 128,-1,20
 315 1000 315 1000 315 968 c 256,21,22
 315 936 315 936 339 912 c 128,-1,23
 363 888 363 888 395 888 c 256,12,13
EndSplineSet
EndChar

StartChar: bullet
Encoding: 8226 8226 32
Width: 931
Flags: W
LayerCount: 2
Fore
SplineSet
817 662 m 256,0,1
 817 517 817 517 713.5 414 c 128,-1,2
 610 311 610 311 465 311 c 256,3,4
 320 311 320 311 217 414 c 128,-1,5
 114 517 114 517 114 662 c 256,6,7
 114 807 114 807 217 910 c 128,-1,8
 320 1013 320 1013 465 1013 c 256,9,10
 610 1013 610 1013 713.5 910 c 128,-1,11
 817 807 817 807 817 662 c 256,0,1
EndSplineSet
EndChar

StartChar: registered
Encoding: 174 174 33
Width: 897
Flags: W
LayerCount: 2
Fore
SplineSet
580 445 m 0,0,1
 448 445 448 445 354.5 538.5 c 128,-1,2
 261 632 261 632 261 764 c 256,3,4
 261 896 261 896 354.5 990 c 128,-1,5
 448 1084 448 1084 580 1084 c 0,6,7
 714 1084 714 1084 807 990 c 128,-1,8
 900 896 900 896 900 764 c 256,9,10
 900 632 900 632 806.5 538.5 c 128,-1,11
 713 445 713 445 580 445 c 0,0,1
580 484 m 0,12,13
 695 484 695 484 777.5 567 c 128,-1,14
 860 650 860 650 860 764 c 256,15,16
 860 878 860 878 777.5 961 c 128,-1,17
 695 1044 695 1044 580 1044 c 0,18,19
 466 1044 466 1044 383.5 961 c 128,-1,20
 301 878 301 878 301 764 c 256,21,22
 301 650 301 650 383.5 567 c 128,-1,23
 466 484 466 484 580 484 c 0,12,13
529 737 m 1,24,-1
 501 596 l 1,25,-1
 394 596 l 1,26,-1
 403 639 l 1,27,-1
 456 639 l 1,28,-1
 511 915 l 1,29,-1
 458 915 l 1,30,-1
 466 959 l 1,31,-1
 598 959 l 2,32,33
 751 959 751 959 751 875 c 0,34,35
 751 800 751 800 650 750 c 1,36,-1
 685 639 l 1,37,-1
 747 639 l 1,38,-1
 738 596 l 1,39,-1
 641 596 l 1,40,-1
 591 737 l 1,41,-1
 529 737 l 1,24,-1
538 782 m 1,42,-1
 574 782 l 2,43,44
 697 782 697 782 697 866 c 0,45,46
 697 915 697 915 607 915 c 2,47,-1
 564 915 l 1,48,-1
 538 782 l 1,42,-1
EndSplineSet
EndChar

StartChar: copyright
Encoding: 169 169 34
Width: 1244
Flags: W
LayerCount: 2
Fore
SplineSet
725 -27 m 0,0,1
 495 -27 495 -27 330.5 137 c 128,-1,2
 166 301 166 301 166 533 c 256,3,4
 166 765 166 765 330.5 929 c 128,-1,5
 495 1093 495 1093 725 1093 c 0,6,7
 958 1093 958 1093 1122 929 c 128,-1,8
 1286 765 1286 765 1286 533 c 256,9,10
 1286 301 1286 301 1122 137 c 128,-1,11
 958 -27 958 -27 725 -27 c 0,0,1
725 18 m 0,12,13
 939 18 939 18 1090 169 c 128,-1,14
 1241 320 1241 320 1241 533 c 256,15,16
 1241 746 1241 746 1090 897 c 128,-1,17
 939 1048 939 1048 725 1048 c 0,18,19
 513 1048 513 1048 362 897 c 128,-1,20
 211 746 211 746 211 533 c 256,21,22
 211 320 211 320 362 169 c 128,-1,23
 513 18 513 18 725 18 c 0,12,13
890 246 m 1,24,25
 785 213 785 213 704 213 c 0,26,27
 580 213 580 213 508 279.5 c 128,-1,28
 436 346 436 346 436 462 c 0,29,30
 436 625 436 625 541 734.5 c 128,-1,31
 646 844 646 844 805 844 c 0,32,33
 896 844 896 844 1003 814 c 1,34,-1
 967 675 l 1,35,-1
 915 684 l 1,36,-1
 923 766 l 1,37,38
 854 798 854 798 792 798 c 0,39,40
 688 798 688 798 616 700 c 128,-1,41
 544 602 544 602 544 462 c 0,42,43
 544 271 544 271 722 271 c 0,44,45
 823 271 823 271 902 307 c 1,46,-1
 890 246 l 1,24,25
EndSplineSet
EndChar

StartChar: trademark
Encoding: 8482 8482 35
Width: 1333
Flags: W
LayerCount: 2
Fore
SplineSet
440 1021 m 1,0,-1
 307 1021 l 1,1,-1
 288 923 l 1,2,-1
 225 923 l 1,3,-1
 254 1066 l 1,4,-1
 751 1066 l 1,5,-1
 723 923 l 1,6,-1
 661 923 l 1,7,-1
 679 1021 l 1,8,-1
 546 1021 l 1,9,-1
 456 569 l 1,10,-1
 554 569 l 1,11,-1
 545 524 l 1,12,-1
 243 524 l 1,13,-1
 253 569 l 1,14,-1
 350 569 l 1,15,-1
 440 1021 l 1,0,-1
1011 569 m 1,16,-1
 942 956 l 1,17,-1
 857 524 l 1,18,-1
 688 524 l 1,19,-1
 697 569 l 1,20,-1
 794 569 l 1,21,-1
 884 1021 l 1,22,-1
 787 1021 l 1,23,-1
 796 1066 l 1,24,-1
 1036 1066 l 1,25,-1
 1092 747 l 1,26,-1
 1265 1066 l 1,27,-1
 1481 1066 l 1,28,-1
 1473 1021 l 1,29,-1
 1375 1021 l 1,30,-1
 1285 569 l 1,31,-1
 1383 569 l 1,32,-1
 1373 524 l 1,33,-1
 1178 524 l 1,34,-1
 1270 985 l 1,35,-1
 1041 569 l 1,36,-1
 1011 569 l 1,16,-1
EndSplineSet
EndChar

StartChar: logicalnot
Encoding: 172 172 39
Width: 932
Flags: W
LayerCount: 2
Fore
SplineSet
177 510 m 1,0,-1
 193 590 l 1,1,-1
 975 590 l 1,2,-1
 906 248 l 1,3,-1
 814 248 l 1,4,-1
 866 510 l 1,5,-1
 177 510 l 1,0,-1
EndSplineSet
EndChar

StartChar: florin
Encoding: 402 402 40
Width: 679
Flags: W
LayerCount: 2
Fore
SplineSet
158 -231 m 1,0,-1
 210 -18 l 1,1,-1
 286 364 l 1,2,-1
 108 364 l 1,3,-1
 117 409 l 1,4,-1
 294 409 l 1,5,-1
 298 427 l 2,6,7
 330 586 330 586 463 692.5 c 128,-1,8
 596 799 596 799 761 799 c 0,9,10
 818 799 818 799 860 784 c 1,11,-1
 764 678 l 1,12,13
 712 729 712 729 643 729 c 0,14,15
 500 729 500 729 457 512 c 2,16,-1
 436 409 l 1,17,-1
 623 409 l 1,18,-1
 614 364 l 1,19,-1
 427 364 l 1,20,-1
 313 -213 l 1,21,-1
 158 -231 l 1,0,-1
EndSplineSet
EndChar

StartChar: ellipsis
Encoding: 8230 8230 41
Width: 1827
Flags: W
LayerCount: 2
Fore
SplineSet
758 113 m 0,0,1
 758 144 758 144 809.5 245.5 c 128,-1,2
 861 347 861 347 876 355 c 0,3,4
 907 369 907 369 964.5 307.5 c 128,-1,5
 1022 246 1022 246 1026 211 c 1,6,7
 1026 166 1026 166 977.5 79.5 c 128,-1,8
 929 -7 929 -7 908 -7 c 0,9,10
 899 -7 899 -7 851 26.5 c 128,-1,11
 803 60 803 60 778 79 c 0,12,13
 758 96 758 96 758 113 c 0,0,1
1308 113 m 0,14,15
 1308 144 1308 144 1359 245.5 c 128,-1,16
 1410 347 1410 347 1426 355 c 0,17,18
 1457 369 1457 369 1514.5 307.5 c 128,-1,19
 1572 246 1572 246 1575 211 c 0,20,21
 1575 166 1575 166 1527 79.5 c 128,-1,22
 1479 -7 1479 -7 1458 -7 c 0,23,24
 1449 -7 1449 -7 1401 26.5 c 128,-1,25
 1353 60 1353 60 1328 79 c 0,26,27
 1308 96 1308 96 1308 113 c 0,14,15
211 113 m 0,28,29
 211 144 211 144 262 245.5 c 128,-1,30
 313 347 313 347 329 355 c 0,31,32
 360 369 360 369 417.5 307.5 c 128,-1,33
 475 246 475 246 478 211 c 0,34,35
 478 166 478 166 430 79.5 c 128,-1,36
 382 -7 382 -7 361 -7 c 0,37,38
 352 -7 352 -7 304 26.5 c 128,-1,39
 256 60 256 60 231 79 c 0,40,41
 211 96 211 96 211 113 c 0,28,29
EndSplineSet
EndChar

StartChar: endash
Encoding: 8211 8211 42
Width: 434
Flags: W
LayerCount: 2
Fore
SplineSet
434 154 m 1,0,-1
 0 154 l 1,1,-1
 0 234 l 1,2,-1
 434 234 l 1,3,-1
 434 154 l 1,0,-1
EndSplineSet
EndChar

StartChar: emdash
Encoding: 8212 8212 43
Width: 1862
Flags: W
LayerCount: 2
Fore
SplineSet
1866 572 m 1,0,-1
 -4 572 l 1,1,-1
 -4 732 l 1,2,-1
 1866 732 l 1,3,-1
 1866 572 l 1,0,-1
EndSplineSet
EndChar

StartChar: quotedblleft
Encoding: 8220 8220 44
Width: 613
Flags: W
LayerCount: 2
Fore
SplineSet
340 993 m 0,0,1
 341 1058 341 1058 385 1121.5 c 128,-1,2
 429 1185 429 1185 483 1211 c 1,3,-1
 514 1153 l 1,4,5
 498 1144 498 1144 476 1120 c 128,-1,6
 454 1096 454 1096 444 1058 c 1,7,8
 510 1030 510 1030 507 975 c 0,9,10
 507 959 507 959 500.5 944.5 c 128,-1,11
 494 930 494 930 483.5 919 c 128,-1,12
 473 908 473 908 458 901.5 c 128,-1,13
 443 895 443 895 427 895 c 0,14,15
 406 895 406 895 390 903.5 c 128,-1,16
 374 912 374 912 363 925.5 c 128,-1,17
 352 939 352 939 346 957 c 128,-1,18
 340 975 340 975 340 993 c 0,0,1
121 993 m 0,19,20
 122 1058 122 1058 166 1121.5 c 128,-1,21
 210 1185 210 1185 265 1211 c 1,22,-1
 296 1153 l 1,23,24
 280 1144 280 1144 258 1120 c 128,-1,25
 236 1096 236 1096 226 1058 c 1,26,27
 292 1030 292 1030 289 975 c 0,28,29
 289 959 289 959 282.5 944.5 c 128,-1,30
 276 930 276 930 265 919 c 128,-1,31
 254 908 254 908 239 901.5 c 128,-1,32
 224 895 224 895 208 895 c 0,33,34
 188 895 188 895 171.5 903.5 c 128,-1,35
 155 912 155 912 144 925.5 c 128,-1,36
 133 939 133 939 127 957 c 128,-1,37
 121 975 121 975 121 993 c 0,19,20
EndSplineSet
EndChar

StartChar: quotedblright
Encoding: 8221 8221 45
Width: 597
Flags: W
LayerCount: 2
Fore
SplineSet
295 1113 m 0,0,1
 294 1048 294 1048 250 984.5 c 128,-1,2
 206 921 206 921 152 895 c 1,3,-1
 121 953 l 1,4,5
 137 962 137 962 159 986 c 128,-1,6
 181 1010 181 1010 191 1048 c 1,7,8
 125 1076 125 1076 128 1131 c 0,9,10
 128 1147 128 1147 134.5 1161.5 c 128,-1,11
 141 1176 141 1176 151.5 1187 c 128,-1,12
 162 1198 162 1198 176.5 1204.5 c 128,-1,13
 191 1211 191 1211 208 1211 c 0,14,15
 229 1211 229 1211 245 1202.5 c 128,-1,16
 261 1194 261 1194 272 1180.5 c 128,-1,17
 283 1167 283 1167 289 1149 c 128,-1,18
 295 1131 295 1131 295 1113 c 0,0,1
514 1113 m 0,19,20
 513 1048 513 1048 469 984.5 c 128,-1,21
 425 921 425 921 370 895 c 1,22,-1
 339 953 l 1,23,24
 355 962 355 962 377 986 c 128,-1,25
 399 1010 399 1010 409 1048 c 1,26,27
 343 1076 343 1076 346 1131 c 0,28,29
 346 1147 346 1147 352.5 1161.5 c 128,-1,30
 359 1176 359 1176 370 1187 c 128,-1,31
 381 1198 381 1198 395.5 1204.5 c 128,-1,32
 410 1211 410 1211 427 1211 c 0,33,34
 447 1211 447 1211 463 1202.5 c 128,-1,35
 479 1194 479 1194 490.5 1180.5 c 128,-1,36
 502 1167 502 1167 508 1149 c 128,-1,37
 514 1131 514 1131 514 1113 c 0,19,20
EndSplineSet
EndChar

StartChar: divide
Encoding: 247 247 46
Width: 1058
Flags: W
LayerCount: 2
Fore
SplineSet
619 620 m 1,0,-1
 488 620 l 1,1,-1
 488 770 l 1,2,-1
 619 770 l 1,3,-1
 619 620 l 1,0,-1
913 383 m 1,4,-1
 177 383 l 1,5,-1
 177 489 l 1,6,-1
 913 489 l 1,7,-1
 913 383 l 1,4,-1
619 110 m 1,8,-1
 488 110 l 1,9,-1
 488 260 l 1,10,-1
 619 260 l 1,11,-1
 619 110 l 1,8,-1
EndSplineSet
EndChar

StartChar: lozenge
Encoding: 9674 9674 47
Width: 1118
Flags: W
LayerCount: 2
Fore
SplineSet
1003 699 m 1,0,-1
 560 197 l 1,1,-1
 117 699 l 1,2,-1
 560 1202 l 1,3,-1
 1003 699 l 1,0,-1
848 699 m 1,4,-1
 560 1036 l 1,5,-1
 271 699 l 1,6,-1
 560 364 l 1,7,-1
 848 699 l 1,4,-1
EndSplineSet
EndChar

StartChar: fraction
Encoding: 8260 8260 48
Width: 742
Flags: W
LayerCount: 2
Fore
SplineSet
740 1101 m 1,0,-1
 101 -82 l 1,1,-1
 -9 -82 l 1,2,-1
 629 1101 l 1,3,-1
 740 1101 l 1,0,-1
EndSplineSet
EndChar

StartChar: guilsinglleft
Encoding: 8249 8249 49
Width: 1117
Flags: W
LayerCount: 2
Fore
SplineSet
955 58 m 1,0,-1
 150 444 l 1,1,-1
 150 534 l 1,2,-1
 955 918 l 1,3,-1
 955 784 l 1,4,-1
 331 489 l 1,5,-1
 955 192 l 1,6,-1
 955 58 l 1,0,-1
EndSplineSet
EndChar

StartChar: daggerdbl
Encoding: 8225 8225 52
Width: 932
Flags: W
LayerCount: 2
Fore
SplineSet
349 -231 m 1,0,-1
 481 185 l 1,1,-1
 161 154 l 1,2,-1
 211 261 l 1,3,-1
 490 229 l 1,4,-1
 567 616 l 1,5,-1
 247 586 l 1,6,-1
 297 693 l 1,7,-1
 575 661 l 1,8,-1
 608 1066 l 1,9,-1
 758 1093 l 1,10,-1
 620 661 l 1,11,-1
 940 693 l 1,12,-1
 889 586 l 1,13,-1
 611 616 l 1,14,-1
 535 229 l 1,15,-1
 855 261 l 1,16,-1
 804 154 l 1,17,-1
 525 185 l 1,18,-1
 499 -213 l 1,19,-1
 349 -231 l 1,0,-1
EndSplineSet
EndChar

StartChar: middot.001
Encoding: 8729 8729 53
Width: 620
Flags: W
LayerCount: 2
Fore
SplineSet
429 516 m 1,0,-1
 190 516 l 1,1,-1
 190 789 l 1,2,-1
 429 789 l 1,3,-1
 429 516 l 1,0,-1
EndSplineSet
EndChar

StartChar: quotesinglbase
Encoding: 8218 8218 54
Width: 418
Flags: W
LayerCount: 2
Fore
SplineSet
103 128 m 1,0,-1
 247 231 l 1,1,-1
 353 90 l 1,2,3
 345 -56 345 -56 262.5 -134.5 c 128,-1,4
 180 -213 180 -213 36 -213 c 1,5,-1
 76 -168 l 1,6,7
 189 -158 189 -158 211 -18 c 1,8,-1
 103 128 l 1,0,-1
EndSplineSet
EndChar

StartChar: quotedblbase
Encoding: 8222 8222 55
Width: 684
Flags: W
LayerCount: 2
Fore
SplineSet
91 92 m 1,0,-1
 204 178 l 1,1,-1
 292 64 l 1,2,3
 270 -213 270 -213 31 -213 c 1,4,-1
 60 -168 l 1,5,6
 166 -148 166 -148 179 -16 c 1,7,-1
 91 92 l 1,0,-1
401 92 m 1,8,-1
 516 178 l 1,9,-1
 602 64 l 1,10,11
 581 -213 581 -213 341 -213 c 1,12,-1
 372 -168 l 1,13,14
 476 -148 476 -148 490 -16 c 1,15,-1
 401 92 l 1,8,-1
EndSplineSet
EndChar

StartChar: perthousand
Encoding: 8240 8240 56
Width: 1571
Flags: W
LayerCount: 2
Fore
SplineSet
385 533 m 0,0,1
 304 533 304 533 254.5 584.5 c 128,-1,2
 205 636 205 636 205 722 c 0,3,4
 205 865 205 865 286.5 965.5 c 128,-1,5
 368 1066 368 1066 483 1066 c 0,6,7
 567 1066 567 1066 617.5 1014.5 c 128,-1,8
 668 963 668 963 668 877 c 0,9,10
 668 733 668 733 585.5 633 c 128,-1,11
 503 533 503 533 385 533 c 0,0,1
311 715 m 0,12,13
 311 578 311 578 398 578 c 0,14,15
 463 578 463 578 517 671.5 c 128,-1,16
 571 765 571 765 571 881 c 0,17,18
 571 1022 571 1022 483 1022 c 0,19,20
 416 1022 416 1022 363.5 928 c 128,-1,21
 311 834 311 834 311 715 c 0,12,13
850 0 m 0,22,23
 769 0 769 0 719.5 51.5 c 128,-1,24
 670 103 670 103 670 189 c 0,25,26
 670 331 670 331 751 432 c 128,-1,27
 832 533 832 533 947 533 c 0,28,29
 1031 533 1031 533 1081.5 481.5 c 128,-1,30
 1132 430 1132 430 1132 344 c 0,31,32
 1132 200 1132 200 1049.5 100 c 128,-1,33
 967 0 967 0 850 0 c 0,22,23
776 182 m 0,34,35
 776 44 776 44 862 44 c 0,36,37
 929 44 929 44 982 138 c 128,-1,38
 1035 232 1035 232 1035 348 c 0,39,40
 1035 490 1035 490 948 490 c 0,41,42
 880 490 880 490 828 395.5 c 128,-1,43
 776 301 776 301 776 182 c 0,34,35
131 -27 m 1,44,-1
 1111 1093 l 1,45,-1
 1206 1093 l 1,46,-1
 225 -27 l 1,47,-1
 131 -27 l 1,44,-1
1376 0 m 0,48,49
 1294 0 1294 0 1244.5 51.5 c 128,-1,50
 1195 103 1195 103 1195 189 c 0,51,52
 1195 331 1195 331 1276.5 432 c 128,-1,53
 1358 533 1358 533 1473 533 c 0,54,55
 1557 533 1557 533 1607.5 481.5 c 128,-1,56
 1658 430 1658 430 1658 344 c 0,57,58
 1658 200 1658 200 1575.5 100 c 128,-1,59
 1493 0 1493 0 1376 0 c 0,48,49
1301 183 m 0,60,61
 1301 44 1301 44 1389 44 c 0,62,63
 1453 44 1453 44 1507 138 c 128,-1,64
 1561 232 1561 232 1561 347 c 0,65,66
 1561 490 1561 490 1473 490 c 0,67,68
 1406 490 1406 490 1353.5 395.5 c 128,-1,69
 1301 301 1301 301 1301 183 c 0,60,61
EndSplineSet
EndChar

StartChar: multiply
Encoding: 215 215 60
Width: 845
Flags: W
LayerCount: 2
Fore
SplineSet
624 147 m 1,0,-1
 418 352 l 1,1,-1
 216 149 l 1,2,-1
 142 223 l 1,3,-1
 345 426 l 1,4,-1
 141 630 l 1,5,-1
 218 708 l 1,6,-1
 423 504 l 1,7,-1
 628 709 l 1,8,-1
 701 635 l 1,9,-1
 496 430 l 1,10,-1
 702 224 l 1,11,-1
 624 147 l 1,0,-1
EndSplineSet
EndChar

StartChar: macron
Encoding: 175 175 61
Width: 1118
Flags: W
LayerCount: 2
Fore
SplineSet
1134 1259 m 1,0,-1
 -16 1259 l 1,1,-1
 -16 1389 l 1,2,-1
 1134 1389 l 1,3,-1
 1134 1259 l 1,0,-1
EndSplineSet
EndChar

StartChar: periodcentered
Encoding: 183 183 62
Width: 724
Flags: W
LayerCount: 2
Fore
SplineSet
482 832 m 1,0,-1
 243 832 l 1,1,-1
 243 1117 l 1,2,-1
 482 1117 l 1,3,-1
 482 832 l 1,0,-1
EndSplineSet
EndChar

StartChar: H22073
Encoding: 9633 9633 63
Width: 1237
Flags: W
LayerCount: 2
Fore
SplineSet
146 944 m 1,0,-1
 1090 944 l 1,1,-1
 1090 0 l 1,2,-1
 146 0 l 1,3,-1
 146 944 l 1,0,-1
222 868 m 1,4,-1
 222 76 l 1,5,-1
 1014 76 l 1,6,-1
 1014 868 l 1,7,-1
 222 868 l 1,4,-1
EndSplineSet
EndChar

StartChar: H18543
Encoding: 9642 9642 64
Width: 1089
Flags: W
LayerCount: 2
Fore
SplineSet
886 894 m 1,0,-1
 886 200 l 1,1,-1
 192 200 l 1,2,-1
 192 894 l 1,3,-1
 886 894 l 1,0,-1
EndSplineSet
EndChar

StartChar: H18551
Encoding: 9643 9643 65
Width: 1089
Flags: W
LayerCount: 2
Fore
SplineSet
888 930 m 1,0,-1
 888 235 l 1,1,-1
 193 235 l 1,2,-1
 193 930 l 1,3,-1
 888 930 l 1,0,-1
774 816 m 1,4,-1
 307 816 l 1,5,-1
 307 349 l 1,6,-1
 774 349 l 1,7,-1
 774 816 l 1,4,-1
EndSplineSet
EndChar

StartChar: H18533
Encoding: 9679 9679 66
Width: 1339
Flags: W
LayerCount: 2
Fore
SplineSet
204 775 m 0,0,1
 204 976 204 976 345 1117 c 128,-1,2
 486 1258 486 1258 685 1258 c 0,3,4
 885 1258 885 1258 1026 1117 c 128,-1,5
 1167 976 1167 976 1167 775 c 0,6,7
 1167 577 1167 577 1026 436 c 128,-1,8
 885 295 885 295 685 295 c 0,9,10
 486 295 486 295 345 436 c 128,-1,11
 204 577 204 577 204 775 c 0,0,1
EndSplineSet
EndChar

StartChar: openbullet
Encoding: 9702 9702 67
Width: 1089
Flags: W
LayerCount: 2
Fore
SplineSet
544 1392 m 0,0,1
 700 1392 700 1392 810.5 1281.5 c 128,-1,2
 921 1171 921 1171 921 1015 c 256,3,4
 921 859 921 859 810.5 749 c 128,-1,5
 700 639 700 639 544 639 c 256,6,7
 388 639 388 639 278 749 c 128,-1,8
 168 859 168 859 168 1015 c 256,9,10
 168 1171 168 1171 277.5 1281.5 c 128,-1,11
 387 1392 387 1392 544 1392 c 0,0,1
544 1278 m 0,12,13
 435 1278 435 1278 358.5 1200.5 c 128,-1,14
 282 1123 282 1123 282 1015 c 0,15,16
 282 906 282 906 359 829.5 c 128,-1,17
 436 753 436 753 544 753 c 256,18,19
 652 753 652 753 729.5 829.5 c 128,-1,20
 807 906 807 906 807 1015 c 0,21,22
 807 1123 807 1123 730.5 1200.5 c 128,-1,23
 654 1278 654 1278 544 1278 c 0,12,13
EndSplineSet
EndChar

StartChar: uniFFFC
Encoding: 65532 65532 68
Width: 2048
Flags: W
LayerCount: 2
Fore
SplineSet
2048 1150 m 1,0,-1
 1948 1150 l 1,1,-1
 1948 1373 l 1,2,-1
 1725 1373 l 1,3,-1
 1725 1473 l 1,4,-1
 2048 1473 l 1,5,-1
 2048 1150 l 1,0,-1
1473 1373 m 1,6,-1
 1150 1373 l 1,7,-1
 1150 1473 l 1,8,-1
 1473 1473 l 1,9,-1
 1473 1373 l 1,6,-1
2048 575 m 1,10,-1
 1948 575 l 1,11,-1
 1948 898 l 1,12,-1
 2048 898 l 1,13,-1
 2048 575 l 1,10,-1
1782 611 m 2,14,15
 1782 370 1782 370 1571 370 c 0,16,17
 1485 370 1485 370 1433 415 c 1,18,-1
 1506 494 l 1,19,20
 1531 468 1531 468 1571 468 c 0,21,22
 1666 468 1666 468 1666 606 c 2,23,-1
 1666 1090 l 1,24,-1
 1782 1090 l 1,25,-1
 1782 611 l 2,14,15
898 1373 m 1,26,-1
 575 1373 l 1,27,-1
 575 1473 l 1,28,-1
 898 1473 l 1,29,-1
 898 1373 l 1,26,-1
2048 0 m 1,30,-1
 1725 0 l 1,31,-1
 1725 100 l 1,32,-1
 1948 100 l 1,33,-1
 1948 323 l 1,34,-1
 2048 323 l 1,35,-1
 2048 0 l 1,30,-1
1423 591 m 0,36,37
 1423 382 1423 382 1149 382 c 2,38,-1
 909 382 l 1,39,-1
 909 1090 l 1,40,-1
 1144 1090 l 2,41,42
 1393 1090 1393 1090 1393 904 c 0,43,44
 1393 813 1393 813 1304 759 c 1,45,46
 1423 713 1423 713 1423 591 c 0,36,37
323 1373 m 1,47,-1
 100 1373 l 1,48,-1
 100 1150 l 1,49,-1
 0 1150 l 1,50,-1
 0 1473 l 1,51,-1
 323 1473 l 1,52,-1
 323 1373 l 1,47,-1
1473 0 m 1,53,-1
 1150 0 l 1,54,-1
 1150 100 l 1,55,-1
 1473 100 l 1,56,-1
 1473 0 l 1,53,-1
854 735 m 0,57,58
 854 562 854 562 772 466 c 128,-1,59
 690 370 690 370 537 370 c 256,60,61
 384 370 384 370 303.5 466 c 128,-1,62
 223 562 223 562 223 735 c 0,63,64
 223 910 223 910 303.5 1006 c 128,-1,65
 384 1102 384 1102 537 1102 c 256,66,67
 690 1102 690 1102 772 1006 c 128,-1,68
 854 910 854 910 854 735 c 0,57,58
100 575 m 1,69,-1
 0 575 l 1,70,-1
 0 898 l 1,71,-1
 100 898 l 1,72,-1
 100 575 l 1,69,-1
898 0 m 1,73,-1
 575 0 l 1,74,-1
 575 100 l 1,75,-1
 898 100 l 1,76,-1
 898 0 l 1,73,-1
323 0 m 1,77,-1
 0 0 l 1,78,-1
 0 323 l 1,79,-1
 100 323 l 1,80,-1
 100 100 l 1,81,-1
 323 100 l 1,82,-1
 323 0 l 1,77,-1
1277 893 m 0,83,84
 1277 992 1277 992 1114 992 c 2,85,-1
 1025 992 l 1,86,-1
 1025 798 l 1,87,-1
 1126 798 l 2,88,89
 1277 798 1277 798 1277 893 c 0,83,84
1307 591 m 0,90,91
 1307 700 1307 700 1136 700 c 2,92,-1
 1025 700 l 1,93,-1
 1025 480 l 1,94,-1
 1149 480 l 2,95,96
 1307 480 1307 480 1307 591 c 0,90,91
738 735 m 0,97,98
 738 1004 738 1004 537 1004 c 0,99,100
 339 1004 339 1004 339 735 c 0,101,102
 339 468 339 468 537 468 c 0,103,104
 738 468 738 468 738 735 c 0,97,98
EndSplineSet
EndChar

StartChar: zerowidthnonjoiner
Encoding: 8204 8204 88
Width: 0
GlyphClass: 2
Flags: W
LayerCount: 2
Fore
SplineSet
36 1289 m 1,0,-1
 36 -275 l 1,1,-1
 -36 -275 l 1,2,-1
 -36 1289 l 1,3,-1
 36 1289 l 1,0,-1
EndSplineSet
EndChar

StartChar: zerowidthjoiner
Encoding: 8205 8205 89
Width: 0
GlyphClass: 2
Flags: W
LayerCount: 2
Fore
SplineSet
36 -275 m 1,0,-1
 -36 -275 l 1,1,-1
 -36 1114 l 1,2,-1
 -170 978 l 1,3,-1
 -219 1027 l 1,4,-1
 -48 1196 l 1,5,-1
 -219 1364 l 1,6,-1
 -170 1413 l 1,7,-1
 0 1242 l 1,8,-1
 170 1413 l 1,9,-1
 219 1364 l 1,10,-1
 48 1196 l 1,11,-1
 219 1027 l 1,12,-1
 170 978 l 1,13,-1
 36 1114 l 1,14,-1
 36 -275 l 1,0,-1
EndSplineSet
EndChar

StartChar: lefttorightmark
Encoding: 8206 8206 90
Width: 0
GlyphClass: 2
Flags: W
LayerCount: 2
Fore
SplineSet
430 1198 m 1,0,-1
 213 984 l 1,1,-1
 164 1033 l 1,2,-1
 301 1163 l 1,3,-1
 35 1163 l 1,4,-1
 35 -275 l 1,5,-1
 -36 -275 l 1,6,-1
 -36 1234 l 1,7,-1
 301 1234 l 1,8,-1
 164 1364 l 1,9,-1
 213 1413 l 1,10,-1
 430 1198 l 1,0,-1
EndSplineSet
EndChar

StartChar: righttoleftmark
Encoding: 8207 8207 91
Width: 0
GlyphClass: 2
Flags: W
LayerCount: 2
Fore
SplineSet
35 -275 m 1,0,-1
 -36 -275 l 1,1,-1
 -36 1163 l 1,2,-1
 -302 1163 l 1,3,-1
 -165 1033 l 1,4,-1
 -214 984 l 1,5,-1
 -431 1198 l 1,6,-1
 -214 1413 l 1,7,-1
 -165 1364 l 1,8,-1
 -302 1234 l 1,9,-1
 35 1234 l 1,10,-1
 35 -275 l 1,0,-1
EndSplineSet
EndChar

StartChar: afii57388.001
Encoding: 1644 1644 92
Width: 353
GlyphClass: 2
Flags: W
LayerCount: 2
Fore
SplineSet
210 654 m 0,0,1
 200 627 200 627 185 603 c 0,2,3
 180 597 180 597 173.5 593.5 c 128,-1,4
 167 590 167 590 162 590 c 128,-1,5
 157 590 157 590 154.5 593 c 128,-1,6
 152 596 152 596 155 603 c 0,7,8
 187 660 187 660 202.5 713.5 c 128,-1,9
 218 767 218 767 218 800 c 1,10,11
 194 806 194 806 179 816 c 128,-1,12
 164 826 164 826 155 837.5 c 128,-1,13
 146 849 146 849 143 859 c 128,-1,14
 140 869 140 869 140 874 c 0,15,16
 140 890 140 890 145.5 907 c 128,-1,17
 151 924 151 924 160.5 937.5 c 128,-1,18
 170 951 170 951 183.5 959.5 c 128,-1,19
 197 968 197 968 213 968 c 0,20,21
 272 968 272 968 272 874 c 0,22,23
 272 859 272 859 268 835 c 128,-1,24
 264 811 264 811 256 781.5 c 128,-1,25
 248 752 248 752 236.5 719.5 c 128,-1,26
 225 687 225 687 210 654 c 0,0,1
EndSplineSet
EndChar

StartChar: afii57409
Encoding: 1569 1569 93
Width: 655
GlyphClass: 2
Flags: W
AnchorPoint: "Anchor-1" 390 -390 basechar 0
AnchorPoint: "Anchor-0" 375 540 basechar 0
LayerCount: 2
Fore
SplineSet
569 324 m 0,0,1
 569 301 569 301 534 271 c 128,-1,2
 499 241 499 241 476 241 c 0,3,4
 473 241 473 241 433.5 264 c 128,-1,5
 394 287 394 287 373 287 c 0,6,7
 350 287 350 287 299 259 c 0,8,9
 245 230 245 230 245 212 c 0,10,11
 245 170 245 170 304 145 c 0,12,13
 350 126 350 126 398 126 c 2,14,-1
 447 126 l 2,15,16
 477 126 477 126 604 143 c 1,17,18
 590 72 590 72 565.5 54 c 128,-1,19
 541 36 541 36 464 30 c 0,20,21
 411 28 411 28 358 24 c 0,22,23
 297 17 297 17 260 -12 c 2,24,-1
 160 -90 l 1,25,-1
 152 -76 l 1,26,27
 152 -65 152 -65 183.5 -17.5 c 128,-1,28
 215 30 215 30 215 40 c 2,29,-1
 212 50 l 1,30,31
 141 114 141 114 141 136 c 0,32,33
 141 200 141 200 338 337 c 0,34,35
 394 377 394 377 476 377 c 0,36,37
 569 377 569 377 569 324 c 0,0,1
EndSplineSet
EndChar

StartChar: afii57440
Encoding: 1600 1600 94
Width: 281
GlyphClass: 2
Flags: W
LayerCount: 2
Fore
SplineSet
314 140 m 1,0,-1
 314 0 l 1,1,-1
 -22 0 l 1,2,-1
 -22 140 l 1,3,-1
 314 140 l 1,0,-1
EndSplineSet
EndChar

StartChar: afii57453
Encoding: 1613 1613 95
Width: 0
GlyphClass: 4
Flags: W
AnchorPoint: "Anchor-3" 0 0 mark 0
AnchorPoint: "Anchor-1" 0 0 mark 0
LayerCount: 2
Fore
SplineSet
273 176 m 1,0,1
 232 163 232 163 80 87 c 1,2,3
 -105 0 -105 0 -159 0 c 2,4,-1
 -279 0 l 1,5,6
 91 176 91 176 152 176 c 2,7,-1
 273 176 l 1,0,1
273 26 m 1,8,9
 232 13 232 13 80 -63 c 1,10,11
 -105 -150 -105 -150 -159 -150 c 2,12,-1
 -279 -150 l 1,13,14
 91 26 91 26 152 26 c 2,15,-1
 273 26 l 1,8,9
EndSplineSet
EndChar

StartChar: afii57381
Encoding: 1642 1642 96
Width: 1031
GlyphClass: 2
Flags: W
LayerCount: 2
Fore
SplineSet
329 1041 m 0,0,1
 329 997 329 997 299.5 968 c 128,-1,2
 270 939 270 939 226 939 c 0,3,4
 183 939 183 939 153 968.5 c 128,-1,5
 123 998 123 998 123 1041 c 0,6,7
 123 1083 123 1083 153.5 1113 c 128,-1,8
 184 1143 184 1143 226 1143 c 0,9,10
 269 1143 269 1143 299 1113.5 c 128,-1,11
 329 1084 329 1084 329 1041 c 0,0,1
821 1259 m 1,12,-1
 343 -101 l 1,13,-1
 245 -100 l 1,14,-1
 726 1261 l 1,15,-1
 821 1259 l 1,12,-1
918 88 m 0,16,17
 918 45 918 45 888.5 15 c 128,-1,18
 859 -15 859 -15 816 -15 c 0,19,20
 771 -15 771 -15 742 14 c 128,-1,21
 713 43 713 43 713 88 c 0,22,23
 713 131 713 131 743 160.5 c 128,-1,24
 773 190 773 190 816 190 c 0,25,26
 858 190 858 190 888 160 c 128,-1,27
 918 130 918 130 918 88 c 0,16,17
EndSplineSet
EndChar

StartChar: afii57461
Encoding: 1643 1643 97
Width: 536
GlyphClass: 2
Flags: W
LayerCount: 2
Fore
SplineSet
518 521 m 1,0,-1
 115 -382 l 1,1,-1
 19 -352 l 1,2,-1
 425 551 l 1,3,-1
 518 521 l 1,0,-1
EndSplineSet
EndChar

StartChar: afii63167
Encoding: 1645 1645 98
Width: 1118
GlyphClass: 2
Flags: W
LayerCount: 2
Fore
SplineSet
694 729 m 1,0,-1
 1057 733 l 1,1,-1
 1057 610 l 1,2,-1
 702 612 l 1,3,-1
 971 352 l 1,4,-1
 883 264 l 1,5,-1
 616 539 l 1,6,-1
 623 168 l 1,7,-1
 498 168 l 1,8,-1
 502 539 l 1,9,-1
 236 264 l 1,10,-1
 147 352 l 1,11,-1
 422 614 l 1,12,-1
 63 610 l 1,13,-1
 63 733 l 1,14,-1
 420 729 l 1,15,-1
 170 975 l 1,16,-1
 258 1065 l 1,17,-1
 502 817 l 1,18,-1
 498 1176 l 1,19,-1
 623 1176 l 1,20,-1
 616 813 l 1,21,-1
 860 1065 l 1,22,-1
 948 975 l 1,23,-1
 694 729 l 1,0,-1
EndSplineSet
EndChar

StartChar: afii57459
Encoding: 65543 -1 99
Width: 496
GlyphClass: 2
Flags: W
LayerCount: 2
Fore
SplineSet
-36 0 m 1,0,-1
 -36 140 l 1,1,2
 157 148 157 148 197 152 c 0,3,4
 347 170 347 170 388 221 c 1,5,6
 390 247 390 247 390 262 c 0,7,8
 390 298 390 298 361 344 c 1,9,10
 300 301 300 301 242 301 c 0,11,12
 122 301 122 301 122 451 c 0,13,14
 122 522 122 522 160 606 c 0,15,16
 204 707 204 707 264 707 c 0,17,18
 360 707 360 707 416 527 c 0,19,20
 458 392 458 392 458 264 c 0,21,22
 458 0 458 0 -36 0 c 1,0,-1
192 491 m 0,23,24
 192 437 192 437 239 437 c 0,25,26
 284 437 284 437 332 470 c 1,27,28
 272 587 272 587 234 587 c 0,29,30
 215 587 215 587 202 547 c 0,31,32
 192 518 192 518 192 491 c 0,23,24
EndSplineSet
EndChar

StartChar: afii57543
Encoding: 65544 -1 100
Width: 613
Flags: W
LayerCount: 2
Fore
SplineSet
332 371 m 1,0,1
 364 242 364 242 390 210 c 0,2,3
 432 151 432 151 539 142 c 1,4,5
 618 140 618 140 641 140 c 1,6,-1
 641 0 l 1,7,-1
 510 0 l 2,8,9
 453 0 453 0 392 29.5 c 128,-1,10
 331 59 331 59 304 131 c 1,11,12
 210 0 210 0 -22 0 c 1,13,-1
 -22 140 l 1,14,15
 244 140 244 140 284 221 c 0,16,17
 322 305 322 305 332 371 c 1,0,1
EndSplineSet
EndChar

StartChar: afii57534
Encoding: 1749 1749 101
Width: 632
GlyphClass: 2
Flags: W
LayerCount: 2
Fore
SplineSet
331 529 m 1,0,1
 408 511 408 511 494 457 c 0,2,3
 602 390 602 390 602 331 c 0,4,5
 602 193 602 193 522 89 c 0,6,7
 436 -25 436 -25 301 -25 c 0,8,9
 230 -25 230 -25 181 16 c 0,10,11
 128 59 128 59 128 127 c 0,12,13
 128 218 128 218 196 344 c 0,14,15
 257 461 257 461 331 529 c 1,0,1
318 119 m 0,16,17
 373 119 373 119 444 150 c 0,18,19
 523 184 523 184 544 227 c 1,20,21
 542 272 542 272 442 332 c 0,22,23
 347 389 347 389 295 389 c 1,24,25
 192 247 192 247 192 200 c 0,26,27
 192 161 192 161 238 138 c 0,28,29
 275 119 275 119 318 119 c 0,16,17
EndSplineSet
EndChar

StartChar: afii64240
Encoding: 65546 -1 103
Width: 374
Flags: W
LayerCount: 2
Fore
SplineSet
78 108 m 1,0,1
 89 130 89 130 119 168 c 0,2,3
 155 215 155 215 168 215 c 0,4,5
 185 215 185 215 232 169.5 c 128,-1,6
 279 124 279 124 279 108 c 1,7,8
 216 4 216 4 190 4 c 0,9,10
 178 4 178 4 130.5 49 c 128,-1,11
 83 94 83 94 78 108 c 1,0,1
EndSplineSet
EndChar

StartChar: afii64241
Encoding: 65547 -1 104
Width: 600
Flags: W
LayerCount: 2
Fore
SplineSet
91 107 m 0,0,1
 91 122 91 122 132 164 c 0,2,3
 166 200 166 200 183 211 c 1,4,5
 204 199 204 199 246 162 c 0,6,7
 292 120 292 120 292 107 c 1,8,9
 240 15 240 15 202 1 c 0,10,11
 192 1 192 1 141.5 49 c 128,-1,12
 91 97 91 97 91 107 c 0,0,1
292 107 m 1,13,14
 296 120 296 120 334 162.5 c 128,-1,15
 372 205 372 205 385 211 c 1,16,17
 403 200 403 200 447 161 c 0,18,19
 496 116 496 116 496 107 c 0,20,21
 496 96 496 96 455 48.5 c 128,-1,22
 414 1 414 1 404 1 c 0,23,24
 392 1 392 1 344.5 46.5 c 128,-1,25
 297 92 297 92 292 107 c 1,13,14
EndSplineSet
EndChar

StartChar: afii63954
Encoding: 65548 -1 105
Width: 611
Flags: W
LayerCount: 2
Fore
SplineSet
91 107 m 0,0,1
 91 122 91 122 132 164 c 0,2,3
 166 200 166 200 183 211 c 1,4,5
 204 199 204 199 246 162 c 0,6,7
 292 120 292 120 292 107 c 1,8,9
 240 15 240 15 202 1 c 0,10,11
 192 1 192 1 141.5 49 c 128,-1,12
 91 97 91 97 91 107 c 0,0,1
292 107 m 1,13,14
 296 120 296 120 334 162.5 c 128,-1,15
 372 205 372 205 385 211 c 1,16,17
 403 200 403 200 447 161 c 0,18,19
 496 116 496 116 496 107 c 0,20,21
 496 96 496 96 455 48.5 c 128,-1,22
 414 1 414 1 404 1 c 0,23,24
 392 1 392 1 344.5 46.5 c 128,-1,25
 297 92 297 92 292 107 c 1,13,14
188 288 m 0,26,27
 188 303 188 303 229 345 c 0,28,29
 264 381 264 381 280 392 c 1,30,31
 301 380 301 380 343 343 c 0,32,33
 390 301 390 301 390 288 c 1,34,35
 337 197 337 197 300 182 c 1,36,37
 289 182 289 182 238.5 230 c 128,-1,38
 188 278 188 278 188 288 c 0,26,27
EndSplineSet
EndChar

StartChar: afii57382
Encoding: 65549 -1 106
Width: 590
Flags: W
LayerCount: 2
Fore
SplineSet
491 -112 m 0,0,1
 491 -123 491 -123 452 -166 c 0,2,3
 417 -204 417 -204 400 -217 c 1,4,-1
 399 -217 l 2,5,6
 386 -218 386 -218 337.5 -172 c 128,-1,7
 289 -126 289 -126 289 -112 c 0,8,9
 289 -102 289 -102 329.5 -54 c 128,-1,10
 370 -6 370 -6 380 -6 c 0,11,12
 392 -6 392 -6 441.5 -53 c 128,-1,13
 491 -100 491 -100 491 -112 c 0,0,1
289 -112 m 0,14,15
 289 -126 289 -126 249 -171.5 c 128,-1,16
 209 -217 209 -217 197 -217 c 0,17,18
 183 -217 183 -217 135 -172 c 128,-1,19
 87 -127 87 -127 87 -112 c 0,20,21
 87 -98 87 -98 124 -55 c 128,-1,22
 161 -12 161 -12 177 -6 c 1,23,24
 189 -6 189 -6 239 -53 c 128,-1,25
 289 -100 289 -100 289 -112 c 0,14,15
400 -321 m 1,26,27
 400 -334 400 -334 360.5 -381 c 128,-1,28
 321 -428 321 -428 309 -428 c 0,29,30
 295 -428 295 -428 247 -382 c 128,-1,31
 199 -336 199 -336 199 -321 c 1,32,33
 250 -232 250 -232 289 -217 c 1,34,35
 355 -256 355 -256 400 -321 c 1,26,27
EndSplineSet
EndChar

StartChar: afii64242
Encoding: 65550 -1 107
Width: 449
Flags: W
LayerCount: 2
Fore
SplineSet
330 209 m 0,0,1
 330 228 330 228 259 332 c 1,2,-1
 337 451 l 1,3,4
 415 337 415 337 413 198 c 0,5,6
 413 181 413 181 403 145 c 0,7,8
 388 97 388 97 373 73 c 0,9,10
 330 -1 330 -1 17 0 c 2,11,-1
 -36 0 l 1,12,-1
 -36 140 l 1,13,14
 299 140 299 140 316 172 c 0,15,16
 330 199 330 199 330 209 c 0,0,1
EndSplineSet
EndChar

StartChar: afii57373
Encoding: 65551 -1 112
Width: 454
Flags: W
LayerCount: 2
Fore
SplineSet
378 1382 m 0,0,1
 378 1365 378 1365 352.5 1343 c 128,-1,2
 327 1321 327 1321 309 1321 c 0,3,4
 308 1321 308 1321 278.5 1338 c 128,-1,5
 249 1355 249 1355 234 1355 c 0,6,7
 217 1355 217 1355 179 1334 c 0,8,9
 139 1313 139 1313 139 1299 c 0,10,11
 139 1268 139 1268 183 1250 c 0,12,13
 217 1236 217 1236 252 1236 c 2,14,-1
 288 1236 l 2,15,16
 310 1236 310 1236 404 1248 c 1,17,18
 393 1196 393 1196 375.5 1183 c 128,-1,19
 358 1170 358 1170 300 1165 c 0,20,21
 261 1163 261 1163 223 1161 c 0,22,23
 177 1156 177 1156 150 1134 c 2,24,-1
 76 1077 l 1,25,-1
 71 1087 l 2,26,27
 71 1095 71 1095 94 1130 c 128,-1,28
 117 1165 117 1165 117 1173 c 2,29,-1
 115 1180 l 1,30,31
 63 1227 63 1227 63 1244 c 0,32,33
 63 1291 63 1291 207 1391 c 0,34,35
 249 1421 249 1421 309 1421 c 0,36,37
 378 1421 378 1421 378 1382 c 0,0,1
EndSplineSet
EndChar

StartChar: afii57374
Encoding: 65552 -1 113
Width: 824
GlyphClass: 2
Flags: W
LayerCount: 2
Fore
SplineSet
295 160 m 1,0,1
 246 185 246 185 246 252 c 0,2,3
 246 334 246 334 347 428 c 128,-1,4
 448 522 448 522 530 522 c 0,5,6
 578 522 578 522 607 446 c 0,7,8
 630 386 630 386 630 328 c 0,9,10
 630 242 630 242 589 197 c 1,11,-1
 546 158 l 1,12,-1
 548 152 l 1,13,14
 569 139 569 139 857 140 c 1,15,-1
 857 0 l 1,16,-1
 599 0 l 2,17,18
 491 0 491 0 376 64 c 1,19,20
 240 0 240 0 166 0 c 2,21,-1
 -26 0 l 1,22,-1
 -26 140 l 1,23,24
 270 137 270 137 295 160 c 1,0,1
596 290 m 0,25,26
 596 325 596 325 567 359.5 c 128,-1,27
 538 394 538 394 503 394 c 0,28,29
 472 394 472 394 380 350 c 0,30,31
 286 306 286 306 286 283 c 1,32,33
 313 229 313 229 434 190 c 1,34,35
 596 245 596 245 596 290 c 0,25,26
EndSplineSet
EndChar

StartChar: afii57375
Encoding: 1619 1619 114
Width: 526
GlyphClass: 2
Flags: W
LayerCount: 2
Fore
SplineSet
14 915 m 1,0,1
 14 990 14 990 29 1022 c 0,2,3
 52 1070 52 1070 117 1070 c 0,4,5
 158 1070 158 1070 240 1065.5 c 128,-1,6
 322 1061 322 1061 363 1061 c 0,7,8
 434 1061 434 1061 475 1101 c 0,9,10
 489 1113 489 1113 501 1137 c 1,11,12
 482 1031 482 1031 452 1004 c 0,13,14
 399 954 399 954 269 956 c 128,-1,15
 139 958 139 958 128 958 c 0,16,17
 59 962 59 962 14 915 c 1,0,1
EndSplineSet
EndChar

StartChar: afii57391
Encoding: 59450 59450 115
Width: 1024
GlyphClass: 2
Flags: W
LayerCount: 2
Fore
SplineSet
1024 0 m 1,0,-1
 -70 0 l 1,1,-1
 -70 188 l 1,2,-1
 1024 188 l 1,3,-1
 1024 0 l 1,0,-1
EndSplineSet
EndChar

StartChar: afii57471
Encoding: 65553 -1 116
Width: 1550
Flags: W
LayerCount: 2
Fore
SplineSet
1307 371 m 1,0,1
 1344 234 1344 234 1376 197 c 0,2,3
 1424 140 1424 140 1576 140 c 1,4,-1
 1578 0 l 1,5,-1
 1468 0 l 2,6,7
 1397 0 1397 0 1350 37 c 0,8,9
 1317 64 1317 64 1271 133 c 1,10,-1
 1212 77 l 2,11,12
 1095 -36 1095 -36 696 -36 c 0,13,14
 489 -36 489 -36 339 6 c 0,15,16
 108 71 108 71 108 218 c 0,17,18
 108 314 108 314 202 434 c 1,19,20
 174 358 174 358 174 299 c 0,21,22
 174 142 174 142 585 107 c 0,23,24
 670 100 670 100 762 100 c 0,25,26
 1074 100 1074 100 1217 176 c 0,27,28
 1275 208 1275 208 1307 371 c 1,0,1
EndSplineSet
EndChar

StartChar: afii52258
Encoding: 65554 -1 117
Width: 1709
GlyphClass: 2
Flags: W
LayerCount: 2
Fore
SplineSet
641 -30 m 0,0,1
 466 -30 466 -30 326 14 c 0,2,3
 126 78 126 78 126 215 c 0,4,5
 126 259 126 259 158.5 333 c 128,-1,6
 191 407 191 407 224 436 c 1,7,8
 200 337 200 337 200 304 c 0,9,10
 200 157 200 157 445 130 c 0,11,12
 616 110 616 110 731 110 c 0,13,14
 978 110 978 110 1174 152 c 1,15,16
 1157 186 1157 186 1157 228 c 0,17,18
 1157 318 1157 318 1227.5 408 c 128,-1,19
 1298 498 1298 498 1386 518 c 0,20,21
 1402 522 1402 522 1406 522 c 0,22,23
 1500 522 1500 522 1500 288 c 0,24,25
 1500 208 1500 208 1447 162 c 1,26,27
 1501 138 1501 138 1656 140 c 2,28,-1
 1738 140 l 1,29,-1
 1738 0 l 1,30,-1
 1513 0 l 1,31,32
 1387 4 1387 4 1328 58 c 1,33,34
 1129 -30 1129 -30 641 -30 c 0,0,1
1474 289 m 0,35,36
 1474 331 1474 331 1447.5 363 c 128,-1,37
 1421 395 1421 395 1380 395 c 0,38,39
 1348 395 1348 395 1274 361 c 0,40,41
 1195 325 1195 325 1195 300 c 1,42,43
 1254 185 1254 185 1336 185 c 0,44,45
 1376 185 1376 185 1425 218 c 128,-1,46
 1474 251 1474 251 1474 289 c 0,35,36
EndSplineSet
EndChar

StartChar: afii62889
Encoding: 65555 -1 123
Width: 1184
Flags: W
LayerCount: 2
Fore
SplineSet
1030 0 m 1,0,1
 1030 -187 1030 -187 852 -316 c 0,2,3
 691 -432 691 -432 496 -432 c 0,4,5
 317 -432 317 -432 212.5 -334 c 128,-1,6
 108 -236 108 -236 108 -59 c 0,7,8
 108 -20 108 -20 158 92 c 0,9,10
 210 210 210 210 238 211 c 1,11,-1
 238 193 l 2,12,13
 238 181 238 181 197.5 93 c 128,-1,14
 157 5 157 5 157 -37 c 0,15,16
 157 -58 157 -58 161 -104 c 0,17,18
 168 -197 168 -197 307 -252 c 0,19,20
 416 -295 416 -295 530 -295 c 0,21,22
 829 -295 829 -295 935 -97 c 0,23,24
 943 -82 943 -82 943 -43 c 0,25,26
 943 12 943 12 925 12 c 0,27,28
 673 12 673 12 673 163 c 0,29,30
 673 223 673 223 720 299 c 0,31,32
 772 383 772 383 827 383 c 0,33,34
 900 383 900 383 961 296 c 0,35,36
 1018 217 1018 217 1018 140 c 1,37,-1
 1208 140 l 1,38,-1
 1208 0 l 1,39,-1
 1045 2 l 2,40,41
 1037 2 1037 2 1030 0 c 1,0,1
731 217 m 0,42,43
 731 138 731 138 902 138 c 1,44,-1
 920 140 l 1,45,46
 851 296 851 296 797 296 c 0,47,48
 774 296 774 296 752.5 268.5 c 128,-1,49
 731 241 731 241 731 217 c 0,42,43
EndSplineSet
EndChar

StartChar: afii62887
Encoding: 65556 -1 124
Width: 1258
Flags: W
LayerCount: 2
Fore
SplineSet
568 -62 m 0,0,1
 100 -67 100 -67 100 206 c 0,2,3
 100 338 100 338 210 431 c 1,4,-1
 220 432 l 1,5,6
 156 309 156 309 172 219.5 c 128,-1,7
 188 130 188 130 322 101 c 0,8,9
 430 79 430 79 529 78.5 c 128,-1,10
 628 78 628 78 649 79 c 0,11,12
 831 85 831 85 982.5 127.5 c 128,-1,13
 1134 170 1134 170 1134 221 c 0,14,15
 1134 263 1134 263 1079 373 c 1,16,17
 1114 438 1114 438 1157 497 c 1,18,19
 1222 324 1222 324 1222 233 c 0,20,21
 1222 42 1222 42 972 -21 c 1,22,23
 834 -61 834 -61 568 -62 c 0,0,1
EndSplineSet
EndChar

StartChar: afii62888
Encoding: 1697 1697 125
Width: 1526
GlyphClass: 2
Flags: W
LayerCount: 2
Fore
SplineSet
697 89 m 0,0,1
 1061 89 1061 89 1442 239 c 1,2,3
 1434 287 1434 287 1428 308 c 0,4,5
 1412 362 1412 362 1394 362 c 1,6,7
 1307 308 1307 308 1230 308 c 0,8,9
 1104 308 1104 308 1104 440 c 0,10,11
 1104 515 1104 515 1150 604 c 0,12,13
 1202 706 1202 706 1267 706 c 0,14,15
 1376 706 1376 706 1445 542 c 0,16,17
 1499 413 1499 413 1499 282 c 0,18,19
 1499 -54 1499 -54 650 -54 c 0,20,21
 451 -54 451 -54 288 19 c 0,22,23
 79 113 79 113 79 287 c 0,24,25
 79 382 79 382 178 524 c 1,26,-1
 181 511 l 1,27,28
 166 385 166 385 167 344 c 2,29,-1
 168 312 l 2,30,31
 173 197 173 197 384 134 c 0,32,33
 538 89 538 89 697 89 c 0,0,1
1171 497 m 0,34,35
 1171 426 1171 426 1246 426 c 0,36,37
 1300 426 1300 426 1336 469 c 1,38,39
 1252 596 1252 596 1225 596 c 0,40,41
 1200 596 1200 596 1184 558 c 0,42,43
 1171 527 1171 527 1171 497 c 0,34,35
EndSplineSet
Substitution2: "'medi' Medial Forms in Arabic lookup 3 subtable" afii57374
Substitution2: "'fina' Terminal Forms in Arabic lookup 2 subtable" afii52258
Substitution2: "'init' Initial Forms in Arabic lookup 1 subtable" afii57459
EndChar

StartChar: afii57567
Encoding: 1705 1705 132
Width: 1506
GlyphClass: 2
Flags: W
AnchorPoint: "Anchor-1" 600 -570 basechar 0
AnchorPoint: "Anchor-0" 540 1095 basechar 0
LayerCount: 2
Fore
SplineSet
413 -41 m 0,0,1
 294 -41 294 -41 193 6 c 0,2,3
 66 65 66 65 66 170 c 0,4,5
 66 306 66 306 170 468 c 1,6,7
 168 449 168 449 149 353 c 0,8,9
 134 281 134 281 134 238 c 0,10,11
 134 101 134 101 629 101 c 0,12,13
 1151 101 1151 101 1339 174 c 1,14,15
 1306 296 1306 296 1201.5 378.5 c 128,-1,16
 1097 461 1097 461 967 522 c 0,17,18
 835 587 835 587 817 661 c 0,19,20
 809 696 809 696 809 706 c 0,21,22
 809 905 809 905 1651 1084 c 1,23,24
 1612 1021 1612 1021 1566 960 c 1,25,26
 1165 912 1165 912 866 718 c 1,27,28
 886 680 886 680 1028 608 c 0,29,30
 1202 521 1202 521 1272 461 c 0,31,32
 1397 353 1397 353 1397 215 c 0,33,34
 1397 139 1397 139 1380 76 c 0,35,36
 1349 -41 1349 -41 413 -41 c 0,0,1
EndSplineSet
Substitution2: "'medi' Medial Forms in Arabic lookup 3 subtable" afii52306
Substitution2: "'fina' Terminal Forms in Arabic lookup 2 subtable" afii62964
Substitution2: "'init' Initial Forms in Arabic lookup 1 subtable" afii52305
EndChar

StartChar: afii62964
Encoding: 64399 64399 133
Width: 1884
GlyphClass: 2
Flags: W
AnchorPoint: "Anchor-1" 615 -555 basechar 0
AnchorPoint: "Anchor-0" 645 1110 basechar 0
LayerCount: 2
Fore
SplineSet
40 180 m 0,0,1
 40 232 40 232 77 330 c 0,2,3
 112 424 112 424 145 472 c 1,4,5
 108 275 108 275 108 248 c 0,6,7
 108 162 108 162 296 126 c 0,8,9
 415 103 415 103 557 103 c 0,10,11
 991 103 991 103 1309 157 c 1,12,13
 1286 262 1286 262 1261 288 c 0,14,15
 1158 397 1158 397 1142 410 c 0,16,17
 1066 476 1066 476 994 476 c 0,18,19
 965 476 965 476 942 523 c 0,20,21
 922 564 922 564 922 596 c 0,22,23
 922 830 922 830 1753 1067 c 1,24,25
 1716 1004 1716 1004 1673 943 c 1,26,27
 1316 874 1316 874 988 625 c 1,28,29
 1048 611 1048 611 1102 568 c 2,30,-1
 1632 140 l 1,31,-1
 1913 140 l 1,32,-1
 1913 0 l 1,33,34
 1884 -2 1884 -2 1811 -1 c 2,35,-1
 1686 0 l 2,36,37
 1612 1 1612 1 1477 119 c 0,38,39
 1448 144 1448 144 1300 281 c 1,40,41
 1363 90 1363 90 1363 68 c 0,42,43
 1363 13 1363 13 1075 -18 c 0,44,45
 869 -41 869 -41 724 -38 c 0,46,47
 529 -36 529 -36 415 -24 c 0,48,49
 212 -4 212 -4 176 8 c 0,50,51
 40 53 40 53 40 180 c 0,0,1
EndSplineSet
EndChar

StartChar: afii52305
Encoding: 64400 64400 134
Width: 730
GlyphClass: 2
Flags: W
AnchorPoint: "Anchor-1" 270 -495 basechar 0
AnchorPoint: "Anchor-0" 255 1170 basechar 0
LayerCount: 2
Fore
SplineSet
894 1084 m 1,0,-1
 810 960 l 1,1,2
 673 943 673 943 493 887 c 0,3,4
 109 767 109 767 109 718 c 0,5,6
 109 701 109 701 287 611 c 0,7,8
 472 517 472 517 530 460 c 0,9,10
 631 361 631 361 631 196 c 0,11,12
 631 145 631 145 624 102 c 0,13,14
 614 41 614 41 341 22 c 0,15,16
 235 16 235 16 -36 0 c 1,17,-1
 -36 140 l 1,18,19
 -16 139 -16 139 8 139 c 2,20,-1
 298 145 l 2,21,22
 438 148 438 148 582 190 c 1,23,24
 549 315 549 315 368 427 c 128,-1,25
 187 539 187 539 178 544 c 0,26,27
 52 617 52 617 52 706 c 0,28,29
 52 905 52 905 894 1084 c 1,0,-1
EndSplineSet
EndChar

StartChar: afii52306
Encoding: 64401 64401 135
Width: 958
GlyphClass: 2
Flags: W
AnchorPoint: "Anchor-1" 390 -540 basechar 0
AnchorPoint: "Anchor-0" 300 1185 basechar 0
LayerCount: 2
Fore
SplineSet
383 169 m 0,0,1
 383 239 383 239 340 288 c 0,2,3
 173 476 173 476 72 476 c 0,4,5
 44 476 44 476 20 523 c 0,6,7
 -1 564 -1 564 -1 595 c 0,8,9
 -1 840 -1 840 832 1067 c 1,10,-1
 754 943 l 1,11,12
 400 874 400 874 66 625 c 1,13,14
 167 601 167 601 422 394 c 0,15,16
 502 328 502 328 708 157 c 0,17,18
 738 133 738 133 887 138 c 0,19,20
 956 140 956 140 986 140 c 1,21,-1
 986 0 l 1,22,-1
 731 1 l 2,23,24
 694 1 694 1 554 125 c 0,25,26
 545 133 545 133 380 281 c 1,27,28
 442 92 442 92 442 68 c 0,29,30
 442 0 442 0 290 0 c 2,31,-1
 -22 0 l 1,32,-1
 -22 140 l 1,33,-1
 324 140 l 2,34,35
 383 140 383 140 383 169 c 0,0,1
EndSplineSet
EndChar

StartChar: afii57509
Encoding: 1711 1711 136
Width: 1476
GlyphClass: 2
Flags: W
AnchorPoint: "Anchor-1" 675 -555 basechar 0
AnchorPoint: "Anchor-0" 510 1170 basechar 0
LayerCount: 2
Fore
SplineSet
401 -40 m 0,0,1
 282 -40 282 -40 181 7 c 0,2,3
 54 66 54 66 54 172 c 0,4,5
 54 307 54 307 158 469 c 1,6,7
 156 450 156 450 137 354 c 0,8,9
 122 282 122 282 122 239 c 0,10,11
 122 102 122 102 617 102 c 0,12,13
 1139 102 1139 102 1327 175 c 1,14,15
 1283 323 1283 323 1187 397 c 0,16,17
 1145 430 1145 430 955 523 c 0,18,19
 823 588 823 588 805 662 c 0,20,21
 797 697 797 697 797 707 c 0,22,23
 797 906 797 906 1639 1085 c 1,24,25
 1600 1022 1600 1022 1554 961 c 1,26,27
 1153 913 1153 913 854 719 c 1,28,29
 874 682 874 682 1016 610 c 0,30,31
 1190 522 1190 522 1260 462 c 0,32,33
 1385 354 1385 354 1385 216 c 0,34,35
 1385 140 1385 140 1368 77 c 0,36,37
 1337 -40 1337 -40 401 -40 c 0,0,1
975 964 m 1,38,39
 1014 1024 1014 1024 1064 1089 c 1,40,41
 1326 1194 1326 1194 1606 1270 c 1,42,43
 1570 1211 1570 1211 1517 1146 c 1,44,-1
 1242 1067 l 2,45,46
 1099 1022 1099 1022 975 964 c 1,38,39
EndSplineSet
Substitution2: "'medi' Medial Forms in Arabic lookup 3 subtable" afii62966
Substitution2: "'fina' Terminal Forms in Arabic lookup 2 subtable" afii62967
Substitution2: "'init' Initial Forms in Arabic lookup 1 subtable" afii62965
EndChar

StartChar: afii62967
Encoding: 64403 64403 137
Width: 1889
GlyphClass: 2
Flags: W
AnchorPoint: "Anchor-1" 540 -570 basechar 0
AnchorPoint: "Anchor-0" 570 990 basechar 0
LayerCount: 2
Fore
SplineSet
54 180 m 0,0,1
 54 232 54 232 91 330 c 0,2,3
 126 424 126 424 160 472 c 1,4,5
 122 275 122 275 122 248 c 0,6,7
 122 162 122 162 311 126 c 0,8,9
 430 103 430 103 571 103 c 0,10,11
 1006 103 1006 103 1324 157 c 1,12,13
 1301 262 1301 262 1276 288 c 0,14,15
 1172 397 1172 397 1157 410 c 0,16,17
 1080 476 1080 476 1008 476 c 0,18,19
 979 476 979 476 956 523 c 0,20,21
 936 564 936 564 936 596 c 0,22,23
 936 830 936 830 1768 1067 c 1,24,25
 1730 1004 1730 1004 1687 943 c 1,26,27
 1331 874 1331 874 1002 625 c 1,28,29
 1062 611 1062 611 1116 568 c 2,30,-1
 1646 140 l 1,31,-1
 1922 140 l 1,32,-1
 1922 0 l 1,33,34
 1873 -1 1873 -1 1825 -1 c 2,35,-1
 1700 0 l 2,36,37
 1626 1 1626 1 1492 119 c 0,38,39
 1463 144 1463 144 1314 281 c 1,40,41
 1378 90 1378 90 1378 68 c 0,42,43
 1378 13 1378 13 1090 -18 c 0,44,45
 883 -41 883 -41 738 -38 c 0,46,47
 544 -36 544 -36 430 -24 c 0,48,49
 227 -4 227 -4 191 8 c 0,50,51
 54 53 54 53 54 180 c 0,0,1
1209 955 m 1,52,53
 1247 1016 1247 1016 1295 1083 c 1,54,55
 1554 1195 1554 1195 1832 1279 c 1,56,57
 1797 1219 1797 1219 1746 1152 c 1,58,-1
 1473 1066 l 1,59,60
 1332 1017 1332 1017 1209 955 c 1,52,53
EndSplineSet
EndChar

StartChar: afii62965
Encoding: 64404 64404 138
Width: 742
GlyphClass: 2
Flags: W
AnchorPoint: "Anchor-1" 300 -510 basechar 0
AnchorPoint: "Anchor-0" 225 1350 basechar 0
LayerCount: 2
Fore
SplineSet
894 1084 m 1,0,-1
 810 960 l 1,1,2
 673 943 673 943 493 887 c 0,3,4
 109 767 109 767 109 718 c 0,5,6
 109 701 109 701 287 611 c 0,7,8
 472 517 472 517 530 460 c 0,9,10
 631 361 631 361 631 196 c 0,11,12
 631 145 631 145 624 102 c 0,13,14
 614 41 614 41 341 22 c 0,15,16
 235 16 235 16 -36 0 c 1,17,-1
 -36 140 l 1,18,19
 -16 139 -16 139 8 139 c 2,20,-1
 298 145 l 2,21,22
 438 148 438 148 582 190 c 1,23,24
 544 336 544 336 365.5 437.5 c 128,-1,25
 187 539 187 539 178 544 c 0,26,27
 52 617 52 617 52 706 c 0,28,29
 52 905 52 905 894 1084 c 1,0,-1
230 956 m 1,30,31
 268 1017 268 1017 316 1084 c 1,32,33
 575 1196 575 1196 853 1280 c 1,34,35
 818 1220 818 1220 767 1153 c 1,36,-1
 494 1067 l 1,37,38
 353 1018 353 1018 230 956 c 1,30,31
EndSplineSet
EndChar

StartChar: afii62966
Encoding: 64405 64405 139
Width: 958
GlyphClass: 2
Flags: W
AnchorPoint: "Anchor-1" 405 -570 basechar 0
AnchorPoint: "Anchor-0" 285 1320 basechar 0
LayerCount: 2
Fore
SplineSet
383 169 m 0,0,1
 383 239 383 239 340 288 c 0,2,3
 173 476 173 476 72 476 c 0,4,5
 44 476 44 476 20 523 c 0,6,7
 -1 564 -1 564 -1 595 c 0,8,9
 -1 840 -1 840 832 1067 c 1,10,-1
 754 943 l 1,11,12
 400 874 400 874 66 625 c 1,13,14
 167 601 167 601 422 394 c 0,15,16
 502 328 502 328 708 157 c 0,17,18
 738 133 738 133 887 138 c 0,19,20
 956 140 956 140 986 140 c 1,21,-1
 986 0 l 1,22,-1
 731 1 l 2,23,24
 694 1 694 1 554 125 c 0,25,26
 545 133 545 133 380 281 c 1,27,28
 442 92 442 92 442 68 c 0,29,30
 442 0 442 0 290 0 c 2,31,-1
 -22 0 l 1,32,-1
 -22 140 l 1,33,-1
 324 140 l 2,34,35
 383 140 383 140 383 169 c 0,0,1
217 920 m 1,36,37
 244 964 244 964 300 1051 c 1,38,39
 534 1164 534 1164 828 1266 c 1,40,41
 778 1165 778 1165 749 1137 c 1,42,-1
 478 1041 l 2,43,44
 347 994 347 994 217 920 c 1,36,37
EndSplineSet
EndChar

StartChar: afii57555
Encoding: 1740 1740 140
Width: 1232
GlyphClass: 2
Flags: W
AnchorPoint: "Anchor-1" 495 -705 basechar 0
AnchorPoint: "Anchor-0" 585 960 basechar 0
LayerCount: 2
Fore
SplineSet
154 130 m 0,0,1
 154 8 154 8 264 -53 c 0,2,3
 353 -102 353 -102 485 -102 c 0,4,5
 773 -102 773 -102 997 44 c 0,6,7
 1016 56 1016 56 1021 68 c 1,8,9
 1020 83 1020 83 917 101 c 0,10,11
 780 124 780 124 730 144 c 0,12,13
 616 188 616 188 616 274 c 0,14,15
 616 396 616 396 780 541 c 128,-1,16
 944 686 944 686 1068 686 c 0,17,18
 1117 686 1117 686 1154 623 c 0,19,20
 1187 566 1187 566 1187 512 c 0,21,22
 1187 463 1187 463 1154 463 c 0,23,24
 1142 463 1142 463 1095.5 510.5 c 128,-1,25
 1049 558 1049 558 1019 558 c 0,26,27
 962 558 962 558 836 481 c 0,28,29
 704 401 704 401 704 352 c 0,30,31
 704 254 704 254 1061 212 c 0,32,33
 1112 206 1112 206 1112 157 c 0,34,35
 1112 72 1112 72 996 -35 c 0,36,37
 767 -246 767 -246 470 -246 c 2,38,-1
 430 -246 l 2,39,40
 104 -246 104 -246 104 112 c 0,41,42
 104 317 104 317 222 467 c 0,43,44
 257 511 257 511 288 544 c 1,45,46
 154 278 154 278 154 130 c 0,0,1
EndSplineSet
Substitution2: "'medi' Medial Forms in Arabic lookup 3 subtable" afii62832
Substitution2: "'fina' Terminal Forms in Arabic lookup 2 subtable" afii52364
Substitution2: "'init' Initial Forms in Arabic lookup 1 subtable" uniFBFE
EndChar

StartChar: afii52364
Encoding: 64509 64509 141
Width: 1275
GlyphClass: 2
Flags: W
AnchorPoint: "Anchor-1" 570 -1200 basechar 0
AnchorPoint: "Anchor-0" 660 525 basechar 0
LayerCount: 2
Fore
SplineSet
865 -109 m 1,0,1
 1026 -179 1026 -179 1190 -264 c 1,2,3
 1201 -338 1201 -338 1201 -360 c 0,4,5
 1201 -425 1201 -425 1115 -473 c 0,6,7
 926 -577 926 -577 848 -607 c 0,8,9
 711 -659 711 -659 554 -659 c 0,10,11
 384 -659 384 -659 252 -578 c 0,12,13
 97 -484 97 -484 97 -325 c 0,14,15
 97 -242 97 -242 145 -155 c 0,16,17
 170 -112 170 -112 233 1 c 0,18,19
 252 36 252 36 265 53 c 1,20,21
 185 -215 185 -215 185 -252 c 0,22,23
 185 -398 185 -398 325 -467 c 0,24,25
 432 -520 432 -520 595 -520 c 0,26,27
 823 -520 823 -520 1093 -414 c 0,28,29
 1117 -404 1117 -404 1117 -394 c 0,30,31
 1117 -379 1117 -379 957.5 -304.5 c 128,-1,32
 798 -230 798 -230 798 -228 c 0,33,34
 798 138 798 138 1314 140 c 1,35,-1
 1314 0 l 1,36,37
 884 0 884 0 865 -109 c 1,0,1
EndSplineSet
EndChar

StartChar: afii62945
Encoding: 65557 -1 147
Width: 1318
GlyphClass: 3
Flags: W
LayerCount: 2
Fore
SplineSet
1235 294 m 0,0,1
 1235 206 1235 206 1197 127 c 0,2,3
 1151 28 1151 28 1073 28 c 0,4,5
 971 28 971 28 888 225 c 1,6,7
 824 13 824 13 647 13 c 0,8,9
 501 13 501 13 461 190 c 1,10,11
 353 73 353 73 293 73 c 0,12,13
 235 73 235 73 171 91 c 0,14,15
 86 115 86 115 86 158 c 0,16,17
 86 187 86 187 137 274 c 0,18,19
 240 454 240 454 404 514 c 1,20,21
 402 542 402 542 402 564 c 0,22,23
 402 596 402 596 447 697 c 1,24,-1
 500 416 l 2,25,26
 522 301 522 301 541 264 c 0,27,28
 579 188 579 188 667 188 c 0,29,30
 773 188 773 188 859 315 c 1,31,32
 840 380 840 380 791 552 c 0,33,34
 755 680 755 680 755 793 c 0,35,36
 755 847 755 847 817 925 c 1,37,38
 860 682 860 682 873 619 c 0,39,40
 918 412 918 412 965 324 c 0,41,42
 1021 217 1021 217 1119 217 c 0,43,44
 1176 217 1176 217 1176 271 c 0,45,46
 1176 355 1176 355 1114 536 c 128,-1,47
 1052 717 1052 717 1052 800 c 0,48,49
 1052 838 1052 838 1094 932 c 1,50,-1
 1178 620 l 2,51,52
 1235 410 1235 410 1235 294 c 0,0,1
447 264 m 1,53,-1
 416 439 l 1,54,55
 331 399 331 399 300 374 c 0,56,57
 261 343 261 343 219 268 c 1,58,59
 305 240 305 240 360 240 c 0,60,61
 392 240 392 240 447 264 c 1,53,-1
EndSplineSet
EndChar

StartChar: afii64184
Encoding: 65010 65010 148
Width: 1253
GlyphClass: 3
Flags: W
AnchorPoint: "Anchor-3" 1170 -315 baselig 0
AnchorPoint: "Anchor-2" 960 975 baselig 0
AnchorPoint: "Anchor-3" 765 -390 baselig 1
AnchorPoint: "Anchor-2" 705 960 baselig 1
AnchorPoint: "Anchor-3" 285 -405 baselig 2
AnchorPoint: "Anchor-2" 150 705 baselig 2
LayerCount: 2
Fore
SplineSet
720 1277 m 1,0,-1
 707 1248 l 1,1,2
 666 1332 666 1332 640 1365 c 0,3,4
 605 1410 605 1410 538 1451 c 1,5,-1
 499 1570 l 1,6,7
 587 1554 587 1554 647 1457 c 0,8,9
 681 1399 681 1399 720 1277 c 1,0,-1
885 1132 m 0,10,11
 885 1085 885 1085 861 1045 c 0,12,13
 833 996 833 996 790 996 c 0,14,15
 771 996 771 996 727 1009 c 1,16,17
 679 926 679 926 629 926 c 0,18,19
 553 926 553 926 553 1022 c 0,20,21
 553 1060 553 1060 568 1113 c 1,22,-1
 582 1127 l 1,23,24
 582 1033 582 1033 633 1033 c 0,25,26
 701 1033 701 1033 714 1184 c 1,27,-1
 729 1189 l 1,28,29
 746 1102 746 1102 786 1102 c 0,30,31
 851 1102 851 1102 851 1242 c 1,32,-1
 867 1247 l 1,33,34
 885 1181 885 1181 885 1132 c 0,10,11
1222 266 m 0,35,36
 1222 178 1222 178 1184 99 c 0,37,38
 1138 0 1138 0 1060 0 c 0,39,40
 958 0 958 0 875 197 c 1,41,42
 811 -15 811 -15 634 -15 c 0,43,44
 488 -15 488 -15 448 162 c 1,45,46
 340 45 340 45 280 45 c 0,47,48
 222 45 222 45 158 63 c 0,49,50
 73 87 73 87 73 130 c 0,51,52
 73 159 73 159 124 246 c 0,53,54
 227 426 227 426 391 486 c 1,55,56
 389 514 389 514 389 536 c 0,57,58
 389 568 389 568 434 669 c 1,59,-1
 487 388 l 2,60,61
 509 273 509 273 528 236 c 0,62,63
 566 160 566 160 654 160 c 0,64,65
 760 160 760 160 846 287 c 1,66,67
 827 352 827 352 778 524 c 0,68,69
 742 652 742 652 742 765 c 0,70,71
 742 819 742 819 804 897 c 1,72,73
 847 654 847 654 860 591 c 0,74,75
 905 384 905 384 952 296 c 0,76,77
 1008 189 1008 189 1106 189 c 0,78,79
 1163 189 1163 189 1163 243 c 0,80,81
 1163 327 1163 327 1101 508 c 128,-1,82
 1039 689 1039 689 1039 772 c 0,83,84
 1039 810 1039 810 1081 904 c 1,85,-1
 1165 592 l 2,86,87
 1222 382 1222 382 1222 266 c 0,35,36
434 236 m 1,88,-1
 403 411 l 1,89,90
 318 371 318 371 287 346 c 0,91,92
 248 315 248 315 206 240 c 1,93,94
 292 212 292 212 347 212 c 0,95,96
 379 212 379 212 434 236 c 1,88,-1
EndSplineSet
Ligature2: "'rlig' Required Ligatures in Arabic lookup 5 subtable" afii62817 afii62818 uniFC63 afii62828
Ligature2: "'rlig' Required Ligatures in Arabic lookup 5 subtable" afii62817 afii62818 afii57457 uni0670 afii62828
EndChar

StartChar: afii57415.001
Encoding: 1575 1575 162
Width: 339
GlyphClass: 2
Flags: W
AnchorPoint: "Anchor-1" 270 -375 basechar 0
AnchorPoint: "Anchor-0" 165 1335 basechar 0
LayerCount: 2
Fore
SplineSet
246 1241 m 1,0,1
 233 1196 233 1196 233 1146 c 0,2,3
 233 1050 233 1050 258 900 c 0,4,5
 289 712 289 712 295 654 c 0,6,7
 317 428 317 428 317 145 c 1,8,9
 300 113 300 113 210 -24 c 1,10,11
 230 32 230 32 230 137 c 0,12,13
 230 200 230 200 209 386 c 0,14,15
 146 922 146 922 146 1091 c 1,16,17
 194 1169 194 1169 246 1241 c 1,0,1
EndSplineSet
Substitution2: "'fina' Terminal Forms in Arabic lookup 2 subtable" afii62760
PairPos2: "'kern' Horizontal Kerning in Arabic lookup 0 subtable" afii57410 dx=0 dy=0 dh=0 dv=0 dx=0 dy=0 dh=70 dv=0
PairPos2: "'kern' Horizontal Kerning in Arabic lookup 0 subtable" afii62965 dx=0 dy=0 dh=0 dv=0 dx=0 dy=0 dh=70 dv=0
PairPos2: "'kern' Horizontal Kerning in Arabic lookup 0 subtable" afii57509 dx=0 dy=0 dh=0 dv=0 dx=0 dy=0 dh=70 dv=0
PairPos2: "'kern' Horizontal Kerning in Arabic lookup 0 subtable" afii52305 dx=0 dy=0 dh=0 dv=0 dx=0 dy=0 dh=70 dv=0
PairPos2: "'kern' Horizontal Kerning in Arabic lookup 0 subtable" afii57567 dx=0 dy=0 dh=0 dv=0 dx=0 dy=0 dh=70 dv=0
EndChar

StartChar: afii62760.001
Encoding: 65558 -1 163
Width: 540
GlyphClass: 2
Flags: W
LayerCount: 2
Fore
SplineSet
113 1122 m 1,0,1
 123 1144 123 1144 191 1241 c 1,2,3
 234 1123 234 1123 241 1001 c 0,4,5
 244 988 244 988 254.5 809 c 128,-1,6
 265 630 265 630 271 450 c 0,7,8
 280 264 280 264 333 203 c 0,9,10
 391 137 391 137 573 140 c 1,11,-1
 573 0 l 1,12,13
 381 0 381 0 305 60 c 0,14,15
 223 126 223 126 203 311 c 0,16,17
 196 364 196 364 190.5 482 c 128,-1,18
 185 600 185 600 173 821 c 0,19,20
 166 1008 166 1008 113 1122 c 1,0,1
EndSplineSet
EndChar

StartChar: afii57421
Encoding: 1581 1581 182
Width: 1028
GlyphClass: 2
Flags: W
AnchorPoint: "Anchor-1" 495 -1200 basechar 0
AnchorPoint: "Anchor-0" 525 810 basechar 0
LayerCount: 2
Fore
SplineSet
383 457 m 0,0,1
 430 457 430 457 521 441.5 c 128,-1,2
 612 426 612 426 659 426 c 0,3,4
 796 426 796 426 976 480 c 1,5,6
 929 401 929 401 857 305 c 1,7,-1
 659 289 l 2,8,9
 477 275 477 275 339 139 c 0,10,11
 196 0 196 0 196 -180 c 0,12,13
 196 -371 196 -371 384 -472 c 0,14,15
 536 -552 536 -552 744 -552 c 256,16,17
 952 -552 952 -552 1160 -518 c 1,18,19
 1030 -631 1030 -631 953 -665 c 0,20,21
 862 -704 862 -704 707 -704 c 0,22,23
 492 -704 492 -704 345 -628 c 0,24,25
 162 -533 162 -533 142 -340 c 0,26,27
 135 -271 135 -271 135 -210 c 0,28,29
 135 -67 135 -67 203 56 c 0,30,31
 219 84 219 84 366 292 c 1,32,33
 366 323 366 323 321 342 c 0,34,35
 286 356 286 356 249 356 c 0,36,37
 209 356 209 356 100 331 c 1,38,39
 104 338 104 338 183 390 c 0,40,41
 286 457 286 457 383 457 c 0,0,1
EndSplineSet
Substitution2: "'medi' Medial Forms in Arabic lookup 3 subtable" afii62775
Substitution2: "'fina' Terminal Forms in Arabic lookup 2 subtable" afii62776
Substitution2: "'init' Initial Forms in Arabic lookup 1 subtable" afii62774
EndChar

StartChar: afii62776
Encoding: 65186 65186 183
Width: 1124
GlyphClass: 2
Flags: W
AnchorPoint: "Anchor-1" 510 -1215 basechar 0
AnchorPoint: "Anchor-0" 555 885 basechar 0
LayerCount: 2
Fore
SplineSet
361 451 m 0,0,1
 407 451 407 451 500 437.5 c 128,-1,2
 593 424 593 424 640 424 c 0,3,4
 797 424 797 424 959 480 c 1,5,-1
 848 308 l 1,6,7
 803 290 803 290 741 292 c 1,8,9
 744 170 744 170 797 152 c 0,10,11
 835 140 835 140 1172 140 c 1,12,-1
 1172 0 l 1,13,14
 1149 0 1149 0 1103.5 -1 c 128,-1,15
 1058 -2 1058 -2 1035 -2 c 0,16,17
 817 -2 817 -2 761 36 c 0,18,19
 692 85 692 85 674 288 c 1,20,21
 524 288 524 288 403 212 c 0,22,23
 274 133 274 133 223 -2 c 0,24,25
 172 -130 172 -130 175 -198 c 0,26,27
 175 -383 175 -383 370 -480 c 0,28,29
 526 -558 526 -558 729 -558 c 0,30,31
 963 -558 963 -558 1131 -530 c 1,32,33
 995 -647 995 -647 917 -677 c 0,34,35
 833 -709 833 -709 663 -709 c 0,36,37
 463 -709 463 -709 317 -624 c 0,38,39
 147 -524 147 -524 123 -340 c 0,40,41
 113 -265 113 -265 113 -206 c 0,42,43
 117 -74 117 -74 188 60 c 128,-1,44
 259 194 259 194 350 288 c 1,45,46
 345 318 345 318 305 337 c 0,47,48
 272 354 272 354 237 354 c 0,49,50
 187 354 187 354 81 324 c 1,51,52
 260 451 260 451 361 451 c 0,0,1
EndSplineSet
EndChar

StartChar: afii62774
Encoding: 65187 65187 184
Width: 1096
GlyphClass: 2
Flags: W
AnchorPoint: "Anchor-1" 450 -525 basechar 0
AnchorPoint: "Anchor-0" 525 780 basechar 0
LayerCount: 2
Fore
SplineSet
544 231 m 1,0,1
 491 260 491 260 402 308 c 128,-1,2
 313 356 313 356 256 356 c 0,3,4
 221 356 221 356 169.5 322 c 128,-1,5
 118 288 118 288 109 288 c 1,6,-1
 102 296 l 1,7,8
 102 332 102 332 156.5 397.5 c 128,-1,9
 211 463 211 463 246 467 c 0,10,11
 289 472 289 472 296 472 c 0,12,13
 373 472 373 472 515 398 c 0,14,15
 743 281 743 281 772 270 c 0,16,17
 884 228 884 228 1067 228 c 1,18,19
 1030 168 1030 168 986 109 c 1,20,-1
 923 109 l 2,21,22
 899 109 899 109 851.5 117.5 c 128,-1,23
 804 126 804 126 780 126 c 0,24,25
 724 126 724 126 635.5 106.5 c 128,-1,26
 547 87 547 87 383 46.5 c 128,-1,27
 219 6 219 6 -41 0 c 1,28,-1
 -41 140 l 1,29,30
 196 145 196 145 263 157 c 0,31,32
 398 174 398 174 544 231 c 1,0,1
EndSplineSet
EndChar

StartChar: afii62775
Encoding: 65188 65188 185
Width: 1010
GlyphClass: 2
Flags: W
AnchorPoint: "Anchor-1" 360 -555 basechar 0
AnchorPoint: "Anchor-0" 465 885 basechar 0
LayerCount: 2
Fore
SplineSet
427 295 m 1,0,1
 287 388 287 388 202 388 c 0,2,3
 166 388 166 388 24 340 c 1,4,-1
 32 366 l 1,5,6
 168 506 168 506 239 506 c 0,7,8
 295 506 295 506 475.5 432 c 128,-1,9
 656 358 656 358 757 358 c 0,10,11
 811 358 811 358 872 368 c 1,12,13
 844 305 844 305 798 245 c 1,14,15
 767 236 767 236 683 236 c 1,16,-1
 674 235 l 1,17,-1
 672 221 l 1,18,19
 672 143 672 143 1044 140 c 1,20,-1
 1044 0 l 1,21,-1
 1026 0 l 2,22,23
 582 0 582 0 583 207 c 1,24,25
 491 206 491 206 427 164 c 1,26,27
 248 11 248 11 -26 0 c 1,28,-1
 -26 140 l 1,29,30
 293 176 293 176 427 295 c 1,0,1
EndSplineSet
EndChar

StartChar: afii57423
Encoding: 1583 1583 190
Width: 721
GlyphClass: 2
Flags: W
AnchorPoint: "Anchor-1" 300 -465 basechar 0
AnchorPoint: "Anchor-0" 405 945 basechar 0
LayerCount: 2
Fore
SplineSet
493 698 m 0,0,1
 523 698 523 698 538 679 c 0,2,3
 606 586 606 586 659 433 c 0,4,5
 691 340 691 340 691 252 c 0,6,7
 691 173 691 173 666 148 c 0,8,9
 598 80 598 80 469 38 c 0,10,11
 353 0 353 0 246 0 c 0,12,13
 115 0 115 0 115 124 c 0,14,15
 115 198 115 198 163 241 c 1,16,17
 175 202 175 202 188 163 c 1,18,19
 208 122 208 122 252 122 c 0,20,21
 373 122 373 122 522 191 c 0,22,23
 649 250 649 250 649 268 c 0,24,25
 649 308 649 308 586 401 c 0,26,27
 528 485 528 485 499 518 c 0,28,29
 479 539 479 539 439 539 c 0,30,31
 427 539 427 539 358 527 c 0,32,33
 337 523 337 523 337 544 c 0,34,35
 337 576 337 576 392 661 c 0,36,37
 401 673 401 673 439 686 c 0,38,39
 474 698 474 698 493 698 c 0,0,1
EndSplineSet
Substitution2: "'fina' Terminal Forms in Arabic lookup 2 subtable" afii62780
PairPos2: "'kern' Horizontal Kerning in Arabic lookup 0 subtable" afii57410 dx=0 dy=0 dh=0 dv=0 dx=0 dy=0 dh=-80 dv=0
PairPos2: "'kern' Horizontal Kerning in Arabic lookup 0 subtable" afii57434 dx=0 dy=0 dh=0 dv=0 dx=0 dy=0 dh=-100 dv=0
PairPos2: "'kern' Horizontal Kerning in Arabic lookup 0 subtable" afii57433 dx=0 dy=0 dh=0 dv=0 dx=0 dy=0 dh=-100 dv=0
PairPos2: "'kern' Horizontal Kerning in Arabic lookup 0 subtable" afii62965 dx=0 dy=0 dh=0 dv=0 dx=0 dy=0 dh=-80 dv=0
PairPos2: "'kern' Horizontal Kerning in Arabic lookup 0 subtable" afii57509 dx=0 dy=0 dh=0 dv=0 dx=0 dy=0 dh=-70 dv=0
PairPos2: "'kern' Horizontal Kerning in Arabic lookup 0 subtable" afii52305 dx=0 dy=0 dh=0 dv=0 dx=0 dy=0 dh=-80 dv=0
PairPos2: "'kern' Horizontal Kerning in Arabic lookup 0 subtable" afii57567 dx=0 dy=0 dh=0 dv=0 dx=0 dy=0 dh=-70 dv=0
EndChar

StartChar: afii62780
Encoding: 65194 65194 191
Width: 1129
GlyphClass: 2
Flags: W
AnchorPoint: "Anchor-1" 450 -480 basechar 0
AnchorPoint: "Anchor-0" 585 930 basechar 0
LayerCount: 2
Fore
SplineSet
812 202 m 1,0,1
 684 -5 684 -5 427 -5 c 0,2,3
 326 -5 326 -5 250 34 c 0,4,5
 154 82 154 82 154 173 c 0,6,7
 154 241 154 241 206 348 c 1,8,9
 214 311 214 311 214 235 c 0,10,11
 214 184 214 184 296 157 c 0,12,13
 356 138 356 138 421 138 c 0,14,15
 623 138 623 138 787 262 c 1,16,17
 712 499 712 499 713 608 c 1,18,19
 734 650 734 650 793 730 c 1,20,21
 812 506 812 506 880 358 c 0,22,23
 978 140 978 140 1159 140 c 1,24,-1
 1159 0 l 1,25,-1
 1112 0 l 2,26,27
 940 0 940 0 812 202 c 1,0,1
EndSplineSet
PairPos2: "'kern' Horizontal Kerning in Arabic lookup 0 subtable" afii57410 dx=0 dy=0 dh=0 dv=0 dx=0 dy=0 dh=-80 dv=0
PairPos2: "'kern' Horizontal Kerning in Arabic lookup 0 subtable" afii57434 dx=0 dy=0 dh=0 dv=0 dx=0 dy=0 dh=-100 dv=0
PairPos2: "'kern' Horizontal Kerning in Arabic lookup 0 subtable" afii57433 dx=0 dy=0 dh=0 dv=0 dx=0 dy=0 dh=-100 dv=0
PairPos2: "'kern' Horizontal Kerning in Arabic lookup 0 subtable" afii62965 dx=0 dy=0 dh=0 dv=0 dx=0 dy=0 dh=-80 dv=0
PairPos2: "'kern' Horizontal Kerning in Arabic lookup 0 subtable" afii57509 dx=0 dy=0 dh=0 dv=0 dx=0 dy=0 dh=-70 dv=0
PairPos2: "'kern' Horizontal Kerning in Arabic lookup 0 subtable" afii52305 dx=0 dy=0 dh=0 dv=0 dx=0 dy=0 dh=-80 dv=0
PairPos2: "'kern' Horizontal Kerning in Arabic lookup 0 subtable" afii57567 dx=0 dy=0 dh=0 dv=0 dx=0 dy=0 dh=-70 dv=0
EndChar

StartChar: afii57425
Encoding: 1585 1585 194
Width: 690
GlyphClass: 2
Flags: W
AnchorPoint: "Anchor-1" 375 -825 basechar 0
AnchorPoint: "Anchor-0" 540 855 basechar 0
LayerCount: 2
Fore
SplineSet
526 556 m 1,0,1
 659 347 659 347 659 119 c 0,2,3
 659 -8 659 -8 495.5 -178 c 128,-1,4
 332 -348 332 -348 205 -348 c 0,5,6
 103 -348 103 -348 -37 -164 c 1,7,-1
 -28 -158 l 1,8,9
 1 -162 1 -162 80 -196 c 0,10,11
 152 -226 152 -226 183 -226 c 0,12,13
 256 -226 256 -226 425 -68 c 0,14,15
 601 95 601 95 601 185 c 0,16,17
 601 266 601 266 430 407 c 1,18,-1
 428 413 l 1,19,20
 429 468 429 468 526 556 c 1,0,1
EndSplineSet
Substitution2: "'fina' Terminal Forms in Arabic lookup 2 subtable" afii62782
EndChar

StartChar: afii62782
Encoding: 65198 65198 195
Width: 859
GlyphClass: 2
Flags: W
AnchorPoint: "Anchor-1" 405 -810 basechar 0
AnchorPoint: "Anchor-0" 435 645 basechar 0
LayerCount: 2
Fore
SplineSet
890 140 m 1,0,-1
 890 0 l 1,1,-1
 675 -2 l 1,2,3
 640 -142 640 -142 508 -258 c 0,4,5
 370 -380 370 -380 232 -380 c 0,6,7
 75 -380 75 -380 -21 -226 c 0,8,9
 -46 -185 -46 -185 -66 -140 c 1,10,11
 -20 -154 -20 -154 62 -204 c 0,12,13
 118 -239 118 -239 225 -239 c 0,14,15
 457 -239 457 -239 612 22 c 1,16,-1
 498 95 l 1,17,18
 468 127 468 127 470 212 c 2,19,-1
 471 247 l 1,20,21
 540 202 540 202 614 157 c 0,22,23
 642 140 642 140 890 140 c 1,0,-1
EndSplineSet
PairPos2: "'kern' Horizontal Kerning in Arabic lookup 0 subtable" uni0675 dx=0 dy=0 dh=0 dv=0 dx=0 dy=0 dh=-150 dv=0
PairPos2: "'kern' Horizontal Kerning in Arabic lookup 0 subtable" uni0672 dx=0 dy=0 dh=0 dv=0 dx=0 dy=0 dh=-150 dv=0
PairPos2: "'kern' Horizontal Kerning in Arabic lookup 0 subtable" afii62840 dx=0 dy=0 dh=0 dv=0 dx=0 dy=0 dh=-190 dv=0
PairPos2: "'kern' Horizontal Kerning in Arabic lookup 0 subtable" afii62838 dx=0 dy=0 dh=0 dv=0 dx=0 dy=0 dh=-190 dv=0
PairPos2: "'kern' Horizontal Kerning in Arabic lookup 0 subtable" afii62836 dx=0 dy=0 dh=0 dv=0 dx=0 dy=0 dh=-190 dv=0
PairPos2: "'kern' Horizontal Kerning in Arabic lookup 0 subtable" afii62834 dx=0 dy=0 dh=0 dv=0 dx=0 dy=0 dh=-190 dv=0
PairPos2: "'kern' Horizontal Kerning in Arabic lookup 0 subtable" afii62831 dx=0 dy=0 dh=0 dv=0 dx=0 dy=0 dh=100 dv=0
PairPos2: "'kern' Horizontal Kerning in Arabic lookup 0 subtable" afii57447 dx=0 dy=0 dh=0 dv=0 dx=0 dy=0 dh=-100 dv=0
PairPos2: "'kern' Horizontal Kerning in Arabic lookup 0 subtable" afii62817 dx=0 dy=0 dh=0 dv=0 dx=0 dy=0 dh=-100 dv=0
PairPos2: "'kern' Horizontal Kerning in Arabic lookup 0 subtable" afii57444 dx=0 dy=0 dh=0 dv=0 dx=0 dy=0 dh=-50 dv=0
PairPos2: "'kern' Horizontal Kerning in Arabic lookup 0 subtable" afii57410 dx=0 dy=0 dh=0 dv=0 dx=0 dy=0 dh=-150 dv=0
PairPos2: "'kern' Horizontal Kerning in Arabic lookup 0 subtable" afii57443 dx=0 dy=0 dh=0 dv=0 dx=0 dy=0 dh=-100 dv=0
PairPos2: "'kern' Horizontal Kerning in Arabic lookup 0 subtable" afii57417 dx=0 dy=0 dh=0 dv=0 dx=0 dy=0 dh=-100 dv=0
PairPos2: "'kern' Horizontal Kerning in Arabic lookup 0 subtable" afii62761 dx=0 dy=0 dh=0 dv=0 dx=0 dy=0 dh=100 dv=0
PairPos2: "'kern' Horizontal Kerning in Arabic lookup 0 subtable" afii57413 dx=0 dy=0 dh=0 dv=0 dx=0 dy=0 dh=150 dv=0
PairPos2: "'kern' Horizontal Kerning in Arabic lookup 0 subtable" afii57411 dx=0 dy=0 dh=0 dv=0 dx=0 dy=0 dh=-150 dv=0
PairPos2: "'kern' Horizontal Kerning in Arabic lookup 0 subtable" afii62965 dx=0 dy=0 dh=0 dv=0 dx=0 dy=0 dh=-150 dv=0
PairPos2: "'kern' Horizontal Kerning in Arabic lookup 0 subtable" afii57509 dx=0 dy=0 dh=0 dv=0 dx=0 dy=0 dh=-150 dv=0
PairPos2: "'kern' Horizontal Kerning in Arabic lookup 0 subtable" afii52305 dx=0 dy=0 dh=0 dv=0 dx=0 dy=0 dh=-150 dv=0
PairPos2: "'kern' Horizontal Kerning in Arabic lookup 0 subtable" afii57567 dx=0 dy=0 dh=0 dv=0 dx=0 dy=0 dh=-150 dv=0
PairPos2: "'kern' Horizontal Kerning in Arabic lookup 0 subtable" afii62956 dx=0 dy=0 dh=0 dv=0 dx=0 dy=0 dh=100 dv=0
EndChar

StartChar: afii57427
Encoding: 1587 1587 198
Width: 1716
GlyphClass: 2
Flags: W
AnchorPoint: "Anchor-1" 1095 -735 basechar 0
AnchorPoint: "Anchor-0" 1125 795 basechar 0
LayerCount: 2
Fore
SplineSet
1595 208 m 0,0,1
 1599 216 1599 216 1523 335 c 1,2,-1
 1603 454 l 1,3,4
 1685 334 1685 334 1685 223 c 0,5,6
 1685 131 1685 131 1629 67 c 0,7,8
 1570 0 1570 0 1479 0 c 0,9,10
 1436 0 1436 0 1370 47 c 0,11,12
 1298 96 1298 96 1305 136 c 1,13,14
 1214 -2 1214 -2 1103 -2 c 0,15,16
 1083 -2 1083 -2 1055 11 c 0,17,18
 1019 28 1019 28 1011 31 c 1,19,20
 992 -89 992 -89 965 -222 c 1,21,22
 922 -313 922 -313 773 -361 c 0,23,24
 655 -400 655 -400 529 -400 c 0,25,26
 363 -400 363 -400 244 -323 c 0,27,28
 105 -233 105 -233 105 -77 c 2,29,-1
 105 -40 l 2,30,31
 105 -11 105 -11 149 97 c 0,32,33
 190 198 190 198 206 220 c 1,34,35
 173 71 173 71 173 2 c 0,36,37
 173 -133 173 -133 314 -202 c 0,38,39
 424 -256 424 -256 574 -256 c 0,40,41
 681 -256 681 -256 788 -226 c 0,42,43
 937 -184 937 -184 937 -107 c 2,44,-1
 937 -54 l 2,45,46
 937 41 937 41 919 94 c 0,47,48
 913 113 913 113 854 235 c 1,49,50
 878 283 878 283 932 359 c 1,51,52
 1011 136 1011 136 1163 136 c 0,53,54
 1257 136 1257 136 1297 211 c 0,55,56
 1313 244 1313 244 1341 373 c 1,57,58
 1407 132 1407 132 1514 132 c 0,59,60
 1553 132 1553 132 1570 152 c 0,61,62
 1577 162 1577 162 1595 208 c 0,0,1
EndSplineSet
Substitution2: "'medi' Medial Forms in Arabic lookup 3 subtable" afii62785
Substitution2: "'fina' Terminal Forms in Arabic lookup 2 subtable" afii62786
Substitution2: "'init' Initial Forms in Arabic lookup 1 subtable" afii62784
EndChar

StartChar: afii62786
Encoding: 65202 65202 199
Width: 1859
GlyphClass: 2
Flags: W
AnchorPoint: "Anchor-1" 945 -750 basechar 0
AnchorPoint: "Anchor-0" 1245 885 basechar 0
LayerCount: 2
Fore
SplineSet
1028 29 m 1,0,1
 1009 -91 1009 -91 982 -224 c 1,2,3
 939 -316 939 -316 790 -364 c 0,4,5
 671 -402 671 -402 545 -402 c 0,6,7
 380 -402 380 -402 261 -325 c 0,8,9
 122 -235 122 -235 122 -79 c 2,10,-1
 122 -42 l 2,11,12
 122 -13 122 -13 166 95 c 0,13,14
 207 196 207 196 223 217 c 1,15,16
 190 68 190 68 190 0 c 0,17,18
 190 -136 190 -136 331 -204 c 0,19,20
 441 -258 441 -258 591 -258 c 0,21,22
 698 -258 698 -258 805 -228 c 0,23,24
 953 -186 953 -186 953 -109 c 2,25,-1
 953 -56 l 2,26,27
 953 38 953 38 935 91 c 0,28,29
 929 110 929 110 871 233 c 1,30,31
 895 281 895 281 949 356 c 1,32,33
 1057 130 1057 130 1189 130 c 0,34,35
 1315 130 1315 130 1353 371 c 1,36,37
 1391 258 1391 258 1408 224 c 0,38,39
 1456 131 1456 131 1520 131 c 0,40,41
 1603 131 1603 131 1654 371 c 1,42,43
 1689 245 1689 245 1712 211 c 0,44,45
 1754 149 1754 149 1893 140 c 1,46,-1
 1893 0 l 1,47,-1
 1808 0 l 2,48,49
 1744 0 1744 0 1688 36 c 1,50,51
 1630 80 1630 80 1617 133 c 1,52,53
 1606 86 1606 86 1573 46 c 0,54,55
 1532 -3 1532 -3 1489 -3 c 0,56,57
 1421 -6 1421 -6 1381 29 c 128,-1,58
 1341 64 1341 64 1317 133 c 1,59,60
 1251 -6 1251 -6 1144 -6 c 0,61,62
 1118 -8 1118 -8 1091 -0.5 c 128,-1,63
 1064 7 1064 7 1028 29 c 1,0,1
EndSplineSet
EndChar

StartChar: afii62784
Encoding: 65203 65203 200
Width: 1040
GlyphClass: 2
Flags: W
AnchorPoint: "Anchor-1" 540 -585 basechar 0
AnchorPoint: "Anchor-0" 540 810 basechar 0
LayerCount: 2
Fore
SplineSet
-24 0 m 1,0,-1
 -24 140 l 1,1,2
 124 140 124 140 170 182 c 0,3,4
 214 221 214 221 240 371 c 1,5,6
 288 120 288 120 461 120 c 0,7,8
 561 123 561 123 616 204 c 0,9,10
 636 237 636 237 672 371 c 1,11,12
 709 258 709 258 727 223 c 0,13,14
 776 130 776 130 841 130 c 0,15,16
 899 130 899 130 924 203 c 1,17,18
 924 220 924 220 848 325 c 1,19,-1
 934 451 l 1,20,21
 1015 332 1015 332 1015 223 c 0,22,23
 1015 75 1015 75 902 19 c 0,24,25
 856 -2 856 -2 810 -2 c 0,26,27
 758 -5 758 -5 708.5 23 c 128,-1,28
 659 51 659 51 635 133 c 1,29,30
 546 -9 546 -9 422 -11 c 0,31,32
 370 -15 370 -15 302 15.5 c 128,-1,33
 234 46 234 46 204 133 c 1,34,35
 149 -1 149 -1 -18 -1 c 1,36,-1
 -24 0 l 1,0,-1
EndSplineSet
EndChar

StartChar: afii62785
Encoding: 65204 65204 201
Width: 1174
GlyphClass: 2
Flags: W
AnchorPoint: "Anchor-1" 570 -690 basechar 0
AnchorPoint: "Anchor-0" 615 795 basechar 0
LayerCount: 2
Fore
SplineSet
1127 0 m 2,0,1
 1065 0 1065 0 1014.5 25 c 128,-1,2
 964 50 964 50 936 133 c 1,3,4
 926 85 926 85 893 44 c 1,5,6
 845 -7 845 -7 801 -7 c 0,7,8
 749 -9 749 -9 704.5 18 c 128,-1,9
 660 45 660 45 635 133 c 1,10,11
 546 -6 546 -6 422 -11 c 0,12,13
 361 -15 361 -15 302 12.5 c 128,-1,14
 243 40 243 40 222.5 83.5 c 128,-1,15
 202 127 202 127 204 133 c 1,16,17
 152 -8 152 -8 5 -1 c 2,18,-1
 -22 0 l 1,19,-1
 -22 140 l 1,20,21
 134 140 134 140 178 186 c 0,22,23
 215 224 215 224 240 371 c 1,24,25
 308 120 308 120 461 120 c 0,26,27
 566 120 566 120 613 196 c 0,28,29
 632 229 632 229 671 371 c 1,30,31
 706 264 706 264 726 224 c 0,32,33
 774 131 774 131 838 131 c 0,34,35
 899 131 899 131 935 224 c 0,36,37
 944 250 944 250 972 371 c 1,38,39
 1012 245 1012 245 1033 212 c 0,40,41
 1076 148 1076 148 1207 140 c 1,42,-1
 1207 0 l 1,43,-1
 1127 0 l 2,0,1
EndSplineSet
EndChar

StartChar: afii57429
Encoding: 1589 1589 206
Width: 1970
GlyphClass: 2
Flags: W
AnchorPoint: "Anchor-1" 1140 -705 basechar 0
AnchorPoint: "Anchor-0" 1185 870 basechar 0
LayerCount: 2
Fore
SplineSet
1013 28 m 1,0,1
 993 -92 993 -92 967 -226 c 1,2,3
 924 -317 924 -317 775 -365 c 0,4,5
 656 -403 656 -403 530 -403 c 0,6,7
 365 -403 365 -403 246 -326 c 0,8,9
 107 -236 107 -236 107 -80 c 2,10,-1
 107 -43 l 2,11,12
 107 -16 107 -16 151 92 c 0,13,14
 192 193 192 193 207 216 c 1,15,16
 175 67 175 67 175 -1 c 0,17,18
 175 -137 175 -137 315 -205 c 0,19,20
 426 -259 426 -259 576 -259 c 0,21,22
 683 -259 683 -259 789 -229 c 0,23,24
 938 -187 938 -187 938 -110 c 2,25,-1
 938 -58 l 2,26,27
 938 37 938 37 920 90 c 0,28,29
 914 109 914 109 855 232 c 1,30,31
 879 280 879 280 933 355 c 1,32,33
 1013 133 1013 133 1127 133 c 0,34,35
 1145 133 1145 133 1152 139 c 0,36,37
 1316 281 1316 281 1459 398 c 0,38,39
 1535 461 1535 461 1637 461 c 0,40,41
 1697 461 1697 461 1811 422 c 0,42,43
 1939 379 1939 379 1939 336 c 0,44,45
 1939 289 1939 289 1893 191 c 0,46,47
 1844 85 1844 85 1808 77 c 0,48,49
 1473 0 1473 0 1188 0 c 0,50,51
 1035 0 1035 0 1013 28 c 1,0,1
1861 246 m 1,52,53
 1723 348 1723 348 1537 348 c 0,54,55
 1497 348 1497 348 1387 265 c 0,56,57
 1296 197 1296 197 1248 146 c 1,58,-1
 1253 144 l 1,59,60
 1285 143 1285 143 1299 143 c 0,61,62
 1410 143 1410 143 1602 170 c 0,63,64
 1837 204 1837 204 1861 246 c 1,52,53
EndSplineSet
Substitution2: "'medi' Medial Forms in Arabic lookup 3 subtable" afii62791
Substitution2: "'fina' Terminal Forms in Arabic lookup 2 subtable" afii62792
Substitution2: "'init' Initial Forms in Arabic lookup 1 subtable" afii62790
EndChar

StartChar: afii62792
Encoding: 65210 65210 207
Width: 2116
GlyphClass: 2
Flags: W
AnchorPoint: "Anchor-1" 1260 -660 basechar 0
AnchorPoint: "Anchor-0" 1200 915 basechar 0
LayerCount: 2
Fore
SplineSet
1015 0 m 1,0,-1
 966 -230 l 2,1,2
 948 -312 948 -312 778 -362 c 0,3,4
 645 -402 645 -402 532 -402 c 0,5,6
 367 -402 367 -402 248 -325 c 0,7,8
 109 -235 109 -235 109 -79 c 2,9,-1
 109 -42 l 2,10,11
 109 -11 109 -11 153 96 c 0,12,13
 193 193 193 193 210 217 c 1,14,15
 177 68 177 68 177 0 c 0,16,17
 177 -136 177 -136 318 -204 c 0,18,19
 428 -258 428 -258 578 -258 c 0,20,21
 687 -258 687 -258 793 -228 c 0,22,23
 940 -186 940 -186 940 -109 c 2,24,-1
 940 -56 l 2,25,26
 940 38 940 38 922 91 c 0,27,28
 916 110 916 110 858 233 c 1,29,30
 882 281 882 281 936 356 c 1,31,32
 1016 133 1016 133 1123 133 c 0,33,34
 1146 133 1146 133 1154 140 c 0,35,36
 1303 270 1303 270 1461 400 c 0,37,38
 1537 462 1537 462 1639 462 c 0,39,40
 1699 462 1699 462 1813 424 c 0,41,42
 1941 380 1941 380 1941 338 c 0,43,44
 1941 312 1941 312 1912 251 c 2,45,-1
 1869 160 l 1,46,-1
 1876 140 l 1,47,48
 1890 139 1890 139 2145 140 c 1,49,-1
 2145 0 l 1,50,-1
 1015 0 l 1,0,-1
1863 247 m 1,51,52
 1725 349 1725 349 1539 349 c 0,53,54
 1500 349 1500 349 1389 266 c 0,55,56
 1298 198 1298 198 1250 148 c 1,57,-1
 1255 145 l 1,58,59
 1287 144 1287 144 1302 144 c 0,60,61
 1412 144 1412 144 1604 172 c 0,62,63
 1839 205 1839 205 1863 247 c 1,51,52
EndSplineSet
EndChar

StartChar: afii62790
Encoding: 65211 65211 208
Width: 1497
GlyphClass: 2
Flags: W
AnchorPoint: "Anchor-1" 600 -585 basechar 0
AnchorPoint: "Anchor-0" 735 945 basechar 0
LayerCount: 2
Fore
SplineSet
470 2 m 0,0,1
 436 2 436 2 365 49 c 128,-1,2
 294 96 294 96 294 127 c 0,3,4
 294 131 294 131 295 133 c 1,5,6
 210 0 210 0 -36 0 c 1,7,-1
 -36 140 l 1,8,9
 262 140 262 140 288 221 c 0,10,11
 320 319 320 319 332 371 c 1,12,13
 374 218 374 218 413 182 c 0,14,15
 462 137 462 137 612 139 c 2,16,-1
 682 140 l 1,17,18
 752 210 752 210 875 313 c 0,19,20
 1028 443 1028 443 1067 451 c 0,21,22
 1117 462 1117 462 1166 462 c 0,23,24
 1231 462 1231 462 1342 424 c 0,25,26
 1469 379 1469 379 1469 332 c 0,27,28
 1469 288 1469 288 1424 195.5 c 128,-1,29
 1379 103 1379 103 1344 83 c 0,30,31
 1326 72 1326 72 1190 49 c 0,32,33
 1074 29 1074 29 1012 22 c 0,34,35
 874 5 874 5 470 2 c 0,0,1
1391 247 m 1,36,37
 1214 349 1214 349 1020 349 c 0,38,39
 984 349 984 349 872 262 c 0,40,41
 784 192 784 192 732 140 c 1,42,-1
 736 138 l 1,43,-1
 752 138 l 2,44,45
 869 138 869 138 1094 169 c 0,46,47
 1363 206 1363 206 1391 247 c 1,36,37
EndSplineSet
EndChar

StartChar: afii62791
Encoding: 65212 65212 209
Width: 1571
GlyphClass: 2
Flags: W
AnchorPoint: "Anchor-1" 480 -585 basechar 0
AnchorPoint: "Anchor-0" 555 870 basechar 0
LayerCount: 2
Fore
SplineSet
264 133 m 1,0,1
 233 0 233 0 -26 0 c 1,2,-1
 -29 140 l 1,3,4
 163 138 163 138 215 174 c 0,5,6
 272 215 272 215 300 371 c 1,7,8
 352 138 352 138 463 139 c 2,9,-1
 649 140 l 1,10,11
 721 209 721 209 842 311 c 0,12,13
 1002 445 1002 445 1032 451 c 0,14,15
 1086 462 1086 462 1135 462 c 0,16,17
 1205 462 1205 462 1315 422 c 0,18,19
 1442 377 1442 377 1442 324 c 0,20,21
 1442 265 1442 265 1357 140 c 1,22,-1
 1601 140 l 1,23,-1
 1601 0 l 1,24,-1
 439 2 l 2,25,26
 398 2 398 2 334 48 c 0,27,28
 264 95 264 95 264 133 c 1,0,1
1361 252 m 1,29,30
 1361 286 1361 286 1199 320 c 0,31,32
 1063 349 1063 349 991 349 c 0,33,34
 955 349 955 349 842 263 c 0,35,36
 744 187 744 187 701 140 c 1,37,-1
 704 138 l 1,38,-1
 721 138 l 2,39,40
 824 138 824 138 1061 169 c 0,41,42
 1343 206 1343 206 1360 247 c 1,43,-1
 1361 252 l 1,29,30
EndSplineSet
EndChar

StartChar: afii57431
Encoding: 1591 1591 214
Width: 1222
GlyphClass: 2
Flags: W
AnchorPoint: "Anchor-1" 570 -495 basechar 0
AnchorPoint: "Anchor-0" 780 1200 basechar 0
LayerCount: 2
Fore
SplineSet
409 156 m 1,0,1
 384 796 384 796 274 1123 c 1,2,-1
 352 1242 l 1,3,4
 380 1163 380 1163 412 1130 c 1,5,6
 461 1093 461 1093 509 1056 c 1,7,-1
 517 1048 l 1,8,9
 422 1008 422 1008 422 973 c 1,10,11
 422 996 422 996 440 877 c 0,12,13
 461 743 461 743 461 565 c 0,14,15
 461 289 461 289 432 178 c 1,16,17
 584 311 584 311 775 452 c 1,18,19
 823 463 823 463 876 463 c 0,20,21
 943 463 943 463 1052 426 c 0,22,23
 1182 382 1182 382 1182 336 c 0,24,25
 1182 293 1182 293 1133 198.5 c 128,-1,26
 1084 104 1084 104 1048 79 c 0,27,28
 932 0 932 0 505 0 c 0,29,30
 353 0 353 0 299 17 c 0,31,32
 236 36 236 36 114 127 c 1,33,34
 206 125 206 125 390 142 c 1,35,-1
 409 156 l 1,0,1
1100 248 m 1,36,37
 1066 275 1066 275 1015 308 c 0,38,39
 953 350 953 350 775 350 c 0,40,41
 733 350 733 350 625 269 c 0,42,43
 541 205 541 205 487 149 c 1,44,45
 512 139 512 139 612 139 c 0,46,47
 732 139 732 139 871 162 c 0,48,49
 1061 193 1061 193 1100 248 c 1,36,37
EndSplineSet
Substitution2: "'medi' Medial Forms in Arabic lookup 3 subtable" afii62797
Substitution2: "'fina' Terminal Forms in Arabic lookup 2 subtable" afii62798
Substitution2: "'init' Initial Forms in Arabic lookup 1 subtable" afii62796
EndChar

StartChar: afii62798
Encoding: 65218 65218 215
Width: 1318
GlyphClass: 2
Flags: W
AnchorPoint: "Anchor-1" 705 -465 basechar 0
AnchorPoint: "Anchor-0" 825 1065 basechar 0
LayerCount: 2
Fore
SplineSet
431 176 m 1,0,-1
 724 426 l 1,1,2
 781 462 781 462 875 462 c 0,3,4
 946 462 946 462 1052 425 c 0,5,6
 1181 380 1181 380 1181 330 c 0,7,8
 1181 271 1181 271 1092 140 c 1,9,-1
 1342 140 l 1,10,-1
 1342 0 l 1,11,-1
 426 0 l 2,12,13
 325 0 325 0 260 29 c 0,14,15
 218 48 218 48 113 126 c 1,16,-1
 389 140 l 1,17,-1
 408 155 l 1,18,19
 383 794 383 794 272 1122 c 1,20,-1
 350 1241 l 1,21,22
 379 1163 379 1163 412 1130 c 1,23,24
 460 1092 460 1092 508 1055 c 1,25,-1
 516 1046 l 1,26,27
 421 1007 421 1007 421 972 c 1,28,29
 421 995 421 995 439 876 c 0,30,31
 460 742 460 742 460 560 c 0,32,33
 460 288 460 288 431 176 c 1,0,-1
1099 247 m 1,34,35
 1064 274 1064 274 1014 307 c 0,36,37
 952 349 952 349 774 349 c 0,38,39
 732 349 732 349 624 268 c 0,40,41
 540 204 540 204 486 148 c 1,42,43
 511 138 511 138 611 138 c 0,44,45
 731 138 731 138 870 161 c 0,46,47
 1060 192 1060 192 1099 247 c 1,34,35
EndSplineSet
EndChar

StartChar: afii62796
Encoding: 65219 65219 216
Width: 1097
GlyphClass: 2
Flags: W
AnchorPoint: "Anchor-1" 420 -510 basechar 0
AnchorPoint: "Anchor-0" 645 1260 basechar 0
LayerCount: 2
Fore
SplineSet
318 176 m 1,0,-1
 611 426 l 1,1,2
 668 462 668 462 762 462 c 0,3,4
 829 462 829 462 938 425 c 0,5,6
 1068 380 1068 380 1068 335 c 256,7,8
 1068 290 1068 290 1019.5 198 c 128,-1,9
 971 106 971 106 934 78 c 0,10,11
 872 32 872 32 521 11 c 0,12,13
 384 2 384 2 -19 0 c 1,14,-1
 -19 140 l 1,15,-1
 276 140 l 1,16,-1
 295 155 l 1,17,18
 270 794 270 794 160 1122 c 1,19,-1
 238 1241 l 1,20,21
 266 1163 266 1163 299 1130 c 1,22,23
 347 1092 347 1092 395 1055 c 1,24,-1
 403 1046 l 1,25,26
 308 1007 308 1007 308 972 c 1,27,28
 308 995 308 995 326 876 c 0,29,30
 347 742 347 742 347 559 c 0,31,32
 347 288 347 288 318 176 c 1,0,-1
986 247 m 1,33,34
 952 274 952 274 901 307 c 0,35,36
 839 349 839 349 661 349 c 0,37,38
 619 349 619 349 511 268 c 0,39,40
 427 204 427 204 373 148 c 1,41,42
 398 138 398 138 498 138 c 0,43,44
 618 138 618 138 757 161 c 0,45,46
 947 192 947 192 986 247 c 1,33,34
EndSplineSet
EndChar

StartChar: afii62797
Encoding: 65220 65220 217
Width: 1198
GlyphClass: 2
Flags: W
AnchorPoint: "Anchor-1" 450 -525 basechar 0
AnchorPoint: "Anchor-0" 735 1170 basechar 0
LayerCount: 2
Fore
SplineSet
318 176 m 1,0,-1
 611 426 l 1,1,2
 668 462 668 462 762 462 c 0,3,4
 833 462 833 462 940 425 c 0,5,6
 1068 380 1068 380 1068 330 c 0,7,8
 1068 271 1068 271 979 140 c 1,9,-1
 1229 140 l 1,10,-1
 1229 0 l 1,11,-1
 -26 0 l 1,12,-1
 -26 140 l 1,13,-1
 276 140 l 1,14,-1
 295 155 l 1,15,16
 270 794 270 794 160 1122 c 1,17,-1
 238 1241 l 1,18,19
 266 1163 266 1163 299 1130 c 1,20,21
 347 1092 347 1092 395 1055 c 1,22,-1
 403 1046 l 1,23,24
 308 1007 308 1007 308 972 c 1,25,26
 308 995 308 995 326 876 c 0,27,28
 347 742 347 742 347 562 c 0,29,30
 347 288 347 288 318 176 c 1,0,-1
986 247 m 1,31,32
 952 274 952 274 901 307 c 0,33,34
 839 349 839 349 661 349 c 0,35,36
 619 349 619 349 511 268 c 0,37,38
 427 204 427 204 373 148 c 1,39,40
 398 138 398 138 498 138 c 0,41,42
 618 138 618 138 757 161 c 0,43,44
 947 192 947 192 986 247 c 1,31,32
EndSplineSet
EndChar

StartChar: afii57433
Encoding: 1593 1593 222
Width: 903
GlyphClass: 2
Flags: W
AnchorPoint: "Anchor-1" 480 -1080 basechar 0
AnchorPoint: "Anchor-0" 405 1005 basechar 0
LayerCount: 2
Fore
SplineSet
1193 -388 m 1,0,1
 1045 -619 1045 -619 558 -619 c 0,2,3
 355 -619 355 -619 235 -514 c 0,4,5
 108 -403 108 -403 108 -203 c 0,6,7
 108 38 108 38 270 268 c 0,8,9
 275 274 275 274 281 283 c 1,10,11
 281 280 281 280 232 335 c 128,-1,12
 183 390 183 390 183 432 c 0,13,14
 183 558 183 558 205 620 c 0,15,16
 235 703 235 703 328 763 c 0,17,18
 341 772 341 772 358 772 c 0,19,20
 457 772 457 772 570 642 c 1,21,22
 275 642 275 642 275 527 c 0,23,24
 275 415 275 415 376 415 c 0,25,26
 448 415 448 415 737 558 c 1,27,28
 693 480 693 480 630 395 c 1,29,30
 169 205 169 205 169 -116 c 0,31,32
 169 -478 169 -478 743 -478 c 0,33,34
 916 -478 916 -478 1193 -388 c 1,0,1
EndSplineSet
Substitution2: "'medi' Medial Forms in Arabic lookup 3 subtable" afii62803
Substitution2: "'fina' Terminal Forms in Arabic lookup 2 subtable" afii62804
Substitution2: "'init' Initial Forms in Arabic lookup 1 subtable" afii62802
EndChar

StartChar: afii62804
Encoding: 65226 65226 223
Width: 772
GlyphClass: 2
Flags: W
AnchorPoint: "Anchor-1" 450 -1215 basechar 0
AnchorPoint: "Anchor-0" 420 855 basechar 0
LayerCount: 2
Fore
SplineSet
801 140 m 1,0,-1
 801 0 l 1,1,-1
 722 0 l 2,2,3
 574 0 574 0 519 54 c 0,4,5
 514 59 514 59 489 104 c 0,6,7
 472 134 472 134 442 134 c 0,8,9
 366 134 366 134 279 -4 c 0,10,11
 186 -152 186 -152 186 -319 c 0,12,13
 186 -654 186 -654 639 -654 c 0,14,15
 716 -654 716 -654 806 -636 c 1,16,17
 898 -601 898 -601 1002 -566 c 1,18,-1
 1010 -572 l 1,19,20
 1010 -604 1010 -604 900 -667 c 0,21,22
 699 -784 699 -784 508 -784 c 0,23,24
 94 -784 94 -784 94 -384 c 0,25,26
 94 -232 94 -232 159 -101 c 0,27,28
 176 -67 176 -67 278 86 c 0,29,30
 343 184 343 184 343 258 c 0,31,32
 343 305 343 305 310 305 c 0,33,34
 300 305 300 305 277.5 299 c 128,-1,35
 255 293 255 293 244 293 c 0,36,37
 214 293 214 293 214 314 c 0,38,39
 214 368 214 368 308 431 c 0,40,41
 394 488 394 488 454 488 c 0,42,43
 536 488 536 488 585 436.5 c 128,-1,44
 634 385 634 385 634 304 c 0,45,46
 634 283 634 283 620.5 242.5 c 128,-1,47
 607 202 607 202 607 185 c 0,48,49
 607 154 607 154 680 144 c 1,50,51
 724 143 724 143 801 140 c 1,0,-1
EndSplineSet
EndChar

StartChar: afii62802
Encoding: 65227 65227 224
Width: 834
GlyphClass: 2
Flags: W
AnchorPoint: "Anchor-1" 375 -540 basechar 0
AnchorPoint: "Anchor-0" 420 900 basechar 0
LayerCount: 2
Fore
SplineSet
235 145 m 1,0,1
 211 200 211 200 181 252 c 1,2,3
 181 368 181 368 253 466 c 0,4,5
 331 571 331 571 443 571 c 0,6,7
 588 571 588 571 644 383 c 1,8,9
 566 439 566 439 479 439 c 0,10,11
 334 439 334 439 280 385 c 1,12,13
 271 368 271 368 271 359 c 0,14,15
 271 314 271 314 358.5 245 c 128,-1,16
 446 176 446 176 493 176 c 0,17,18
 582 176 582 176 793 271 c 1,19,-1
 686 109 l 1,20,21
 552 31 552 31 346 11 c 0,22,23
 262 2 262 2 -31 0 c 1,24,-1
 -31 140 l 1,25,26
 224 140 224 140 235 145 c 1,0,1
EndSplineSet
EndChar

StartChar: afii62803
Encoding: 65228 65228 225
Width: 860
GlyphClass: 2
Flags: W
AnchorPoint: "Anchor-1" 390 -555 basechar 0
AnchorPoint: "Anchor-0" 420 1050 basechar 0
LayerCount: 2
Fore
SplineSet
385 204 m 1,0,1
 378 274 378 274 316 274 c 0,2,3
 295 274 295 274 271 257 c 1,4,-1
 268 264 l 1,5,-1
 265 288 l 1,6,7
 265 368 265 368 325 421 c 128,-1,8
 385 474 385 474 467 474 c 0,9,10
 550 474 550 474 602 430 c 0,11,12
 660 382 660 382 660 301 c 0,13,14
 660 223 660 223 563 174 c 1,15,16
 569 140 569 140 626 138 c 1,17,18
 577 140 577 140 708 140 c 2,19,-1
 900 140 l 1,20,-1
 900 0 l 1,21,-1
 559 2 l 2,22,23
 520 2 520 2 492 29 c 0,24,25
 487 32 487 32 448 86 c 1,26,-1
 444 88 l 1,27,28
 318 0 318 0 174 0 c 2,29,-1
 -26 0 l 1,30,-1
 -26 140 l 1,31,-1
 286 143 l 2,32,33
 311 143 311 143 345 162 c 128,-1,34
 379 181 379 181 385 204 c 1,0,1
EndSplineSet
EndChar

StartChar: afii57443
Encoding: 1603 1603 238
Width: 1452
GlyphClass: 2
Flags: W
AnchorPoint: "Anchor-1" 690 -525 basechar 0
AnchorPoint: "Anchor-0" 480 990 basechar 0
LayerCount: 2
Fore
SplineSet
1330 197 m 0,0,1
 1320 518 1320 518 1276 762 c 0,2,3
 1257 862 1257 862 1209 1120 c 1,4,5
 1219 1140 1219 1140 1285 1241 c 1,6,7
 1293 1171 1293 1171 1323 1128 c 0,8,9
 1336 1109 1336 1109 1408 1036 c 1,10,11
 1407 1025 1407 1025 1330 1003 c 1,12,-1
 1327 989 l 2,13,14
 1327 974 1327 974 1345 809 c 0,15,16
 1378 422 1378 422 1384 350 c 2,17,-1
 1398 174 l 2,18,19
 1398 134 1398 134 1385.5 97 c 128,-1,20
 1373 60 1373 60 1329 39.5 c 128,-1,21
 1285 19 1285 19 1211 1 c 1,22,23
 975 -41 975 -41 523 -40 c 0,24,25
 362 -40 362 -40 270.5 7 c 128,-1,26
 179 54 179 54 176 171 c 0,27,28
 176 307 176 307 280 469 c 1,29,30
 278 450 278 450 259 354 c 0,31,32
 244 282 244 282 244 239 c 0,33,34
 244 102 244 102 629 101 c 0,35,36
 1119 101 1119 101 1315 165 c 1,37,38
 1330 179 1330 179 1330 197 c 0,0,1
861 859 m 0,39,40
 861 842 861 842 835.5 820 c 128,-1,41
 810 798 810 798 792 798 c 0,42,43
 791 798 791 798 761.5 815 c 128,-1,44
 732 832 732 832 717 832 c 0,45,46
 700 832 700 832 662 811 c 0,47,48
 622 790 622 790 622 776 c 0,49,50
 622 745 622 745 666 727 c 0,51,52
 700 713 700 713 735 713 c 2,53,-1
 771 713 l 2,54,55
 793 713 793 713 887 725 c 1,56,57
 876 673 876 673 858.5 660 c 128,-1,58
 841 647 841 647 783 642 c 0,59,60
 744 640 744 640 706 638 c 0,61,62
 660 633 660 633 633 611 c 2,63,-1
 559 554 l 1,64,-1
 554 564 l 2,65,66
 554 572 554 572 577 607 c 128,-1,67
 600 642 600 642 600 650 c 2,68,-1
 598 657 l 1,69,70
 546 704 546 704 546 721 c 0,71,72
 546 768 546 768 690 868 c 0,73,74
 732 898 732 898 792 898 c 0,75,76
 861 898 861 898 861 859 c 0,39,40
EndSplineSet
Substitution2: "'medi' Medial Forms in Arabic lookup 3 subtable" afii52306
Substitution2: "'fina' Terminal Forms in Arabic lookup 2 subtable" afii62816
Substitution2: "'init' Initial Forms in Arabic lookup 1 subtable" afii52305
EndChar

StartChar: afii62816
Encoding: 65242 65242 239
Width: 1646
GlyphClass: 2
Flags: W
AnchorPoint: "Anchor-1" 630 -540 basechar 0
AnchorPoint: "Anchor-0" 540 975 basechar 0
LayerCount: 2
Fore
SplineSet
1661 0 m 1,0,1
 1474 1 1474 1 1467 4 c 0,2,3
 1432 14 1432 14 1370 106 c 1,4,-1
 1359 121 l 1,5,6
 1335 76 1335 76 1277 38 c 0,7,8
 1237 11 1237 11 1202.5 2.5 c 128,-1,9
 1168 -6 1168 -6 1131 -10 c 0,10,11
 925 -33 925 -33 780 -35 c 0,12,13
 583 -36 583 -36 477 -29 c 128,-1,14
 371 -22 371 -22 282 9 c 0,15,16
 146 61 146 61 146 188 c 0,17,18
 146 240 146 240 179 338 c 1,19,20
 218 432 218 432 251 480 c 1,21,22
 214 283 214 283 214 256 c 0,23,24
 214 170 214 170 350.5 140.5 c 128,-1,25
 487 111 487 111 613 115 c 0,26,27
 1123 119 1123 119 1257 149 c 0,28,29
 1301 161 1301 161 1340 197 c 1,30,31
 1303 498 1303 498 1245 1122 c 1,32,33
 1282 1184 1282 1184 1323 1241 c 1,34,35
 1391 316 1391 316 1430 218 c 0,36,37
 1455 155 1455 155 1515 143 c 0,38,39
 1527 140 1527 140 1661 140 c 1,40,-1
 1661 0 l 1,0,1
892 859 m 0,41,42
 892 842 892 842 866.5 820 c 128,-1,43
 841 798 841 798 823 798 c 0,44,45
 822 798 822 798 792.5 815 c 128,-1,46
 763 832 763 832 748 832 c 0,47,48
 731 832 731 832 693 811 c 0,49,50
 653 790 653 790 653 776 c 0,51,52
 653 745 653 745 697 727 c 0,53,54
 731 713 731 713 766 713 c 2,55,-1
 802 713 l 2,56,57
 824 713 824 713 918 725 c 1,58,59
 907 673 907 673 889.5 660 c 128,-1,60
 872 647 872 647 814 642 c 0,61,62
 775 640 775 640 737 638 c 0,63,64
 691 633 691 633 664 611 c 2,65,-1
 590 554 l 1,66,-1
 585 564 l 2,67,68
 585 572 585 572 608 607 c 128,-1,69
 631 642 631 642 631 650 c 2,70,-1
 629 657 l 1,71,72
 577 704 577 704 577 721 c 0,73,74
 577 768 577 768 721 868 c 0,75,76
 763 898 763 898 823 898 c 0,77,78
 892 898 892 898 892 859 c 0,41,42
EndSplineSet
EndChar

StartChar: afii57444
Encoding: 1604 1604 242
Width: 969
GlyphClass: 2
Flags: W
AnchorPoint: "Anchor-1" 495 -585 basechar 0
AnchorPoint: "Anchor-0" 675 1320 basechar 0
LayerCount: 2
Fore
SplineSet
142 194 m 0,0,1
 142 80 142 80 275 28 c 0,2,3
 370 -10 370 -10 506 -10 c 0,4,5
 610 -10 610 -10 700 12 c 0,6,7
 826 42 826 42 852 104 c 0,8,9
 859 121 859 121 859 170 c 0,10,11
 859 331 859 331 808 655 c 0,12,13
 754 992 754 992 703 1124 c 1,14,-1
 781 1246 l 1,15,16
 793 1159 793 1159 830 1116 c 0,17,18
 852 1091 852 1091 946 1030 c 1,19,20
 936 1022 936 1022 889 1016 c 0,21,22
 859 1013 859 1013 859 960 c 0,23,24
 859 844 859 844 891.5 611.5 c 128,-1,25
 924 379 924 379 924 263 c 0,26,27
 924 215 924 215 920 149 c 0,28,29
 919 126 919 126 876 28 c 1,30,31
 769 -143 769 -143 370 -143 c 0,32,33
 248 -143 248 -143 170 -65 c 128,-1,34
 92 13 92 13 92 134 c 0,35,36
 92 205 92 205 133 312 c 0,37,38
 175 424 175 424 224 468 c 1,39,40
 142 275 142 275 142 194 c 0,0,1
EndSplineSet
Substitution2: "'medi' Medial Forms in Arabic lookup 3 subtable" afii62818
Substitution2: "'fina' Terminal Forms in Arabic lookup 2 subtable" afii62819
Substitution2: "'init' Initial Forms in Arabic lookup 1 subtable" afii62817
EndChar

StartChar: afii62817
Encoding: 65247 65247 243
Width: 326
GlyphClass: 2
Flags: W
AnchorPoint: "Anchor-1" 165 -480 basechar 0
AnchorPoint: "Anchor-0" 150 1335 basechar 0
LayerCount: 2
Fore
SplineSet
221 197 m 0,0,1
 211 518 211 518 167 762 c 0,2,3
 148 862 148 862 100 1120 c 1,4,5
 110 1140 110 1140 176 1241 c 1,6,7
 184 1171 184 1171 214 1128 c 0,8,9
 227 1109 227 1109 299 1036 c 1,10,11
 298 1025 298 1025 221 1003 c 1,12,-1
 218 989 l 2,13,14
 218 974 218 974 236 809 c 0,15,16
 269 422 269 422 275 350 c 2,17,-1
 289 174 l 1,18,19
 289 0 289 0 73 0 c 2,20,-1
 -36 0 l 1,21,-1
 -36 140 l 1,22,23
 -26 140 -26 140 -7.5 139 c 128,-1,24
 11 138 11 138 20 138 c 2,25,-1
 59 138 l 2,26,27
 222 138 222 138 221 197 c 0,0,1
EndSplineSet
EndChar

StartChar: afii62818
Encoding: 65248 65248 244
Width: 523
GlyphClass: 2
Flags: W
AnchorPoint: "Anchor-1" 180 -525 basechar 0
AnchorPoint: "Anchor-0" 180 1365 basechar 0
LayerCount: 2
Fore
SplineSet
554 140 m 1,0,-1
 554 0 l 1,1,2
 367 1 367 1 360 4 c 0,3,4
 325 14 325 14 263 106 c 1,5,-1
 252 121 l 1,6,7
 228 76 228 76 170.5 38 c 128,-1,8
 113 0 113 0 64 0 c 2,9,-1
 -31 0 l 1,10,-1
 -31 140 l 1,11,12
 109 140 109 140 126 143 c 0,13,14
 184 151 184 151 233 197 c 1,15,16
 196 498 196 498 138 1122 c 1,17,18
 175 1184 175 1184 216 1241 c 1,19,20
 284 316 284 316 323 218 c 0,21,22
 348 155 348 155 408 143 c 0,23,24
 420 140 420 140 554 140 c 1,0,-1
EndSplineSet
EndChar

StartChar: afii57445
Encoding: 1605 1605 245
Width: 741
GlyphClass: 2
Flags: W
AnchorPoint: "Anchor-1" 420 -1020 basechar 0
AnchorPoint: "Anchor-0" 375 690 basechar 0
LayerCount: 2
Fore
SplineSet
445 212 m 1,0,1
 383 275 383 275 325 275 c 0,2,3
 278 275 278 275 247 218 c 0,4,5
 242 211 242 211 209 125 c 1,6,7
 208 134 208 134 208 168 c 0,8,9
 208 242 208 242 260 319 c 0,10,11
 317 404 317 404 388 404 c 0,12,13
 428 404 428 404 462 370 c 0,14,15
 546 282 546 282 610 234 c 0,16,17
 714 155 714 155 714 145 c 0,18,19
 714 120 714 120 677.5 74 c 128,-1,20
 641 28 641 28 617 28 c 0,21,22
 592 28 592 28 524.5 53 c 128,-1,23
 457 78 457 78 425 78 c 0,24,25
 280 78 280 78 191 1 c 0,26,27
 172 -16 172 -16 172 -76 c 0,28,29
 172 -158 172 -158 196.5 -324 c 128,-1,30
 221 -490 221 -490 221 -572 c 0,31,32
 221 -630 221 -630 212 -676 c 0,33,34
 192 -786 192 -786 163 -871 c 1,35,36
 150 -871 150 -871 150 -619 c 0,37,38
 150 -535 150 -535 125 -368.5 c 128,-1,39
 100 -202 100 -202 100 -118 c 0,40,41
 100 34 100 34 203 113 c 0,42,43
 271 166 271 166 445 212 c 1,0,1
EndSplineSet
Substitution2: "'medi' Medial Forms in Arabic lookup 3 subtable" afii62821
Substitution2: "'fina' Terminal Forms in Arabic lookup 2 subtable" afii62822
Substitution2: "'init' Initial Forms in Arabic lookup 1 subtable" afii62820
EndChar

StartChar: afii62822
Encoding: 65250 65250 246
Width: 804
GlyphClass: 2
Flags: W
AnchorPoint: "Anchor-1" 525 -960 basechar 0
AnchorPoint: "Anchor-0" 330 645 basechar 0
LayerCount: 2
Fore
SplineSet
585 66 m 1,0,-1
 585 38 l 2,1,2
 587 23 587 23 600 -106 c 0,3,4
 603 -143 603 -143 551 -143 c 0,5,6
 507 -143 507 -143 426 -106 c 0,7,8
 338 -64 338 -64 330 -29 c 0,9,10
 327 -19 327 -19 327 114 c 0,11,12
 327 124 327 124 324 133 c 1,13,-1
 313 133 l 2,14,15
 290 133 290 133 233 101.5 c 128,-1,16
 176 70 176 70 167 50 c 0,17,18
 159 36 159 36 159 -14 c 0,19,20
 159 -55 159 -55 180 -162 c 0,21,22
 192 -221 192 -221 221 -374 c 0,23,24
 243 -498 243 -498 243 -590 c 0,25,26
 243 -612 243 -612 219 -707 c 0,27,28
 194 -806 194 -806 181 -814 c 0,29,30
 174 -814 174 -814 170 -763 c 1,31,32
 174 -703 174 -703 167 -582 c 1,33,-1
 113 -299 l 2,34,35
 83 -139 83 -139 83 -13 c 0,36,37
 83 72 83 72 105 104 c 0,38,39
 152 169 152 169 215 212 c 0,40,41
 264 246 264 246 359 282 c 1,42,43
 455 314 455 314 507 314 c 0,44,45
 517 314 517 314 542 253 c 1,46,-1
 578 181 l 1,47,48
 683 144 683 144 833 140 c 1,49,-1
 833 0 l 1,50,51
 638 0 638 0 585 66 c 1,0,-1
530 88 m 1,52,53
 487 104 487 104 456 104 c 0,54,55
 395 104 395 104 381 76 c 1,56,57
 381 49 381 49 451 13 c 0,58,59
 516 -22 516 -22 547 -22 c 1,60,-1
 547 14 l 2,61,62
 547 72 547 72 530 88 c 1,52,53
EndSplineSet
EndChar

StartChar: afii62820
Encoding: 65251 65251 247
Width: 595
GlyphClass: 2
Flags: W
AnchorPoint: "Anchor-1" 270 -570 basechar 0
AnchorPoint: "Anchor-0" 330 750 basechar 0
LayerCount: 2
Fore
SplineSet
414 412 m 0,0,1
 440 412 440 412 506 314 c 128,-1,2
 572 216 572 216 572 185 c 0,3,4
 572 143 572 143 516.5 83.5 c 128,-1,5
 461 24 461 24 419 24 c 0,6,7
 371 24 371 24 238 112 c 1,8,9
 206 42 206 42 125 20 c 0,10,11
 96 13 96 13 -36 0 c 1,12,-1
 -36 140 l 1,13,14
 193 140 193 140 214 172 c 0,15,16
 239 210 239 210 308 311 c 128,-1,17
 377 412 377 412 414 412 c 0,0,1
295 202 m 1,18,19
 402 136 402 136 430 136 c 0,20,21
 479 136 479 136 479 158 c 0,22,23
 479 188 479 188 441.5 239 c 128,-1,24
 404 290 404 290 377 290 c 0,25,26
 346 290 346 290 295 202 c 1,18,19
EndSplineSet
EndChar

StartChar: afii57446
Encoding: 1606 1606 248
Width: 1051
GlyphClass: 2
Flags: W
AnchorPoint: "Anchor-1" 480 -765 basechar 0
AnchorPoint: "Anchor-0" 465 1035 basechar 0
LayerCount: 2
Fore
SplineSet
402 -300 m 0,0,1
 247 -300 247 -300 167 -204 c 0,2,3
 91 -115 91 -115 91 42 c 0,4,5
 91 98 91 98 120 229 c 0,6,7
 152 377 152 377 179 379 c 1,8,-1
 182 362 l 1,9,10
 182 317 182 317 166 227 c 128,-1,11
 150 137 150 137 150 91 c 0,12,13
 150 -19 150 -19 223 -87 c 128,-1,14
 296 -155 296 -155 408 -155 c 0,15,16
 714 -155 714 -155 961 116 c 0,17,18
 964 121 964 121 965 130 c 0,19,20
 965 172 965 172 816 414 c 1,21,22
 840 464 840 464 901 544 c 1,23,24
 1012 360 1012 360 1012 245 c 0,25,26
 1012 149 1012 149 978 7 c 0,27,28
 965 -47 965 -47 842 -136 c 0,29,30
 614 -300 614 -300 402 -300 c 0,0,1
385 696 m 1,31,32
 404 746 404 746 476 803 c 1,33,-1
 478 803 l 2,34,35
 492 804 492 804 540 757 c 128,-1,36
 588 710 588 710 588 696 c 256,37,38
 588 682 588 682 549 637 c 128,-1,39
 510 592 510 592 497 592 c 0,40,41
 485 592 485 592 437.5 637 c 128,-1,42
 390 682 390 682 385 696 c 1,31,32
EndSplineSet
Substitution2: "'medi' Medial Forms in Arabic lookup 3 subtable" afii62824
Substitution2: "'fina' Terminal Forms in Arabic lookup 2 subtable" afii62825
Substitution2: "'init' Initial Forms in Arabic lookup 1 subtable" afii62823
EndChar

StartChar: afii62825
Encoding: 65254 65254 249
Width: 1102
GlyphClass: 2
Flags: W
AnchorPoint: "Anchor-1" 450 -885 basechar 0
AnchorPoint: "Anchor-0" 525 900 basechar 0
LayerCount: 2
Fore
SplineSet
420 609 m 1,0,1
 420 622 420 622 459 669 c 128,-1,2
 498 716 498 716 510 716 c 0,3,4
 524 716 524 716 571 670.5 c 128,-1,5
 618 625 618 625 620 609 c 1,6,7
 560 505 560 505 531 505 c 0,8,9
 521 505 521 505 473.5 550 c 128,-1,10
 426 595 426 595 420 609 c 1,0,1
481 -415 m 0,11,12
 333 -415 333 -415 224 -348 c 0,13,14
 94 -269 94 -269 94 -131 c 0,15,16
 94 -97 94 -97 143 63.5 c 128,-1,17
 192 224 192 224 206 229 c 1,18,19
 202 185 202 185 181 70 c 0,20,21
 160 -32 160 -32 160 -88 c 0,22,23
 160 -180 160 -180 280 -232 c 0,24,25
 373 -271 373 -271 481 -271 c 0,26,27
 729 -271 729 -271 924 -95 c 0,28,29
 926 -89 926 -89 928 -80 c 0,30,31
 928 -59 928 -59 834 160 c 1,32,-1
 912 274 l 1,33,34
 924 140 924 140 1136 140 c 1,35,-1
 1136 0 l 1,36,37
 1104 2 1104 2 1077 2 c 0,38,39
 978 2 978 2 972 -28 c 0,40,41
 958 -92 958 -92 949 -137 c 0,42,43
 930 -222 930 -222 912 -240 c 0,44,45
 735 -415 735 -415 481 -415 c 0,11,12
EndSplineSet
EndChar

StartChar: afii62828
Encoding: 65258 65258 253
Width: 705
GlyphClass: 2
Flags: W
AnchorPoint: "Anchor-1" 270 -420 basechar 0
AnchorPoint: "Anchor-0" 195 975 basechar 0
LayerCount: 2
Fore
SplineSet
384 247 m 1,0,1
 379 244 379 244 357 212 c 0,2,3
 342 190 342 190 325 190 c 0,4,5
 291 190 291 190 198 226 c 0,6,7
 97 264 97 264 97 286 c 0,8,9
 97 385 97 385 181 458 c 0,10,11
 204 478 204 478 351 568 c 1,12,-1
 351 613 l 1,13,14
 366 640 366 640 429 734 c 1,15,-1
 428 660 l 1,16,-1
 428 575 l 2,17,18
 428 378 428 378 470 283 c 0,19,20
 534 140 534 140 739 140 c 1,21,-1
 739 0 l 1,22,23
 711 -1 711 -1 669 -1 c 0,24,25
 570 -1 570 -1 488 76 c 0,26,27
 413 146 413 146 384 247 c 1,0,1
351 511 m 1,28,29
 303 492 303 492 248 464 c 0,30,31
 174 428 174 428 174 382 c 0,32,33
 174 374 174 374 181 359 c 1,34,35
 258 322 258 322 307 322 c 0,36,37
 341 322 341 322 361 335 c 1,38,39
 355 397 355 397 351 511 c 1,28,29
EndSplineSet
EndChar

StartChar: afii57448
Encoding: 1608 1608 254
Width: 672
GlyphClass: 2
Flags: W
AnchorPoint: "Anchor-1" 285 -870 basechar 0
AnchorPoint: "Anchor-0" 420 690 basechar 0
LayerCount: 2
Fore
SplineSet
216 -324 m 1,0,1
 589 -132 589 -132 589 47 c 1,2,-1
 567 47 l 1,3,4
 458 37 458 37 447 37 c 0,5,6
 396 37 396 37 355 61 c 0,7,8
 306 90 306 90 306 138 c 0,9,10
 306 211 306 211 356 323 c 0,11,12
 414 450 414 450 471 450 c 0,13,14
 477 451 477 451 480 450 c 0,15,16
 561 424 561 424 609 294 c 0,17,18
 648 190 648 190 648 85 c 0,19,20
 648 -157 648 -157 447 -342 c 0,21,22
 363 -420 363 -420 314 -420 c 0,23,24
 280 -420 280 -420 139 -383 c 0,25,26
 -8 -344 -8 -344 -15 -325 c 1,27,28
 -5 -316 -5 -316 46 -316 c 0,29,30
 123 -320 123 -320 216 -324 c 1,0,1
429 326 m 0,31,32
 411 326 411 326 387.5 277.5 c 128,-1,33
 364 229 364 229 364 208 c 1,34,-1
 370 196 l 1,35,36
 402 176 402 176 453 176 c 2,37,-1
 483 176 l 2,38,39
 489 176 489 176 543 188 c 1,40,41
 471 326 471 326 429 326 c 0,31,32
EndSplineSet
Substitution2: "'fina' Terminal Forms in Arabic lookup 2 subtable" afii62829
PairPos2: "'kern' Horizontal Kerning in Arabic lookup 0 subtable" afii62840 dx=0 dy=0 dh=0 dv=0 dx=0 dy=0 dh=-100 dv=0
PairPos2: "'kern' Horizontal Kerning in Arabic lookup 0 subtable" afii62838 dx=0 dy=0 dh=0 dv=0 dx=0 dy=0 dh=-100 dv=0
PairPos2: "'kern' Horizontal Kerning in Arabic lookup 0 subtable" afii62836 dx=0 dy=0 dh=0 dv=0 dx=0 dy=0 dh=-100 dv=0
PairPos2: "'kern' Horizontal Kerning in Arabic lookup 0 subtable" afii62834 dx=0 dy=0 dh=0 dv=0 dx=0 dy=0 dh=-100 dv=0
PairPos2: "'kern' Horizontal Kerning in Arabic lookup 0 subtable" afii57410 dx=0 dy=0 dh=0 dv=0 dx=0 dy=0 dh=-170 dv=0
PairPos2: "'kern' Horizontal Kerning in Arabic lookup 0 subtable" afii62965 dx=0 dy=0 dh=0 dv=0 dx=0 dy=0 dh=-170 dv=0
PairPos2: "'kern' Horizontal Kerning in Arabic lookup 0 subtable" afii57509 dx=0 dy=0 dh=0 dv=0 dx=0 dy=0 dh=-170 dv=0
PairPos2: "'kern' Horizontal Kerning in Arabic lookup 0 subtable" afii52305 dx=0 dy=0 dh=0 dv=0 dx=0 dy=0 dh=-170 dv=0
PairPos2: "'kern' Horizontal Kerning in Arabic lookup 0 subtable" afii57567 dx=0 dy=0 dh=0 dv=0 dx=0 dy=0 dh=-170 dv=0
EndChar

StartChar: afii62829
Encoding: 65262 65262 255
Width: 838
GlyphClass: 2
Flags: W
AnchorPoint: "Anchor-1" 390 -795 basechar 0
AnchorPoint: "Anchor-0" 435 630 basechar 0
LayerCount: 2
Fore
SplineSet
700 0 m 1,0,-1
 652 -131 l 2,1,2
 612 -236 612 -236 533 -312 c 0,3,4
 445 -397 445 -397 343 -409 c 0,5,6
 313 -413 313 -413 283 -413 c 0,7,8
 236 -413 236 -413 150 -386 c 0,9,10
 48 -355 48 -355 48 -326 c 0,11,12
 48 -311 48 -311 116 -311 c 0,13,14
 132 -311 132 -311 164.5 -313.5 c 128,-1,15
 197 -316 197 -316 212 -316 c 0,16,17
 509 -316 509 -316 636 -2 c 1,18,19
 598 -5 598 -5 590 -5 c 0,20,21
 521 -5 521 -5 457.5 45.5 c 128,-1,22
 394 96 394 96 394 164 c 0,23,24
 394 215 394 215 445 287 c 0,25,26
 498 364 498 364 546 364 c 0,27,28
 619 364 619 364 707 140 c 1,29,-1
 876 140 l 1,30,-1
 876 0 l 1,31,-1
 700 0 l 1,0,-1
643 140 m 1,32,33
 595 284 595 284 540 284 c 0,34,35
 517 284 517 284 494.5 255 c 128,-1,36
 472 226 472 226 472 202 c 0,37,38
 472 138 472 138 594 138 c 2,39,-1
 622 138 l 1,40,-1
 643 140 l 1,32,33
EndSplineSet
PairPos2: "'kern' Horizontal Kerning in Arabic lookup 0 subtable" afii62840 dx=0 dy=0 dh=0 dv=0 dx=0 dy=0 dh=-100 dv=0
PairPos2: "'kern' Horizontal Kerning in Arabic lookup 0 subtable" afii62838 dx=0 dy=0 dh=0 dv=0 dx=0 dy=0 dh=-100 dv=0
PairPos2: "'kern' Horizontal Kerning in Arabic lookup 0 subtable" afii62836 dx=0 dy=0 dh=0 dv=0 dx=0 dy=0 dh=-100 dv=0
PairPos2: "'kern' Horizontal Kerning in Arabic lookup 0 subtable" afii62834 dx=0 dy=0 dh=0 dv=0 dx=0 dy=0 dh=-100 dv=0
PairPos2: "'kern' Horizontal Kerning in Arabic lookup 0 subtable" afii57410 dx=0 dy=0 dh=0 dv=0 dx=0 dy=0 dh=-170 dv=0
PairPos2: "'kern' Horizontal Kerning in Arabic lookup 0 subtable" afii62965 dx=0 dy=0 dh=0 dv=0 dx=0 dy=0 dh=-170 dv=0
PairPos2: "'kern' Horizontal Kerning in Arabic lookup 0 subtable" afii57509 dx=0 dy=0 dh=0 dv=0 dx=0 dy=0 dh=-170 dv=0
PairPos2: "'kern' Horizontal Kerning in Arabic lookup 0 subtable" afii52305 dx=0 dy=0 dh=0 dv=0 dx=0 dy=0 dh=-170 dv=0
PairPos2: "'kern' Horizontal Kerning in Arabic lookup 0 subtable" afii57567 dx=0 dy=0 dh=0 dv=0 dx=0 dy=0 dh=-170 dv=0
EndChar

StartChar: afii62840
Encoding: 65275 65275 268
Width: 1020
GlyphClass: 3
Flags: W
AnchorPoint: "Anchor-3" 750 -360 baselig 0
AnchorPoint: "Anchor-2" 840 1350 baselig 0
AnchorPoint: "Anchor-3" 390 -390 baselig 1
AnchorPoint: "Anchor-2" 105 1245 baselig 1
LayerCount: 2
Fore
SplineSet
811 432 m 1,0,1
 875 298 875 298 875 116 c 0,2,3
 875 25 875 25 847 8 c 0,4,5
 832 0 832 0 722 -4 c 0,6,7
 597 -8 597 -8 579 -7 c 2,8,-1
 415 0 l 1,9,10
 406 8 406 8 406 26 c 0,11,12
 406 127 406 127 429 140 c 0,13,14
 629 259 629 259 725 421 c 1,15,16
 599 622 599 622 343 836 c 1,17,18
 329 814 329 814 298 773 c 0,19,20
 293 770 293 770 285 768 c 0,21,22
 248 768 248 768 177 834 c 0,23,24
 112 895 112 895 93 936 c 0,25,26
 87 949 87 949 87 985 c 0,27,28
 87 1122 87 1122 117 1129 c 1,29,30
 368 1067 368 1067 769 494 c 1,31,32
 812 534 812 534 812 835 c 0,33,34
 812 1050 812 1050 771 1120 c 1,35,-1
 851 1241 l 1,36,37
 863 1156 863 1156 902 1110 c 0,38,39
 928 1079 928 1079 1017 1019 c 1,40,41
 1010 1016 1010 1016 941 1004 c 0,42,43
 907 998 907 998 881 761 c 0,44,45
 853 496 853 496 811 432 c 1,0,1
764 364 m 1,46,47
 717 284 717 284 560 150 c 1,48,49
 597 134 597 134 671 134 c 2,50,-1
 769 134 l 1,51,52
 811 143 811 143 811 198 c 0,53,54
 811 260 811 260 764 364 c 1,46,47
EndSplineSet
Ligature2: "'rlig' Required Ligatures in Arabic lookup 6 subtable" afii62817 afii62760
Substitution2: "'fina' Terminal Forms in Arabic lookup 2 subtable" afii62841
PairPos2: "'kern' Horizontal Kerning in Arabic lookup 0 subtable" afii57448 dx=0 dy=0 dh=0 dv=0 dx=0 dy=0 dh=-100 dv=0
PairPos2: "'kern' Horizontal Kerning in Arabic lookup 0 subtable" afii57445 dx=0 dy=0 dh=0 dv=0 dx=0 dy=0 dh=-70 dv=0
PairPos2: "'kern' Horizontal Kerning in Arabic lookup 0 subtable" afii57410 dx=0 dy=0 dh=0 dv=0 dx=0 dy=0 dh=150 dv=0
PairPos2: "'kern' Horizontal Kerning in Arabic lookup 0 subtable" afii62805 dx=0 dy=0 dh=0 dv=0 dx=0 dy=0 dh=-100 dv=0
PairPos2: "'kern' Horizontal Kerning in Arabic lookup 0 subtable" afii57434 dx=0 dy=0 dh=0 dv=0 dx=0 dy=0 dh=-100 dv=0
PairPos2: "'kern' Horizontal Kerning in Arabic lookup 0 subtable" afii62802 dx=0 dy=0 dh=0 dv=0 dx=0 dy=0 dh=-100 dv=0
PairPos2: "'kern' Horizontal Kerning in Arabic lookup 0 subtable" afii57433 dx=0 dy=0 dh=0 dv=0 dx=0 dy=0 dh=-100 dv=0
PairPos2: "'kern' Horizontal Kerning in Arabic lookup 0 subtable" afii57426 dx=0 dy=0 dh=0 dv=0 dx=0 dy=0 dh=-100 dv=0
PairPos2: "'kern' Horizontal Kerning in Arabic lookup 0 subtable" afii57425 dx=0 dy=0 dh=0 dv=0 dx=0 dy=0 dh=-100 dv=0
PairPos2: "'kern' Horizontal Kerning in Arabic lookup 0 subtable" afii62777 dx=0 dy=0 dh=0 dv=0 dx=0 dy=0 dh=-100 dv=0
PairPos2: "'kern' Horizontal Kerning in Arabic lookup 0 subtable" afii62774 dx=0 dy=0 dh=0 dv=0 dx=0 dy=0 dh=-100 dv=0
PairPos2: "'kern' Horizontal Kerning in Arabic lookup 0 subtable" afii62771 dx=0 dy=0 dh=0 dv=0 dx=0 dy=0 dh=-100 dv=0
PairPos2: "'kern' Horizontal Kerning in Arabic lookup 0 subtable" afii62965 dx=0 dy=0 dh=0 dv=0 dx=0 dy=0 dh=150 dv=0
PairPos2: "'kern' Horizontal Kerning in Arabic lookup 0 subtable" afii57509 dx=0 dy=0 dh=0 dv=0 dx=0 dy=0 dh=150 dv=0
PairPos2: "'kern' Horizontal Kerning in Arabic lookup 0 subtable" afii52305 dx=0 dy=0 dh=0 dv=0 dx=0 dy=0 dh=150 dv=0
PairPos2: "'kern' Horizontal Kerning in Arabic lookup 0 subtable" afii57567 dx=0 dy=0 dh=0 dv=0 dx=0 dy=0 dh=150 dv=0
PairPos2: "'kern' Horizontal Kerning in Arabic lookup 0 subtable" afii62959 dx=0 dy=0 dh=0 dv=0 dx=0 dy=0 dh=-100 dv=0
EndChar

StartChar: afii62841
Encoding: 65276 65276 269
Width: 1304
GlyphClass: 3
Flags: W
AnchorPoint: "Anchor-3" 885 -420 baselig 0
AnchorPoint: "Anchor-2" 840 1380 baselig 0
AnchorPoint: "Anchor-3" 375 -450 baselig 1
AnchorPoint: "Anchor-2" 195 1335 baselig 1
LayerCount: 2
Fore
SplineSet
475 896 m 1,0,1
 462 872 462 872 432 834 c 0,2,3
 427 832 427 832 419 829 c 0,4,5
 382 829 382 829 311 895 c 0,6,7
 247 955 247 955 226 996 c 0,8,9
 220 1008 220 1008 220 1045 c 0,10,11
 220 1188 220 1188 250 1190 c 1,12,13
 456 1102 456 1102 583 894 c 0,14,15
 640 800 640 800 770 480 c 1,16,17
 850 618 850 618 850 758 c 1,18,19
 850 712 850 712 829 1120 c 1,20,-1
 906 1241 l 1,21,22
 906 984 906 984 937 679 c 0,23,24
 983 233 983 233 1069 187 c 1,25,26
 1145 139 1145 139 1192 141 c 0,27,28
 1207 140 1207 140 1337 140 c 1,29,-1
 1337 0 l 1,30,-1
 1270 0 l 1,31,32
 1015 -12 1015 -12 930 222 c 0,33,34
 900 305 900 305 865 649 c 1,35,36
 828 409 828 409 764 280 c 0,37,38
 674 96 674 96 493 24 c 0,39,40
 356 -30 356 -30 260 -35 c 0,41,42
 224 -36 224 -36 160 -41 c 1,43,44
 707 196 707 196 707 376 c 0,45,46
 707 490 707 490 630 652 c 0,47,48
 562 796 562 796 475 896 c 1,0,1
EndSplineSet
Ligature2: "'rlig' Required Ligatures in Arabic lookup 6 subtable" afii62818 afii62760
PairPos2: "'kern' Horizontal Kerning in Arabic lookup 0 subtable" afii57434 dx=0 dy=0 dh=0 dv=0 dx=0 dy=0 dh=150 dv=0
PairPos2: "'kern' Horizontal Kerning in Arabic lookup 0 subtable" afii57433 dx=0 dy=0 dh=0 dv=0 dx=0 dy=0 dh=150 dv=0
EndChar

StartChar: afii59759
Encoding: 3663 3663 276
Width: 1233
GlyphClass: 2
Flags: W
LayerCount: 2
Fore
SplineSet
616 983 m 0,0,1
 823 983 823 983 969.5 836.5 c 128,-1,2
 1116 690 1116 690 1116 483 c 0,3,4
 1116 277 1116 277 969.5 130.5 c 128,-1,5
 823 -16 823 -16 616 -16 c 0,6,7
 410 -16 410 -16 263.5 130.5 c 128,-1,8
 117 277 117 277 117 483 c 0,9,10
 117 690 117 690 263.5 836.5 c 128,-1,11
 410 983 410 983 616 983 c 0,0,1
616 147 m 0,12,13
 758 147 758 147 849 242 c 128,-1,14
 940 337 940 337 940 483 c 256,15,16
 940 629 940 629 849 724 c 128,-1,17
 758 819 758 819 616 819 c 0,18,19
 475 819 475 819 384 724 c 128,-1,20
 293 629 293 629 293 483 c 256,21,22
 293 337 293 337 384 242 c 128,-1,23
 475 147 475 147 616 147 c 0,12,13
616 598 m 0,24,25
 664 598 664 598 697.5 565 c 128,-1,26
 731 532 731 532 731 485 c 256,27,28
 731 438 731 438 697.5 404.5 c 128,-1,29
 664 371 664 371 616 371 c 0,30,31
 569 371 569 371 535.5 404.5 c 128,-1,32
 502 438 502 438 502 485 c 256,33,34
 502 532 502 532 535.5 565 c 128,-1,35
 569 598 569 598 616 598 c 0,24,25
EndSplineSet
EndChar

StartChar: afii59760
Encoding: 3664 3664 277
Width: 1233
GlyphClass: 2
Flags: W
LayerCount: 2
Fore
SplineSet
616 924 m 0,0,1
 834 924 834 924 975 794.5 c 128,-1,2
 1116 665 1116 665 1116 453 c 0,3,4
 1116 242 1116 242 975 113 c 128,-1,5
 834 -16 834 -16 616 -16 c 0,6,7
 399 -16 399 -16 258 113 c 128,-1,8
 117 242 117 242 117 453 c 0,9,10
 117 665 117 665 258 794.5 c 128,-1,11
 399 924 399 924 616 924 c 0,0,1
616 150 m 0,12,13
 765 150 765 150 852.5 231 c 128,-1,14
 940 312 940 312 940 453 c 256,15,16
 940 594 940 594 852 677 c 128,-1,17
 764 760 764 760 616 760 c 0,18,19
 469 760 469 760 381 677 c 128,-1,20
 293 594 293 594 293 453 c 0,21,22
 293 310 293 310 381.5 230 c 128,-1,23
 470 150 470 150 616 150 c 0,12,13
EndSplineSet
EndChar

StartChar: glyph279
Encoding: 65559 -1 279
Width: 0
GlyphClass: 2
Flags: W
LayerCount: 2
Fore
SplineSet
36 1831 m 1,0,-1
 36 863 l 1,1,-1
 -36 863 l 1,2,-1
 -36 1831 l 1,3,-1
 36 1831 l 1,0,-1
36 543 m 1,4,-1
 36 -423 l 1,5,-1
 -36 -423 l 1,6,-1
 -36 543 l 1,7,-1
 36 543 l 1,4,-1
EndSplineSet
EndChar

StartChar: glyph280
Encoding: 65560 -1 280
Width: 0
GlyphClass: 2
Flags: W
LayerCount: 2
Fore
SplineSet
-234 -423 m 1,0,-1
 -234 -352 l 1,1,-1
 -36 -352 l 1,2,-1
 -36 1760 l 1,3,-1
 -234 1760 l 1,4,-1
 -234 1831 l 1,5,-1
 234 1831 l 1,6,-1
 234 1760 l 1,7,-1
 36 1760 l 1,8,-1
 36 -352 l 1,9,-1
 234 -352 l 1,10,-1
 234 -423 l 1,11,-1
 -234 -423 l 1,0,-1
EndSplineSet
EndChar

StartChar: glyph281
Encoding: 65561 -1 281
Width: 0
GlyphClass: 2
Flags: W
LayerCount: 2
Fore
SplineSet
224 1646 m 1,0,-1
 36 1504 l 1,1,-1
 36 -423 l 1,2,-1
 -36 -423 l 1,3,-1
 -36 1831 l 1,4,-1
 224 1646 l 1,0,-1
EndSplineSet
EndChar

StartChar: glyph282
Encoding: 65562 -1 282
Width: 0
GlyphClass: 2
Flags: W
LayerCount: 2
Fore
SplineSet
36 1831 m 1,0,-1
 36 -423 l 1,1,-1
 -36 -423 l 1,2,-1
 -36 1504 l 1,3,-1
 -224 1646 l 1,4,-1
 36 1831 l 1,0,-1
EndSplineSet
EndChar

StartChar: glyph283
Encoding: 65563 -1 283
Width: 0
GlyphClass: 2
Flags: W
LayerCount: 2
Fore
SplineSet
36 1831 m 1,0,-1
 36 -352 l 1,1,-1
 234 -352 l 1,2,-1
 234 -423 l 1,3,-1
 -36 -423 l 1,4,-1
 -36 1831 l 1,5,-1
 36 1831 l 1,0,-1
EndSplineSet
EndChar

StartChar: glyph284
Encoding: 65564 -1 284
Width: 0
GlyphClass: 2
Flags: W
LayerCount: 2
Fore
SplineSet
224 1646 m 1,0,-1
 36 1504 l 1,1,-1
 36 -423 l 1,2,-1
 -36 -423 l 1,3,-1
 -36 1504 l 1,4,-1
 -224 1641 l 1,5,-1
 0 1831 l 1,6,-1
 224 1646 l 1,0,-1
EndSplineSet
EndChar

StartChar: uni0670
Encoding: 1648 1648 297
Width: 0
GlyphClass: 4
Flags: W
AnchorPoint: "Anchor-2" 0 0 mark 0
AnchorPoint: "Anchor-0" 0 0 mark 0
LayerCount: 2
Fore
SplineSet
17 22 m 1,0,-1
 -13 -1 l 1,1,2
 -11 104 -11 104 -21 148 c 0,3,4
 -34 211 -34 211 -82 285 c 1,5,-1
 -60 422 l 1,6,7
 24 362 24 362 35 236 c 0,8,9
 41 162 41 162 17 22 c 1,0,-1
EndSplineSet
EndChar

StartChar: glyph298
Encoding: 65565 -1 298
Width: 458
GlyphClass: 2
Flags: W
LayerCount: 2
Fore
SplineSet
235 1433 m 2,0,1
 266 1457 266 1457 293.5 1461.5 c 128,-1,2
 321 1466 321 1466 342 1455 c 128,-1,3
 363 1444 363 1444 375.5 1419 c 128,-1,4
 388 1394 388 1394 388 1357 c 1,5,-1
 375 1287 l 1,6,7
 293 1292 293 1292 209.5 1287 c 128,-1,8
 126 1282 126 1282 48 1275 c 1,9,10
 47 1292 47 1292 67.5 1311 c 128,-1,11
 88 1330 88 1330 123 1335 c 1,12,-1
 235 1433 l 2,0,1
203 1339 m 1,13,14
 245 1344 245 1344 280 1343.5 c 128,-1,15
 315 1343 315 1343 331 1340 c 1,16,-1
 331 1365 l 2,17,18
 329 1394 329 1394 311 1402 c 128,-1,19
 293 1410 293 1410 263 1388 c 2,20,-1
 203 1339 l 1,13,14
EndSplineSet
EndChar

StartChar: glyph299
Encoding: 65566 -1 299
Width: 1051
GlyphClass: 2
Flags: W
LayerCount: 2
Fore
SplineSet
889 236 m 1,0,1
 792 169 792 169 733 169 c 0,2,3
 643 169 643 169 643 314 c 0,4,5
 643 367 643 367 687.5 459 c 128,-1,6
 732 551 732 551 798 551 c 0,7,8
 869 551 869 551 940 418 c 1,9,10
 1004 314 1004 314 1010 236 c 0,11,12
 1014 188 1014 188 1014 174 c 0,13,14
 1014 17 1014 17 794 -121 c 0,15,16
 595 -246 595 -246 428 -246 c 0,17,18
 269 -246 269 -246 175.5 -160 c 128,-1,19
 82 -74 82 -74 82 84 c 0,20,21
 82 128 82 128 131 240 c 0,22,23
 182 358 182 358 212 360 c 1,24,-1
 212 342 l 2,25,26
 212 324 212 324 174.5 222.5 c 128,-1,27
 137 121 137 121 137 71 c 0,28,29
 137 -17 137 -17 252 -65 c 0,30,31
 341 -102 341 -102 445 -102 c 0,32,33
 708 -102 708 -102 916 77 c 1,34,35
 919 88 919 88 919 102 c 0,36,37
 919 194 919 194 889 236 c 1,0,1
704 342 m 0,38,39
 704 294 704 294 754 294 c 0,40,41
 793 294 793 294 852 331 c 1,42,43
 786 431 786 431 754 431 c 0,44,45
 732 431 732 431 718 396 c 0,46,47
 704 367 704 367 704 342 c 0,38,39
EndSplineSet
EndChar

StartChar: uni06DD
Encoding: 1757 1757 388
Width: 2300
GlyphClass: 2
Flags: W
LayerCount: 2
Fore
SplineSet
2250 715 m 256,0,1
 2250 469 2250 469 2146 249 c 0,2,3
 2046 35 2046 35 1867 -119 c 1,4,5
 1870 -133 1870 -133 1870 -148 c 0,6,7
 1870 -203 1870 -203 1831 -241.5 c 128,-1,8
 1792 -280 1792 -280 1737 -280 c 0,9,10
 1697 -280 1697 -280 1664 -258 c 1,11,12
 1424 -385 1424 -385 1149 -385 c 0,13,14
 876 -385 876 -385 636 -258 c 1,15,16
 603 -280 603 -280 563 -280 c 0,17,18
 508 -280 508 -280 469 -241.5 c 128,-1,19
 430 -203 430 -203 430 -148 c 0,20,21
 430 -133 430 -133 433 -119 c 1,22,23
 254 35 254 35 154 249 c 0,24,25
 50 469 50 469 50 715 c 256,26,27
 50 961 50 961 154 1181 c 0,28,29
 254 1394 254 1394 433 1548 c 1,30,31
 430 1562 430 1562 430 1577 c 0,32,33
 430 1632 430 1632 469 1670.5 c 128,-1,34
 508 1709 508 1709 563 1709 c 0,35,36
 603 1709 603 1709 636 1687 c 1,37,38
 876 1814 876 1814 1151 1814 c 0,39,40
 1424 1814 1424 1814 1664 1687 c 1,41,42
 1697 1709 1697 1709 1737 1709 c 0,43,44
 1792 1709 1792 1709 1831 1670.5 c 128,-1,45
 1870 1632 1870 1632 1870 1577 c 0,46,47
 1870 1562 1870 1562 1867 1548 c 1,48,49
 2046 1394 2046 1394 2146 1181 c 0,50,51
 2250 961 2250 961 2250 715 c 256,0,1
1816 1576 m 0,52,53
 1816 1609 1816 1609 1793 1632 c 128,-1,54
 1770 1655 1770 1655 1738 1655 c 256,55,56
 1706 1655 1706 1655 1682.5 1631.5 c 128,-1,57
 1659 1608 1659 1608 1659 1576 c 256,58,59
 1659 1544 1659 1544 1682 1521 c 128,-1,60
 1705 1498 1705 1498 1738 1498 c 0,61,62
 1770 1498 1770 1498 1793 1521 c 128,-1,63
 1816 1544 1816 1544 1816 1576 c 0,52,53
1602 1595 m 1,64,65
 1390 1704 1390 1704 1151 1704 c 0,66,67
 910 1704 910 1704 698 1595 c 1,68,-1
 1602 1595 l 1,64,65
641 1576 m 256,69,70
 641 1608 641 1608 617.5 1631.5 c 128,-1,71
 594 1655 594 1655 562 1655 c 256,72,73
 530 1655 530 1655 507 1632 c 128,-1,74
 484 1609 484 1609 484 1576 c 0,75,76
 484 1544 484 1544 507 1521 c 128,-1,77
 530 1498 530 1498 562 1498 c 0,78,79
 595 1498 595 1498 618 1521 c 128,-1,80
 641 1544 641 1544 641 1576 c 256,69,70
2140 714 m 0,81,82
 2140 933 2140 933 2048 1131 c 0,83,84
 1960 1321 1960 1321 1801 1460 c 1,85,86
 1772 1444 1772 1444 1737 1444 c 0,87,88
 1681 1444 1681 1444 1642 1485 c 1,89,-1
 658 1485 l 1,90,91
 619 1444 619 1444 563 1444 c 0,92,93
 528 1444 528 1444 499 1460 c 1,94,95
 340 1321 340 1321 252 1131 c 0,96,97
 160 933 160 933 160 714 c 0,98,99
 160 265 160 265 499 -31 c 1,100,101
 528 -15 528 -15 563 -15 c 0,102,103
 619 -15 619 -15 658 -56 c 1,104,-1
 1642 -56 l 1,105,106
 1681 -15 1681 -15 1737 -15 c 0,107,108
 1772 -15 1772 -15 1801 -31 c 1,109,110
 2140 265 2140 265 2140 714 c 0,81,82
1816 -147 m 0,111,112
 1816 -115 1816 -115 1793 -92 c 128,-1,113
 1770 -69 1770 -69 1738 -69 c 0,114,115
 1705 -69 1705 -69 1682 -92 c 128,-1,116
 1659 -115 1659 -115 1659 -147 c 256,117,118
 1659 -179 1659 -179 1682.5 -202.5 c 128,-1,119
 1706 -226 1706 -226 1738 -226 c 256,120,121
 1770 -226 1770 -226 1793 -203 c 128,-1,122
 1816 -180 1816 -180 1816 -147 c 0,111,112
1602 -166 m 1,123,-1
 698 -166 l 1,124,125
 910 -275 910 -275 1151 -275 c 0,126,127
 1390 -275 1390 -275 1602 -166 c 1,123,-1
641 -147 m 256,128,129
 641 -115 641 -115 618 -92 c 128,-1,130
 595 -69 595 -69 562 -69 c 0,131,132
 530 -69 530 -69 507 -92 c 128,-1,133
 484 -115 484 -115 484 -147 c 0,134,135
 484 -180 484 -180 507 -203 c 128,-1,136
 530 -226 530 -226 562 -226 c 256,137,138
 594 -226 594 -226 617.5 -202.5 c 128,-1,139
 641 -179 641 -179 641 -147 c 256,128,129
EndSplineSet
EndChar

StartChar: uni06DE
Encoding: 1758 1758 389
Width: 2221
GlyphClass: 2
Flags: W
LayerCount: 2
Fore
SplineSet
2171 750 m 1,0,-1
 1861 439 l 1,1,-1
 1861 0 l 1,2,-1
 1421 0 l 1,3,-1
 1111 -311 l 1,4,-1
 800 0 l 1,5,-1
 361 0 l 1,6,-1
 361 439 l 1,7,-1
 50 750 l 1,8,-1
 361 1061 l 1,9,-1
 361 1500 l 1,10,-1
 800 1500 l 1,11,-1
 1111 1811 l 1,12,-1
 1421 1500 l 1,13,-1
 1861 1500 l 1,14,-1
 1861 1061 l 1,15,-1
 2171 750 l 1,0,-1
436 364 m 1,16,-1
 436 75 l 1,17,-1
 725 75 l 1,18,-1
 436 364 l 1,16,-1
725 1425 m 1,19,-1
 436 1425 l 1,20,-1
 436 1136 l 1,21,-1
 725 1425 l 1,19,-1
1786 1136 m 1,22,-1
 1786 1425 l 1,23,-1
 1496 1425 l 1,24,-1
 1786 1136 l 1,22,-1
1786 75 m 1,25,-1
 1786 364 l 1,26,-1
 1496 75 l 1,27,-1
 1786 75 l 1,25,-1
906 0 m 1,28,-1
 1111 -205 l 1,29,-1
 1315 0 l 1,30,-1
 906 0 l 1,28,-1
361 955 m 1,31,-1
 156 750 l 1,32,-1
 361 545 l 1,33,-1
 361 955 l 1,31,-1
1315 1500 m 1,34,-1
 1111 1705 l 1,35,-1
 906 1500 l 1,36,-1
 1315 1500 l 1,34,-1
1786 1030 m 1,37,-1
 1390 1425 l 1,38,-1
 831 1425 l 1,39,-1
 436 1030 l 1,40,-1
 436 470 l 1,41,-1
 831 75 l 1,42,-1
 1390 75 l 1,43,-1
 1786 470 l 1,44,-1
 1786 1030 l 1,37,-1
2065 750 m 1,45,-1
 1861 955 l 1,46,-1
 1861 545 l 1,47,-1
 2065 750 l 1,45,-1
1328 750 m 256,48,49
 1328 660 1328 660 1264.5 596 c 128,-1,50
 1201 532 1201 532 1111 532 c 256,51,52
 1021 532 1021 532 957 596 c 128,-1,53
 893 660 893 660 893 750 c 256,54,55
 893 840 893 840 957 903.5 c 128,-1,56
 1021 967 1021 967 1111 967 c 256,57,58
 1201 967 1201 967 1264.5 903.5 c 128,-1,59
 1328 840 1328 840 1328 750 c 256,48,49
1253 750 m 256,60,61
 1253 809 1253 809 1211 850.5 c 128,-1,62
 1169 892 1169 892 1110 892 c 256,63,64
 1051 892 1051 892 1009 850.5 c 128,-1,65
 967 809 967 809 967 750 c 256,66,67
 967 691 967 691 1009 649 c 128,-1,68
 1051 607 1051 607 1110 607 c 256,69,70
 1169 607 1169 607 1211 649 c 128,-1,71
 1253 691 1253 691 1253 750 c 256,60,61
EndSplineSet
EndChar

StartChar: uni06DF
Encoding: 1759 1759 390
Width: 0
GlyphClass: 2
Flags: W
LayerCount: 2
Fore
SplineSet
75 1429 m 256,0,1
 75 1398 75 1398 53 1376 c 128,-1,2
 31 1354 31 1354 0 1354 c 256,3,4
 -31 1354 -31 1354 -53 1376 c 128,-1,5
 -75 1398 -75 1398 -75 1429 c 256,6,7
 -75 1460 -75 1460 -53 1482 c 128,-1,8
 -31 1504 -31 1504 0 1504 c 256,9,10
 31 1504 31 1504 53 1482 c 128,-1,11
 75 1460 75 1460 75 1429 c 256,0,1
EndSplineSet
EndChar

StartChar: uni06E9
Encoding: 1769 1769 391
Width: 1229
GlyphClass: 2
Flags: W
LayerCount: 2
Fore
SplineSet
1179 0 m 1,0,-1
 50 0 l 1,1,-1
 278 261 l 1,2,-1
 278 849 l 1,3,-1
 50 1108 l 1,4,-1
 614 1676 l 1,5,-1
 1179 1108 l 1,6,-1
 951 849 l 1,7,-1
 951 261 l 1,8,-1
 1179 0 l 1,0,-1
1101 1108 m 1,9,-1
 614 1598 l 1,10,-1
 128 1108 l 1,11,-1
 338 871 l 1,12,-1
 338 239 l 1,13,-1
 178 56 l 1,14,-1
 1051 56 l 1,15,-1
 891 239 l 1,16,-1
 891 871 l 1,17,-1
 1101 1108 l 1,9,-1
995 1108 m 1,18,-1
 845 937 l 1,19,-1
 845 131 l 1,20,-1
 384 131 l 1,21,-1
 384 937 l 1,22,-1
 234 1108 l 1,23,-1
 614 1489 l 1,24,-1
 995 1108 l 1,18,-1
922 1108 m 1,25,-1
 614 1416 l 1,26,-1
 307 1108 l 1,27,-1
 433 968 l 1,28,-1
 433 186 l 1,29,-1
 796 186 l 1,30,-1
 796 968 l 1,31,-1
 922 1108 l 1,25,-1
833 1108 m 1,32,-1
 745 1011 l 1,33,-1
 745 267 l 1,34,-1
 484 267 l 1,35,-1
 484 1011 l 1,36,-1
 396 1108 l 1,37,-1
 614 1331 l 1,38,-1
 833 1108 l 1,32,-1
780 1108 m 1,39,-1
 614 1278 l 1,40,-1
 449 1108 l 1,41,-1
 523 1027 l 1,42,-1
 523 309 l 1,43,-1
 705 309 l 1,44,-1
 705 1027 l 1,45,-1
 780 1108 l 1,39,-1
EndSplineSet
EndChar

StartChar: uni06EB
Encoding: 1771 1771 393
Width: 0
GlyphClass: 2
Flags: W
LayerCount: 2
Fore
SplineSet
168 1522 m 1,0,-1
 -1 1354 l 1,1,-1
 -168 1521 l 1,2,-1
 1 1689 l 1,3,-1
 168 1522 l 1,0,-1
104 1522 m 1,4,-1
 0 1626 l 1,5,-1
 -104 1521 l 1,6,-1
 0 1417 l 1,7,-1
 104 1522 l 1,4,-1
EndSplineSet
EndChar

StartChar: comma
Encoding: 44 44 402
Width: 446
Flags: W
LayerCount: 2
Fore
SplineSet
155 123 m 0,0,1
 157 141 157 141 169 159 c 128,-1,2
 181 177 181 177 199 190 c 128,-1,3
 217 203 217 203 240.5 209.5 c 128,-1,4
 264 216 264 216 289 213 c 0,5,6
 319 210 319 210 342 193.5 c 128,-1,7
 365 177 365 177 372.5 155 c 128,-1,8
 380 133 380 133 383.5 102 c 128,-1,9
 387 71 387 71 383 36 c 0,10,11
 361 -131 361 -131 238 -188 c 0,12,13
 226 -193 226 -193 213 -194 c 128,-1,14
 200 -195 200 -195 185 -193 c 0,15,16
 163 -191 163 -191 164 -180 c 1,17,18
 171 -173 171 -173 197 -154 c 0,19,20
 290 -92 290 -92 302 11 c 1,21,22
 270 5 270 5 240 9 c 0,23,24
 143 20 143 20 155 123 c 0,0,1
EndSplineSet
EndChar

StartChar: afii57407
Encoding: 1567 1567 403
Width: 686
GlyphClass: 2
Flags: W
LayerCount: 2
Fore
SplineSet
308 104 m 1,0,1
 319 126 319 126 349 164 c 0,2,3
 385 211 385 211 398 211 c 0,4,5
 414 211 414 211 459.5 166 c 128,-1,6
 505 121 505 121 509 104 c 1,7,8
 452 13 452 13 420 0 c 1,9,10
 336 49 336 49 308 104 c 1,0,1
97 772 m 0,11,12
 97 892 97 892 160 968 c 0,13,14
 227 1052 227 1052 344 1052 c 0,15,16
 558 1052 558 1052 558 908 c 0,17,18
 558 797 558 797 475 797 c 0,19,20
 396 797 396 797 396 871 c 0,21,22
 396 906 396 906 426 940 c 0,23,24
 436 950 436 950 457 972 c 1,25,26
 445 1003 445 1003 362 1003 c 0,27,28
 272 1003 272 1003 219 942.5 c 128,-1,29
 166 882 166 882 166 791 c 0,30,31
 166 644 166 644 380 574 c 0,32,33
 408 565 408 565 456 556 c 1,34,-1
 461 505 l 1,35,36
 461 413 461 413 422 340 c 1,37,38
 421 380 421 380 402 451 c 1,39,40
 97 482 97 482 97 772 c 0,11,12
EndSplineSet
EndChar

StartChar: afii57392
Encoding: 1776 1776 404
Width: 946
Flags: W
LayerCount: 2
Fore
SplineSet
590 424 m 1,0,1
 559 306 559 306 545 213 c 1,2,3
 445 265 445 265 360 336 c 1,4,5
 379 446 379 446 422 559 c 1,6,7
 483 501 483 501 590 424 c 1,0,1
EndSplineSet
EndChar

StartChar: afii57393
Encoding: 1777 1777 405
Width: 946
Flags: W
LayerCount: 2
Fore
SplineSet
590 227 m 0,0,1
 590 146 590 146 569 -16 c 1,2,-1
 547 -16 l 1,3,-1
 548 36 l 2,4,5
 553 421 553 421 293 805 c 1,6,7
 313 904 313 904 348 999 c 1,8,9
 590 625 590 625 590 227 c 0,0,1
EndSplineSet
EndChar

StartChar: afii57394
Encoding: 1778 1778 406
Width: 946
Flags: W
LayerCount: 2
Fore
SplineSet
705 983 m 1,0,1
 705 838 705 838 679 771 c 0,2,3
 637 662 637 662 516 662 c 1,4,-1
 449 668 l 1,5,6
 551 412 551 412 551 209 c 0,7,8
 551 168 551 168 546 99 c 0,9,10
 540 19 540 19 539 -10 c 1,11,-1
 510 -10 l 1,12,13
 510 121 510 121 460 306 c 0,14,15
 413 481 413 481 350 608 c 0,16,17
 297 711 297 711 197 846 c 1,18,-1
 252 995 l 1,19,20
 388 821 388 821 508 821 c 0,21,22
 644 821 644 821 686 983 c 1,23,-1
 705 983 l 1,0,1
EndSplineSet
EndChar

StartChar: afii57395
Encoding: 1779 1779 407
Width: 946
Flags: W
LayerCount: 2
Fore
SplineSet
848 1001 m 1,0,1
 848 707 848 707 662 707 c 0,2,3
 588 707 588 707 539 774 c 1,4,5
 465 677 465 677 395 677 c 0,6,7
 379 677 379 677 362 682 c 1,8,9
 430 487 430 487 430 277 c 0,10,11
 430 206 430 206 406 0 c 1,12,-1
 379 0 l 1,13,14
 382 86 382 86 382 105 c 0,15,16
 382 309 382 309 316 480 c 0,17,18
 260 622 260 622 127 811 c 1,19,-1
 178 989 l 1,20,21
 284 829 284 829 387 829 c 0,22,23
 519 829 519 829 582 1001 c 1,24,-1
 594 1001 l 1,25,26
 612 866 612 866 711 866 c 0,27,28
 800 866 800 866 829 1001 c 1,29,-1
 848 1001 l 1,0,1
EndSplineSet
EndChar

StartChar: afii62843
Encoding: 1780 1780 408
Width: 864
Flags: W
LayerCount: 2
Fore
SplineSet
735 938 m 1,0,-1
 724 921 l 1,1,2
 654 946 654 946 616 946 c 0,3,4
 439 946 439 946 399 770 c 1,5,6
 452 749 452 749 507 749 c 0,7,8
 660 749 660 749 732 878 c 1,9,-1
 749 872 l 1,10,11
 680 600 680 600 469 600 c 0,12,13
 421 600 421 600 366 616 c 1,14,15
 417 435 417 435 417 286 c 0,16,17
 417 214 417 214 384 0 c 1,18,-1
 355 0 l 1,19,-1
 355 21 l 2,20,21
 357 271 357 271 301 460 c 0,22,23
 246 646 246 646 112 856 c 1,24,-1
 179 1005 l 1,25,26
 223 946 223 946 267 888 c 0,27,28
 318 823 318 823 369 784 c 1,29,30
 433 1032 433 1032 575 1032 c 0,31,32
 655 1032 655 1032 735 938 c 1,0,-1
EndSplineSet
EndChar

StartChar: afii62844
Encoding: 1781 1781 409
Width: 946
Flags: W
LayerCount: 2
Fore
SplineSet
851 344 m 0,0,1
 851 234 851 234 791 135 c 0,2,3
 725 27 725 27 636 27 c 0,4,5
 586 27 586 27 544 74 c 1,6,7
 463 0 463 0 380 0 c 0,8,9
 304 0 304 0 256 54 c 128,-1,10
 208 108 208 108 208 184 c 0,11,12
 208 419 208 419 532 752 c 1,13,-1
 495 795 l 1,14,-1
 558 979 l 1,15,16
 851 599 851 599 851 344 c 0,0,1
796 295 m 0,17,18
 796 457 796 457 554 725 c 1,19,20
 331 475 331 475 331 295 c 0,21,22
 331 244 331 244 363.5 209 c 128,-1,23
 396 174 396 174 446 174 c 0,24,25
 511 174 511 174 599 258 c 1,26,27
 638 186 638 186 700 186 c 0,28,29
 796 186 796 186 796 295 c 0,17,18
EndSplineSet
EndChar

StartChar: afii62845
Encoding: 1782 1782 410
Width: 946
Flags: W
LayerCount: 2
Fore
SplineSet
848 736 m 1,0,-1
 792 586 l 1,1,2
 417 480 417 480 270 0 c 1,3,-1
 248 0 l 1,4,5
 266 173 266 173 307 280 c 0,6,7
 360 419 360 419 479 543 c 1,8,9
 420 549 420 549 311 575 c 1,10,11
 215 612 215 612 215 697 c 0,12,13
 215 786 215 786 325 912 c 0,14,15
 421 1022 421 1022 516 1022 c 0,16,17
 587 1022 587 1022 648 972 c 0,18,19
 685 942 685 942 745 865 c 1,20,-1
 731 850 l 1,21,22
 613 908 613 908 500 908 c 0,23,24
 442 908 442 908 388 886 c 0,25,26
 319 858 319 858 319 807 c 0,27,28
 319 747 319 747 421 711 c 0,29,30
 498 684 498 684 573 684 c 0,31,32
 676 684 676 684 848 736 c 1,0,-1
EndSplineSet
EndChar

StartChar: afii57399
Encoding: 1783 1783 411
Width: 946
Flags: W
LayerCount: 2
Fore
SplineSet
827 762 m 1,0,1
 614 639 614 639 516 12 c 1,2,-1
 483 12 l 1,3,4
 458 218 458 218 376 417 c 0,5,6
 272 670 272 670 133 737 c 1,7,-1
 147 971 l 1,8,9
 277 917 277 917 382 628 c 0,10,11
 428 503 428 503 502 201 c 1,12,13
 640 878 640 878 827 977 c 1,14,-1
 827 762 l 1,0,1
EndSplineSet
EndChar

StartChar: afii57400
Encoding: 1784 1784 412
Width: 946
Flags: W
LayerCount: 2
Fore
SplineSet
827 241 m 1,0,-1
 813 7 l 1,1,2
 683 61 683 61 578 350 c 0,3,4
 532 475 532 475 458 777 c 1,5,6
 320 100 320 100 133 1 c 1,7,-1
 133 216 l 1,8,9
 352 342 352 342 444 966 c 1,10,-1
 477 966 l 1,11,12
 502 763 502 763 585 562 c 0,13,14
 690 309 690 309 827 241 c 1,0,-1
EndSplineSet
EndChar

StartChar: afii57401
Encoding: 1785 1785 413
Width: 946
Flags: W
LayerCount: 2
Fore
SplineSet
756 188 m 1,0,-1
 729 -35 l 1,1,2
 626 9 626 9 594 227 c 0,3,4
 578 331 578 331 578 547 c 1,5,6
 486 461 486 461 385 461 c 0,7,8
 308 461 308 461 263.5 508.5 c 128,-1,9
 219 556 219 556 219 633 c 0,10,11
 219 695 219 695 259 793.5 c 128,-1,12
 299 892 299 892 343 936 c 0,13,14
 393 987 393 987 465 987 c 0,15,16
 581 987 581 987 611 807 c 1,17,18
 624 629 624 629 638 450 c 1,19,20
 660 239 660 239 756 188 c 1,0,-1
557 674 m 1,21,22
 534 817 534 817 416 817 c 0,23,24
 366 817 366 817 323 795 c 0,25,26
 270 768 270 768 270 723 c 256,27,28
 270 678 270 678 323 649 c 0,29,30
 368 625 368 625 418 625 c 0,31,32
 482 625 482 625 557 674 c 1,21,22
EndSplineSet
EndChar

StartChar: afii57392.001
Encoding: 1632 1632 414
Width: 946
Flags: W
LayerCount: 2
Fore
SplineSet
590 424 m 1,0,1
 559 306 559 306 545 213 c 1,2,3
 445 265 445 265 360 336 c 1,4,5
 379 446 379 446 422 559 c 1,6,7
 483 501 483 501 590 424 c 1,0,1
EndSplineSet
EndChar

StartChar: afii57393.001
Encoding: 1633 1633 415
Width: 946
Flags: W
LayerCount: 2
Fore
SplineSet
590 227 m 0,0,1
 590 146 590 146 569 -16 c 1,2,-1
 547 -16 l 1,3,-1
 548 36 l 2,4,5
 553 421 553 421 293 805 c 1,6,7
 313 904 313 904 348 999 c 1,8,9
 590 625 590 625 590 227 c 0,0,1
EndSplineSet
EndChar

StartChar: afii57394.001
Encoding: 1634 1634 416
Width: 946
Flags: W
LayerCount: 2
Fore
SplineSet
705 983 m 1,0,1
 705 838 705 838 679 771 c 0,2,3
 637 662 637 662 516 662 c 1,4,-1
 449 668 l 1,5,6
 551 412 551 412 551 209 c 0,7,8
 551 168 551 168 546 99 c 0,9,10
 540 19 540 19 539 -10 c 1,11,-1
 510 -10 l 1,12,13
 510 121 510 121 460 306 c 0,14,15
 413 481 413 481 350 608 c 0,16,17
 297 711 297 711 197 846 c 1,18,-1
 252 995 l 1,19,20
 388 821 388 821 508 821 c 0,21,22
 644 821 644 821 686 983 c 1,23,-1
 705 983 l 1,0,1
EndSplineSet
EndChar

StartChar: afii57395.001
Encoding: 1635 1635 417
Width: 946
Flags: W
LayerCount: 2
Fore
SplineSet
848 1001 m 1,0,1
 848 707 848 707 662 707 c 0,2,3
 588 707 588 707 539 774 c 1,4,5
 465 677 465 677 395 677 c 0,6,7
 379 677 379 677 362 682 c 1,8,9
 430 487 430 487 430 277 c 0,10,11
 430 206 430 206 406 0 c 1,12,-1
 379 0 l 1,13,14
 382 86 382 86 382 105 c 0,15,16
 382 309 382 309 316 480 c 0,17,18
 260 622 260 622 127 811 c 1,19,-1
 178 989 l 1,20,21
 284 829 284 829 387 829 c 0,22,23
 519 829 519 829 582 1001 c 1,24,-1
 594 1001 l 1,25,26
 612 866 612 866 711 866 c 0,27,28
 800 866 800 866 829 1001 c 1,29,-1
 848 1001 l 1,0,1
EndSplineSet
EndChar

StartChar: afii57396
Encoding: 1636 1636 418
Width: 946
Flags: W
LayerCount: 2
Fore
SplineSet
729 147 m 1,0,-1
 682 -6 l 1,1,2
 301 57 301 57 301 147 c 0,3,4
 301 234 301 234 369 332 c 0,5,6
 405 383 405 383 502 485 c 1,7,-1
 365 543 l 1,8,9
 274 590 274 590 274 640 c 0,10,11
 274 727 274 727 391 849 c 0,12,13
 484 945 484 945 588 1008 c 1,14,-1
 547 854 l 1,15,16
 399 793 399 793 399 750 c 0,17,18
 399 737 399 737 518 675 c 128,-1,19
 637 613 637 613 637 584 c 0,20,21
 637 562 637 562 518 432.5 c 128,-1,22
 399 303 399 303 399 274 c 0,23,24
 399 220 399 220 729 147 c 1,0,-1
EndSplineSet
EndChar

StartChar: afii57397
Encoding: 1637 1637 419
Width: 946
Flags: W
LayerCount: 2
Fore
SplineSet
754 535 m 0,0,1
 754 473 754 473 718 393 c 0,2,3
 631 201 631 201 428 201 c 0,4,5
 340 201 340 201 276 242 c 0,6,7
 201 290 201 290 201 373 c 0,8,9
 201 480 201 480 279 629 c 0,10,11
 367 797 367 797 461 797 c 0,12,13
 559 797 559 797 655 716 c 0,14,15
 754 631 754 631 754 535 c 0,0,1
688 428 m 0,16,17
 688 495 688 495 576 580 c 0,18,19
 469 662 469 662 397 662 c 0,20,21
 348 662 348 662 307 590 c 0,22,23
 270 525 270 525 270 471 c 0,24,25
 270 410 270 410 369 378 c 0,26,27
 442 354 442 354 520 354 c 0,28,29
 688 354 688 354 688 428 c 0,16,17
EndSplineSet
EndChar

StartChar: afii57398
Encoding: 1638 1638 420
Width: 946
Flags: W
LayerCount: 2
Fore
SplineSet
760 213 m 1,0,-1
 743 18 l 1,1,2
 606 47 606 47 590 252 c 0,3,4
 575 453 575 453 571 735 c 1,5,6
 454 705 454 705 392 705 c 0,7,8
 256 705 256 705 220 748 c 0,9,10
 190 784 190 784 190 914 c 0,11,12
 190 960 190 960 195 975 c 1,13,-1
 215 975 l 1,14,15
 268 877 268 877 434 877 c 0,16,17
 520 877 520 877 643 915 c 1,18,19
 612 790 612 790 612 680 c 0,20,21
 612 386 612 386 707 257 c 0,22,23
 711 251 711 251 760 213 c 1,0,-1
EndSplineSet
EndChar

StartChar: afii57399.001
Encoding: 1639 1639 421
Width: 946
Flags: W
LayerCount: 2
Fore
SplineSet
827 762 m 1,0,1
 614 639 614 639 516 12 c 1,2,-1
 483 12 l 1,3,4
 458 218 458 218 376 417 c 0,5,6
 272 670 272 670 133 737 c 1,7,-1
 147 971 l 1,8,9
 277 917 277 917 382 628 c 0,10,11
 428 503 428 503 502 201 c 1,12,13
 640 878 640 878 827 977 c 1,14,-1
 827 762 l 1,0,1
EndSplineSet
EndChar

StartChar: afii57400.001
Encoding: 1640 1640 422
Width: 946
Flags: W
LayerCount: 2
Fore
SplineSet
827 241 m 1,0,-1
 813 7 l 1,1,2
 683 61 683 61 578 350 c 0,3,4
 532 475 532 475 458 777 c 1,5,6
 320 100 320 100 133 1 c 1,7,-1
 133 216 l 1,8,9
 352 342 352 342 444 966 c 1,10,-1
 477 966 l 1,11,12
 502 763 502 763 585 562 c 0,13,14
 690 309 690 309 827 241 c 1,0,-1
EndSplineSet
EndChar

StartChar: afii57401.001
Encoding: 1641 1641 423
Width: 946
Flags: W
LayerCount: 2
Fore
SplineSet
756 188 m 1,0,-1
 729 -35 l 1,1,2
 626 9 626 9 594 227 c 0,3,4
 578 331 578 331 578 547 c 1,5,6
 486 461 486 461 385 461 c 0,7,8
 308 461 308 461 263.5 508.5 c 128,-1,9
 219 556 219 556 219 633 c 0,10,11
 219 695 219 695 259 793.5 c 128,-1,12
 299 892 299 892 343 936 c 0,13,14
 393 987 393 987 465 987 c 0,15,16
 581 987 581 987 611 807 c 1,17,18
 624 629 624 629 638 450 c 1,19,20
 660 239 660 239 756 188 c 1,0,-1
557 674 m 1,21,22
 534 817 534 817 416 817 c 0,23,24
 366 817 366 817 323 795 c 0,25,26
 270 768 270 768 270 723 c 256,27,28
 270 678 270 678 323 649 c 0,29,30
 368 625 368 625 418 625 c 0,31,32
 482 625 482 625 557 674 c 1,21,22
EndSplineSet
EndChar

StartChar: guillemotleft
Encoding: 171 171 424
Width: 854
Flags: W
LayerCount: 2
Fore
SplineSet
804 129 m 1,0,-1
 711 129 l 1,1,-1
 371 529 l 1,2,-1
 711 922 l 1,3,-1
 798 922 l 1,4,-1
 572 529 l 1,5,-1
 804 129 l 1,0,-1
497 129 m 1,6,-1
 408 129 l 1,7,-1
 70 529 l 1,8,-1
 410 922 l 1,9,-1
 497 922 l 1,10,-1
 271 529 l 1,11,-1
 497 129 l 1,6,-1
EndSplineSet
EndChar

StartChar: guillemotright
Encoding: 187 187 425
Width: 854
Flags: W
LayerCount: 2
Fore
SplineSet
784 529 m 1,0,-1
 446 129 l 1,1,-1
 357 129 l 1,2,-1
 583 529 l 1,3,-1
 357 922 l 1,4,-1
 444 922 l 1,5,-1
 784 529 l 1,0,-1
483 529 m 1,6,-1
 143 129 l 1,7,-1
 50 129 l 1,8,-1
 282 529 l 1,9,-1
 56 922 l 1,10,-1
 143 922 l 1,11,-1
 483 529 l 1,6,-1
EndSplineSet
EndChar

StartChar: quoteleft
Encoding: 8216 8216 426
Width: 425
Flags: W
LayerCount: 2
Fore
SplineSet
121 993 m 0,0,1
 122 1058 122 1058 166 1121.5 c 128,-1,2
 210 1185 210 1185 265 1211 c 1,3,-1
 296 1153 l 1,4,5
 280 1144 280 1144 258 1120 c 128,-1,6
 236 1096 236 1096 226 1058 c 1,7,8
 292 1030 292 1030 289 975 c 0,9,10
 289 959 289 959 282.5 944.5 c 128,-1,11
 276 930 276 930 265 919 c 128,-1,12
 254 908 254 908 239 901.5 c 128,-1,13
 224 895 224 895 208 895 c 0,14,15
 188 895 188 895 171.5 903.5 c 128,-1,16
 155 912 155 912 144 925.5 c 128,-1,17
 133 939 133 939 127 957 c 128,-1,18
 121 975 121 975 121 993 c 0,0,1
EndSplineSet
EndChar

StartChar: quoteright
Encoding: 8217 8217 427
Width: 372
Flags: W
LayerCount: 2
Fore
SplineSet
311 1113 m 0,0,1
 310 1048 310 1048 266 984.5 c 128,-1,2
 222 921 222 921 167 895 c 1,3,-1
 136 953 l 1,4,5
 152 962 152 962 174 986 c 128,-1,6
 196 1010 196 1010 206 1048 c 1,7,8
 140 1076 140 1076 143 1131 c 0,9,10
 143 1147 143 1147 149.5 1161.5 c 128,-1,11
 156 1176 156 1176 167 1187 c 128,-1,12
 178 1198 178 1198 192.5 1204.5 c 128,-1,13
 207 1211 207 1211 224 1211 c 0,14,15
 244 1211 244 1211 260 1202.5 c 128,-1,16
 276 1194 276 1194 287.5 1180.5 c 128,-1,17
 299 1167 299 1167 305 1149 c 128,-1,18
 311 1131 311 1131 311 1113 c 0,0,1
EndSplineSet
EndChar

StartChar: afii57451
Encoding: 1611 1611 428
Width: 0
GlyphClass: 4
Flags: W
AnchorPoint: "Anchor-2" 0 0 mark 0
AnchorPoint: "Anchor-0" 0 0 mark 0
LayerCount: 2
Fore
SplineSet
273 326 m 1,0,1
 232 313 232 313 80 237 c 1,2,3
 -105 150 -105 150 -159 150 c 2,4,-1
 -279 150 l 1,5,6
 91 326 91 326 152 326 c 2,7,-1
 273 326 l 1,0,1
273 176 m 1,8,9
 232 163 232 163 80 87 c 1,10,11
 -105 0 -105 0 -159 0 c 2,12,-1
 -279 0 l 1,13,14
 91 176 91 176 152 176 c 2,15,-1
 273 176 l 1,8,9
EndSplineSet
EndChar

StartChar: afii57454
Encoding: 1614 1614 429
Width: 0
GlyphClass: 4
Flags: W
AnchorPoint: "Anchor-2" 0 0 mark 0
AnchorPoint: "Anchor-0" 0 0 mark 0
LayerCount: 2
Fore
SplineSet
273 176 m 1,0,1
 232 163 232 163 80 87 c 1,2,3
 -105 0 -105 0 -159 0 c 2,4,-1
 -279 0 l 1,5,6
 91 176 91 176 152 176 c 2,7,-1
 273 176 l 1,0,1
EndSplineSet
EndChar

StartChar: afii57455
Encoding: 1615 1615 430
Width: 0
GlyphClass: 4
Flags: W
AnchorPoint: "Anchor-2" 0 0 mark 0
AnchorPoint: "Anchor-0" 0 0 mark 0
LayerCount: 2
Fore
SplineSet
179 225 m 0,0,1
 179 171 179 171 90 132 c 1,2,-1
 160 69 l 1,3,-1
 107 69 l 2,4,5
 68 69 68 69 23 101 c 1,6,7
 -170 1 -170 1 -240 1 c 2,8,-1
 -350 1 l 1,9,10
 -220 50 -220 50 -42 149 c 1,11,12
 -116 217 -116 217 -116 257 c 0,13,14
 -116 306 -116 306 -38 368 c 0,15,16
 -8 392 -8 392 74 451 c 1,17,18
 74 426 74 426 126.5 338.5 c 128,-1,19
 179 251 179 251 179 225 c 0,0,1
96 237 m 0,20,21
 96 305 96 305 29 305 c 0,22,23
 -32 305 -32 305 -32 255 c 0,24,25
 -32 237 -32 237 33 185 c 1,26,27
 96 222 96 222 96 237 c 0,20,21
EndSplineSet
EndChar

StartChar: afii57452
Encoding: 1612 1612 431
Width: 0
GlyphClass: 4
Flags: W
AnchorPoint: "Anchor-2" 0 0 mark 0
AnchorPoint: "Anchor-0" 0 0 mark 0
LayerCount: 2
Fore
SplineSet
209 227 m 0,0,1
 209 173 209 173 120 133 c 1,2,-1
 190 71 l 1,3,-1
 137 71 l 2,4,5
 98 71 98 71 54 101 c 1,6,7
 -122 2 -122 2 -201 2 c 1,8,-1
 -201 102 l 1,9,10
 -256 78 -256 78 -319 78 c 2,11,-1
 -398 78 l 1,12,13
 -277 131 -277 131 -117 216 c 1,14,-1
 -117 101 l 1,15,16
 -79 115 -79 115 -9 149 c 1,17,18
 -86 217 -86 217 -86 258 c 0,19,20
 -86 307 -86 307 -8 369 c 0,21,22
 22 393 22 393 104 452 c 1,23,24
 104 427 104 427 156.5 339.5 c 128,-1,25
 209 252 209 252 209 227 c 0,0,1
126 239 m 0,26,27
 126 306 126 306 59 306 c 0,28,29
 -2 306 -2 306 -2 257 c 0,30,31
 -2 239 -2 239 63 186 c 1,32,33
 126 223 126 223 126 239 c 0,26,27
EndSplineSet
EndChar

StartChar: afii57456
Encoding: 1616 1616 432
Width: 0
GlyphClass: 4
Flags: W
AnchorPoint: "Anchor-3" 0 0 mark 0
AnchorPoint: "Anchor-1" 0 0 mark 0
LayerCount: 2
Fore
SplineSet
273 176 m 1,0,1
 232 163 232 163 80 87 c 1,2,3
 -105 0 -105 0 -159 0 c 2,4,-1
 -279 0 l 1,5,6
 91 176 91 176 152 176 c 2,7,-1
 273 176 l 1,0,1
EndSplineSet
EndChar

StartChar: afii57457
Encoding: 1617 1617 433
Width: 0
GlyphClass: 4
Flags: W
AnchorPoint: "Anchor-2" 0 0 mark 0
AnchorPoint: "Anchor-0" 0 0 mark 0
LayerCount: 2
Fore
SplineSet
253 98 m 1,0,1
 204 96 204 96 23 44 c 0,2,3
 -146 -4 -146 -4 -170 0 c 0,4,5
 -210 8 -210 8 -253 89 c 0,6,7
 -260 102 -260 102 -313 210 c 1,8,-1
 -244 197 l 2,9,10
 -217 192 -217 192 -178.5 145.5 c 128,-1,11
 -140 99 -140 99 -133 97 c 0,12,13
 -76 86 -76 86 -67 132 c 0,14,15
 -53 210 -53 210 -119 271 c 1,16,-1
 -48 257 l 2,17,18
 -19 252 -19 252 11 194 c 128,-1,19
 41 136 41 136 47 135 c 0,20,21
 100 125 100 125 111 181 c 0,22,23
 123 243 123 243 68 287 c 1,24,25
 130 280 130 280 136 279 c 0,26,27
 182 270 182 270 205 204 c 0,28,29
 235 117 235 117 253 98 c 1,0,1
EndSplineSet
EndChar

StartChar: afii57458
Encoding: 1618 1618 434
Width: 0
GlyphClass: 4
Flags: W
AnchorPoint: "Anchor-2" 0 0 mark 0
AnchorPoint: "Anchor-0" 0 0 mark 0
LayerCount: 2
Fore
SplineSet
152 136 m 0,0,1
 152 76 152 76 106 36 c 128,-1,2
 60 -4 60 -4 -1 -4 c 0,3,4
 -59 -4 -59 -4 -105 31 c 0,5,6
 -155 68 -155 68 -155 124 c 0,7,8
 -155 182 -155 182 -84 259 c 0,9,10
 -70 274 -70 274 23 367 c 1,11,12
 23 327 23 327 87.5 248 c 128,-1,13
 152 169 152 169 152 136 c 0,0,1
73 127 m 0,14,15
 73 157 73 157 -6 240 c 1,16,17
 -76 163 -76 163 -76 136 c 0,18,19
 -76 69 -76 69 -4 69 c 0,20,21
 21 69 21 69 47 86 c 128,-1,22
 73 103 73 103 73 127 c 0,14,15
EndSplineSet
EndChar

StartChar: exclam
Encoding: 33 33 437
Width: 345
GlyphClass: 2
Flags: W
LayerCount: 2
Fore
SplineSet
109 87 m 0,0,1
 109 97 109 97 142.5 136.5 c 128,-1,2
 176 176 176 176 185 176 c 0,3,4
 199 176 199 176 236 139 c 128,-1,5
 273 102 273 102 277 87 c 1,6,7
 233 13 233 13 202 0 c 0,8,9
 193 0 193 0 151 39.5 c 128,-1,10
 109 79 109 79 109 87 c 0,0,1
192 279 m 1,11,12
 130 467 130 467 130 696 c 0,13,14
 132 950 132 950 151 1047 c 1,15,16
 203 1039 203 1039 281 1013 c 1,17,18
 225 659 225 659 192 279 c 1,11,12
EndSplineSet
EndChar

StartChar: afii64060
Encoding: 64830 64830 438
Width: 576
GlyphClass: 2
Flags: W
LayerCount: 2
Fore
SplineSet
502 932 m 0,0,1
 299 643 299 643 299 408 c 0,2,3
 299 214 299 214 402 26 c 0,4,5
 418 -4 418 -4 459 -64.5 c 128,-1,6
 500 -125 500 -125 568 -216 c 0,7,8
 574 -224 574 -224 574 -233 c 0,9,10
 574 -256 574 -256 543 -256 c 0,11,12
 508 -256 508 -256 419 -168 c 0,13,14
 309 -61 309 -61 241 65 c 0,15,16
 149 235 149 235 149 403 c 0,17,18
 149 595 149 595 259 774 c 0,19,20
 360 938 360 938 538 1055 c 0,21,22
 547 1061 547 1061 554 1061 c 0,23,24
 573 1061 573 1061 573 1036 c 1,25,26
 563 1019 563 1019 502 932 c 0,0,1
EndSplineSet
EndChar

StartChar: afii64061
Encoding: 64831 64831 439
Width: 576
GlyphClass: 2
Flags: W
LayerCount: 2
Fore
SplineSet
221 932 m 0,0,1
 160 1019 160 1019 150 1036 c 1,2,3
 150 1061 150 1061 169 1061 c 0,4,5
 176 1061 176 1061 185 1055 c 0,6,7
 363 938 363 938 464 774 c 0,8,9
 574 595 574 595 574 403 c 0,10,11
 574 235 574 235 482 65 c 0,12,13
 414 -61 414 -61 304 -168 c 0,14,15
 215 -256 215 -256 180 -256 c 0,16,17
 149 -256 149 -256 149 -233 c 0,18,19
 149 -224 149 -224 155 -216 c 0,20,21
 223 -125 223 -125 264 -64.5 c 128,-1,22
 305 -4 305 -4 321 26 c 0,23,24
 424 214 424 214 424 408 c 0,25,26
 424 643 424 643 221 932 c 0,0,1
EndSplineSet
EndChar

StartChar: afii62821
Encoding: 65252 65252 440
Width: 725
GlyphClass: 2
Flags: W
AnchorPoint: "Anchor-1" 345 -480 basechar 0
AnchorPoint: "Anchor-0" 360 735 basechar 0
LayerCount: 2
Fore
SplineSet
549 49 m 1,0,1
 533 49 533 49 439 -22 c 1,2,-1
 422 -25 l 1,3,4
 391 -25 391 -25 322 13 c 2,5,-1
 226 67 l 1,6,7
 156 3 156 3 -31 0 c 1,8,-1
 -31 140 l 1,9,10
 55 140 55 140 91 142 c 0,11,12
 162 144 162 144 181 160 c 1,13,14
 205 242 205 242 247 316 c 0,15,16
 306 418 306 418 364 418 c 0,17,18
 427 418 427 418 493 312 c 0,19,20
 499 302 499 302 572 167 c 1,21,22
 604 143 604 143 694 140 c 2,23,-1
 770 140 l 1,24,-1
 770 0 l 1,25,-1
 670 0 l 1,26,27
 606 6 606 6 551 48 c 1,28,-1
 549 49 l 1,0,1
399 302 m 1,29,30
 363 302 363 302 332.5 259 c 128,-1,31
 302 216 302 216 291 181 c 1,32,33
 353 130 353 130 433 134 c 0,34,35
 451 134 451 134 464 140 c 1,36,37
 411 296 411 296 399 302 c 1,29,30
EndSplineSet
EndChar

StartChar: uni25CC
Encoding: 9676 9676 441
Width: 911
Flags: W
AnchorPoint: "Anchor-1" 495 -390 basechar 0
AnchorPoint: "Anchor-0" 465 930 basechar 0
LayerCount: 2
Fore
SplineSet
771 629 m 256,0,1
 771 592 771 592 734 592 c 0,2,3
 695 592 695 592 695 629 c 256,4,5
 695 666 695 666 734 666 c 0,6,7
 771 666 771 666 771 629 c 256,0,1
658 703 m 0,8,9
 658 666 658 666 621 666 c 0,10,11
 582 666 582 666 582 703 c 0,12,13
 582 742 582 742 621 742 c 0,14,15
 658 742 658 742 658 703 c 0,8,9
847 516 m 0,16,17
 847 477 847 477 808 477 c 0,18,19
 771 477 771 477 771 516 c 0,20,21
 771 553 771 553 810 553 c 0,22,23
 847 553 847 553 847 516 c 0,16,17
873 384 m 256,24,25
 873 347 873 347 836 347 c 0,26,27
 797 347 797 347 797 384 c 256,28,29
 797 421 797 421 836 421 c 0,30,31
 873 421 873 421 873 384 c 256,24,25
525 731 m 0,32,33
 525 692 525 692 488 692 c 256,34,35
 451 692 451 692 451 731 c 0,36,37
 451 768 451 768 488 768 c 256,38,39
 525 768 525 768 525 731 c 0,32,33
847 251 m 0,40,41
 847 214 847 214 808 214 c 0,42,43
 771 214 771 214 771 251 c 0,44,45
 771 290 771 290 808 290 c 0,46,47
 847 290 847 290 847 251 c 0,40,41
394 703 m 0,48,49
 394 666 394 666 356 666 c 0,50,51
 319 666 319 666 319 703 c 0,52,53
 319 742 319 742 356 742 c 0,54,55
 394 742 394 742 394 703 c 0,48,49
282 629 m 256,56,57
 282 592 282 592 243 592 c 0,58,59
 206 592 206 592 206 627 c 0,60,61
 206 666 206 666 243 666 c 0,62,63
 282 666 282 666 282 629 c 256,56,57
771 138 m 0,64,65
 771 101 771 101 734 101 c 256,66,67
 697 101 697 101 697 138 c 0,68,69
 697 177 697 177 734 177 c 256,70,71
 771 177 771 177 771 138 c 0,64,65
658 64 m 0,72,73
 658 27 658 27 621 27 c 256,74,75
 584 27 584 27 584 64 c 0,76,77
 584 103 584 103 621 103 c 256,78,79
 658 103 658 103 658 64 c 0,72,73
206 516 m 0,80,81
 206 477 206 477 171 477 c 0,82,83
 132 477 132 477 132 516 c 0,84,85
 132 553 132 553 169 553 c 256,86,87
 206 553 206 553 206 516 c 0,80,81
180 384 m 256,88,89
 180 347 180 347 143 347 c 0,90,91
 104 347 104 347 104 384 c 256,92,93
 104 421 104 421 143 421 c 0,94,95
 180 421 180 421 180 384 c 256,88,89
525 38 m 0,96,97
 525 -1 525 -1 488 -1 c 256,98,99
 451 -1 451 -1 451 38 c 0,100,101
 451 75 451 75 488 75 c 256,102,103
 525 75 525 75 525 38 c 0,96,97
394 66 m 0,104,105
 394 27 394 27 356 27 c 0,106,107
 319 27 319 27 319 64 c 0,108,109
 319 103 319 103 356 103 c 0,110,111
 394 103 394 103 394 66 c 0,104,105
206 251 m 0,112,113
 206 214 206 214 169 214 c 256,114,115
 132 214 132 214 132 251 c 0,116,117
 132 290 132 290 169 290 c 256,118,119
 206 290 206 290 206 251 c 0,112,113
282 138 m 0,120,121
 282 101 282 101 245 101 c 0,122,123
 206 101 206 101 206 138 c 0,124,125
 206 177 206 177 243 177 c 0,126,127
 282 177 282 177 282 138 c 0,120,121
EndSplineSet
EndChar

StartChar: afii62819
Encoding: 65246 65246 442
Width: 1162
GlyphClass: 2
Flags: W
AnchorPoint: "Anchor-1" 465 -1005 basechar 0
AnchorPoint: "Anchor-0" 615 1245 basechar 0
LayerCount: 2
Fore
SplineSet
159 -138 m 0,0,1
 159 -364 159 -364 438 -364 c 0,2,3
 559 -364 559 -364 680 -316 c 0,4,5
 812 -264 812 -264 882 -176 c 1,6,-1
 742 1122 l 1,7,-1
 820 1241 l 1,8,9
 854 925 854 925 895 592 c 2,10,-1
 939 228 l 2,11,12
 948 158 948 158 1191 140 c 1,13,-1
 1191 0 l 1,14,-1
 1149 0 l 2,15,16
 1141 -1 1141 -1 1137 -1 c 0,17,18
 1003 -1 1003 -1 956 48 c 1,19,20
 942 5 942 5 930 -137 c 0,21,22
 920 -262 920 -262 889 -335 c 0,23,24
 874 -368 874 -368 747 -427 c 0,25,26
 570 -509 570 -509 468 -509 c 0,27,28
 442 -509 442 -509 394 -506 c 0,29,30
 276 -500 276 -500 186 -407 c 128,-1,31
 96 -314 96 -314 96 -196 c 0,32,33
 96 -59 96 -59 270 163 c 1,34,35
 159 -6 159 -6 159 -138 c 0,0,1
EndSplineSet
EndChar

StartChar: braceright
Encoding: 125 125 445
Width: 836
GlyphClass: 2
Flags: W
LayerCount: 2
Fore
SplineSet
226 1184 m 1,0,1
 270 1183 270 1183 301.5 1180.5 c 128,-1,2
 333 1178 333 1178 357 1173 c 128,-1,3
 381 1168 381 1168 400 1160 c 128,-1,4
 419 1152 419 1152 437 1140 c 0,5,6
 473 1117 473 1117 493 1066 c 128,-1,7
 513 1015 513 1015 513 940 c 2,8,-1
 513 632 l 2,9,10
 513 586 513 586 519.5 554.5 c 128,-1,11
 526 523 526 523 543 501 c 128,-1,12
 560 479 560 479 588.5 463.5 c 128,-1,13
 617 448 617 448 661 435 c 1,14,15
 617 421 617 421 588.5 405.5 c 128,-1,16
 560 390 560 390 543 368 c 128,-1,17
 526 346 526 346 519.5 314.5 c 128,-1,18
 513 283 513 283 513 237 c 2,19,-1
 513 -73 l 2,20,21
 513 -225 513 -225 437 -271 c 0,22,23
 418 -283 418 -283 399 -291 c 128,-1,24
 380 -299 380 -299 356 -304.5 c 128,-1,25
 332 -310 332 -310 300.5 -312.5 c 128,-1,26
 269 -315 269 -315 226 -315 c 1,27,-1
 226 -296 l 1,28,29
 271 -284 271 -284 301.5 -267.5 c 128,-1,30
 332 -251 332 -251 350.5 -226 c 128,-1,31
 369 -201 369 -201 377 -166 c 128,-1,32
 385 -131 385 -131 385 -82 c 2,33,-1
 385 211 l 2,34,35
 385 265 385 265 392 302 c 128,-1,36
 399 339 399 339 417.5 364 c 128,-1,37
 436 389 436 389 467.5 405.5 c 128,-1,38
 499 422 499 422 548 435 c 1,39,40
 499 447 499 447 467.5 463 c 128,-1,41
 436 479 436 479 417.5 504 c 128,-1,42
 399 529 399 529 392 566 c 128,-1,43
 385 603 385 603 385 658 c 2,44,-1
 385 950 l 2,45,46
 385 999 385 999 377 1034.5 c 128,-1,47
 369 1070 369 1070 350.5 1094.5 c 128,-1,48
 332 1119 332 1119 301.5 1135.5 c 128,-1,49
 271 1152 271 1152 226 1164 c 1,50,-1
 226 1184 l 1,0,1
EndSplineSet
EndChar

StartChar: uni0656
Encoding: 1622 1622 452
Width: 0
GlyphClass: 4
Flags: W
AnchorPoint: "Anchor-3" 0 0 mark 0
AnchorPoint: "Anchor-1" 0 0 mark 0
LayerCount: 2
Fore
SplineSet
17 22 m 1,0,-1
 -13 -1 l 1,1,2
 -11 104 -11 104 -21 148 c 0,3,4
 -34 211 -34 211 -82 285 c 1,5,-1
 -60 422 l 1,6,7
 24 362 24 362 35 236 c 0,8,9
 41 162 41 162 17 22 c 1,0,-1
EndSplineSet
EndChar

StartChar: E005
Encoding: 65578 -1 470
Width: 476
GlyphClass: 3
Flags: W
LayerCount: 2
Fore
SplineSet
-43 0 m 1,0,-1
 -43 207 l 1,1,-1
 581 207 l 1,2,-1
 581 0 l 1,3,-1
 -43 0 l 1,0,-1
EndSplineSet
EndChar

StartChar: afii57470
Encoding: 1726 1726 480
Width: 785
Flags: W
AnchorPoint: "Anchor-1" 315 -570 basechar 0
AnchorPoint: "Anchor-0" 345 975 basechar 0
LayerCount: 2
Fore
SplineSet
221 160 m 1,0,1
 140 234 140 234 140 257 c 0,2,3
 140 329 140 329 214 384 c 0,4,5
 281 436 281 436 355 436 c 0,6,7
 368 436 368 436 380 433 c 1,8,9
 258 487 258 487 211 487 c 1,10,-1
 302 625 l 1,11,12
 485 566 485 566 607 454 c 0,13,14
 756 317 756 317 756 150 c 0,15,16
 756 4 756 4 632 -76 c 1,17,-1
 631 -76 l 2,18,19
 617 -76 617 -76 515 -24 c 0,20,21
 403 32 403 32 380 41 c 1,22,23
 341 -7 341 -7 89 -2 c 0,24,25
 59 -2 59 -2 -36 0 c 1,26,-1
 -36 140 l 1,27,28
 17 138 17 138 28 138 c 2,29,-1
 139 138 l 2,30,31
 191 138 191 138 205 144 c 1,32,-1
 221 160 l 1,0,1
499 364 m 1,33,34
 420 397 420 397 364 397 c 0,35,36
 326 397 326 397 290 378 c 0,37,38
 247 355 247 355 247 322 c 0,39,40
 247 307 247 307 314.5 258 c 128,-1,41
 382 209 382 209 400 209 c 0,42,43
 460 209 460 209 499 364 c 1,33,34
558 337 m 1,44,45
 538 278 538 278 480 169 c 1,46,47
 528 127 528 127 677 34 c 1,48,49
 691 62 691 62 691 96 c 0,50,51
 691 160 691 160 650 230 c 0,52,53
 612 298 612 298 558 337 c 1,44,45
EndSplineSet
Substitution2: "'medi' Medial Forms in Arabic lookup 3 subtable" afii62827
Substitution2: "'fina' Terminal Forms in Arabic lookup 2 subtable" afii62827
Substitution2: "'init' Initial Forms in Arabic lookup 1 subtable" afii57470
EndChar

StartChar: at
Encoding: 64 64 489
Width: 1603
Flags: W
LayerCount: 2
Fore
SplineSet
1219 75 m 1,0,1
 1156 46 1156 46 1106 27 c 128,-1,2
 1056 8 1056 8 1012.5 -3.5 c 128,-1,3
 969 -15 969 -15 928 -20 c 128,-1,4
 887 -25 887 -25 841 -25 c 0,5,6
 706 -25 706 -25 589 20.5 c 128,-1,7
 472 66 472 66 386 146 c 128,-1,8
 300 226 300 226 251 334 c 128,-1,9
 202 442 202 442 202 568 c 0,10,11
 202 695 202 695 251.5 806 c 128,-1,12
 301 917 301 917 387 999 c 128,-1,13
 473 1081 473 1081 589 1128.5 c 128,-1,14
 705 1176 705 1176 837 1176 c 0,15,16
 958 1176 958 1176 1062 1137 c 128,-1,17
 1166 1098 1166 1098 1243 1029 c 128,-1,18
 1320 960 1320 960 1364 867 c 128,-1,19
 1408 774 1408 774 1408 666 c 0,20,21
 1408 582 1408 582 1382.5 506.5 c 128,-1,22
 1357 431 1357 431 1313 373.5 c 128,-1,23
 1269 316 1269 316 1211 282.5 c 128,-1,24
 1153 249 1153 249 1088 249 c 0,25,26
 1025 249 1025 249 981.5 283.5 c 128,-1,27
 938 318 938 318 930 376 c 1,28,29
 885 316 885 316 827.5 283.5 c 128,-1,30
 770 251 770 251 712 251 c 0,31,32
 680 251 680 251 652 266 c 128,-1,33
 624 281 624 281 603 307 c 128,-1,34
 582 333 582 333 570 368.5 c 128,-1,35
 558 404 558 404 558 445 c 0,36,37
 558 520 558 520 584 598 c 128,-1,38
 610 676 610 676 656 739.5 c 128,-1,39
 702 803 702 803 764.5 843.5 c 128,-1,40
 827 884 827 884 900 884 c 0,41,42
 922 884 922 884 939 880 c 128,-1,43
 956 876 956 876 970.5 865.5 c 128,-1,44
 985 855 985 855 998 838 c 128,-1,45
 1011 821 1011 821 1025 794 c 1,46,-1
 1043 860 l 1,47,-1
 1163 860 l 1,48,-1
 1050 418 l 2,49,50
 1046 405 1046 405 1046 387 c 0,51,52
 1046 306 1046 306 1114 306 c 0,53,54
 1157 306 1157 306 1197.5 335 c 128,-1,55
 1238 364 1238 364 1269.5 412 c 128,-1,56
 1301 460 1301 460 1320 522 c 128,-1,57
 1339 584 1339 584 1339 649 c 0,58,59
 1339 746 1339 746 1299.5 832.5 c 128,-1,60
 1260 919 1260 919 1192 983.5 c 128,-1,61
 1124 1048 1124 1048 1033 1085.5 c 128,-1,62
 942 1123 942 1123 839 1123 c 0,63,64
 742 1123 742 1123 658 1089.5 c 128,-1,65
 574 1056 574 1056 510 990 c 0,66,67
 473 951 473 951 443 902 c 128,-1,68
 413 853 413 853 392 798 c 128,-1,69
 371 743 371 743 359.5 683 c 128,-1,70
 348 623 348 623 348 563 c 0,71,72
 348 449 348 449 386 353.5 c 128,-1,73
 424 258 424 258 491.5 189 c 128,-1,74
 559 120 559 120 652.5 81.5 c 128,-1,75
 746 43 746 43 857 43 c 0,76,77
 900 43 900 43 940 47.5 c 128,-1,78
 980 52 980 52 1020 62 c 128,-1,79
 1060 72 1060 72 1103.5 88 c 128,-1,80
 1147 104 1147 104 1198 127 c 1,81,-1
 1219 75 l 1,0,1
924 807 m 2,82,-1
 917 807 l 2,83,84
 885 807 885 807 846.5 784 c 128,-1,85
 808 761 808 761 773 721 c 0,86,87
 683 619 683 619 683 473 c 0,88,89
 683 404 683 404 710.5 365 c 128,-1,90
 738 326 738 326 787 326 c 0,91,92
 817 326 817 326 844.5 344.5 c 128,-1,93
 872 363 872 363 895 394 c 128,-1,94
 918 425 918 425 936.5 465 c 128,-1,95
 955 505 955 505 968 547.5 c 128,-1,96
 981 590 981 590 988 632.5 c 128,-1,97
 995 675 995 675 995 710 c 0,98,99
 995 755 995 755 976.5 780 c 128,-1,100
 958 805 958 805 924 807 c 2,82,-1
EndSplineSet
EndChar

StartChar: A
Encoding: 65 65 490
Width: 1257
Flags: W
LayerCount: 2
Fore
SplineSet
1229 0 m 1,0,-1
 785 0 l 1,1,-1
 785 33 l 1,2,3
 819 34 819 34 842.5 37 c 128,-1,4
 866 40 866 40 880.5 47 c 128,-1,5
 895 54 895 54 901 65 c 128,-1,6
 907 76 907 76 907 93 c 256,7,8
 907 110 907 110 898.5 141.5 c 128,-1,9
 890 173 890 173 874 209 c 2,10,-1
 802 376 l 1,11,-1
 347 376 l 1,12,-1
 266 173 l 2,13,14
 260 156 260 156 256 138 c 128,-1,15
 252 120 252 120 252 105 c 0,16,17
 252 68 252 68 280 50.5 c 128,-1,18
 308 33 308 33 371 33 c 1,19,-1
 371 0 l 1,20,-1
 26 0 l 1,21,-1
 26 33 l 1,22,23
 57 34 57 34 79 43.5 c 128,-1,24
 101 53 101 53 123 82.5 c 128,-1,25
 145 112 145 112 172.5 168 c 128,-1,26
 200 224 200 224 242 319 c 2,27,-1
 604 1173 l 1,28,-1
 639 1173 l 1,29,-1
 1073 184 l 2,30,31
 1095 136 1095 136 1111.5 107 c 128,-1,32
 1128 78 1128 78 1144.5 62.5 c 128,-1,33
 1161 47 1161 47 1180.5 41 c 128,-1,34
 1200 35 1200 35 1229 33 c 1,35,-1
 1229 0 l 1,0,-1
778 447 m 1,36,-1
 576 926 l 1,37,-1
 376 447 l 1,38,-1
 778 447 l 1,36,-1
EndSplineSet
EndChar

StartChar: B
Encoding: 66 66 491
Width: 1161
Flags: W
LayerCount: 2
Fore
SplineSet
517 1153 m 2,0,1
 973 1153 973 1153 973 857 c 0,2,3
 973 803 973 803 954.5 757.5 c 128,-1,4
 936 712 936 712 904 683 c 0,5,6
 888 669 888 669 872.5 658 c 128,-1,7
 857 647 857 647 837.5 638.5 c 128,-1,8
 818 630 818 630 793 622 c 128,-1,9
 768 614 768 614 734 606 c 1,10,11
 776 595 776 595 807.5 585 c 128,-1,12
 839 575 839 575 863 564.5 c 128,-1,13
 887 554 887 554 907 541 c 128,-1,14
 927 528 927 528 947 510 c 0,15,16
 989 472 989 472 1010.5 421.5 c 128,-1,17
 1032 371 1032 371 1032 314 c 0,18,19
 1032 247 1032 247 1005.5 189.5 c 128,-1,20
 979 132 979 132 926.5 90 c 128,-1,21
 874 48 874 48 795 24 c 128,-1,22
 716 0 716 0 611 0 c 2,23,-1
 30 0 l 1,24,-1
 30 33 l 1,25,26
 84 35 84 35 116.5 41.5 c 128,-1,27
 149 48 149 48 167 65 c 128,-1,28
 185 82 185 82 190.5 112 c 128,-1,29
 196 142 196 142 196 190 c 2,30,-1
 196 963 l 2,31,32
 196 1011 196 1011 190.5 1040 c 128,-1,33
 185 1069 185 1069 167.5 1085.5 c 128,-1,34
 150 1102 150 1102 117.5 1109 c 128,-1,35
 85 1116 85 1116 30 1119 c 1,36,-1
 30 1153 l 1,37,-1
 517 1153 l 2,0,1
374 136 m 2,38,39
 374 115 374 115 379 101.5 c 128,-1,40
 384 88 384 88 397 79.5 c 128,-1,41
 410 71 410 71 431 68 c 128,-1,42
 452 65 452 65 484 65 c 0,43,44
 578 65 578 65 644.5 80.5 c 128,-1,45
 711 96 711 96 752.5 127 c 128,-1,46
 794 158 794 158 813 204 c 128,-1,47
 832 250 832 250 832 312 c 0,48,49
 832 396 832 396 796.5 448.5 c 128,-1,50
 761 501 761 501 686 533 c 0,51,52
 662 542 662 542 634 548.5 c 128,-1,53
 606 555 606 555 569.5 559.5 c 128,-1,54
 533 564 533 564 485.5 566 c 128,-1,55
 438 568 438 568 374 568 c 1,56,-1
 374 136 l 2,38,39
540 637 m 2,57,58
 665 637 665 637 730.5 691.5 c 128,-1,59
 796 746 796 746 796 849 c 0,60,61
 796 967 796 967 719 1027.5 c 128,-1,62
 642 1088 642 1088 489 1088 c 2,63,-1
 412 1088 l 2,64,65
 393 1088 393 1088 383.5 1076 c 128,-1,66
 374 1064 374 1064 374 1036 c 2,67,-1
 374 637 l 1,68,-1
 540 637 l 2,57,58
EndSplineSet
EndChar

StartChar: C
Encoding: 67 67 492
Width: 1161
Flags: W
LayerCount: 2
Fore
SplineSet
1040 784 m 1,0,1
 1027 826 1027 826 1015 857.5 c 128,-1,2
 1003 889 1003 889 990 914 c 128,-1,3
 977 939 977 939 961 959.5 c 128,-1,4
 945 980 945 980 924 1001 c 0,5,6
 817 1108 817 1108 665 1108 c 0,7,8
 570 1108 570 1108 493.5 1071 c 128,-1,9
 417 1034 417 1034 363 966.5 c 128,-1,10
 309 899 309 899 280 802.5 c 128,-1,11
 251 706 251 706 251 588 c 0,12,13
 251 456 251 456 281.5 355.5 c 128,-1,14
 312 255 312 255 368.5 187.5 c 128,-1,15
 425 120 425 120 505 86 c 128,-1,16
 585 52 585 52 683 52 c 0,17,18
 737 52 737 52 786 62 c 128,-1,19
 835 72 835 72 882 93.5 c 128,-1,20
 929 115 929 115 976 148 c 128,-1,21
 1023 181 1023 181 1071 228 c 1,22,-1
 1102 196 l 1,23,24
 1021 90 1021 90 899 32.5 c 128,-1,25
 777 -25 777 -25 626 -25 c 0,26,27
 503 -25 503 -25 397 16 c 128,-1,28
 291 57 291 57 213.5 133.5 c 128,-1,29
 136 210 136 210 92 319.5 c 128,-1,30
 48 429 48 429 48 566 c 0,31,32
 48 712 48 712 95.5 829 c 128,-1,33
 143 946 143 946 237 1027 c 0,34,35
 318 1099 318 1099 420 1137.5 c 128,-1,36
 522 1176 522 1176 632 1176 c 0,37,38
 695 1176 695 1176 758.5 1166 c 128,-1,39
 822 1156 822 1156 886 1135 c 0,40,41
 906 1127 906 1127 924 1123 c 128,-1,42
 942 1119 942 1119 954 1119 c 0,43,44
 980 1119 980 1119 999.5 1134 c 128,-1,45
 1019 1149 1019 1149 1027 1176 c 1,46,-1
 1063 1176 l 1,47,-1
 1063 784 l 1,48,-1
 1040 784 l 1,0,1
EndSplineSet
EndChar

StartChar: D
Encoding: 68 68 493
Width: 1257
Flags: W
LayerCount: 2
Fore
SplineSet
181 963 m 2,0,1
 181 1011 181 1011 176.5 1040 c 128,-1,2
 172 1069 172 1069 156 1085 c 128,-1,3
 140 1101 140 1101 110 1108 c 128,-1,4
 80 1115 80 1115 28 1119 c 1,5,-1
 28 1153 l 1,6,-1
 498 1153 l 2,7,8
 660 1153 660 1153 789 1114.5 c 128,-1,9
 918 1076 918 1076 1008 1002.5 c 128,-1,10
 1098 929 1098 929 1145.5 823 c 128,-1,11
 1193 717 1193 717 1193 581 c 0,12,13
 1193 452 1193 452 1149 345 c 128,-1,14
 1105 238 1105 238 1019.5 161.5 c 128,-1,15
 934 85 934 85 809 42.5 c 128,-1,16
 684 0 684 0 522 0 c 2,17,-1
 28 0 l 1,18,-1
 28 33 l 1,19,20
 77 36 77 36 107.5 43.5 c 128,-1,21
 138 51 138 51 154 68 c 128,-1,22
 170 85 170 85 175.5 114 c 128,-1,23
 181 143 181 143 181 190 c 2,24,-1
 181 963 l 2,0,1
359 136 m 2,25,26
 359 115 359 115 363 101.5 c 128,-1,27
 367 88 367 88 377.5 79.5 c 128,-1,28
 388 71 388 71 405.5 68 c 128,-1,29
 423 65 423 65 449 65 c 0,30,31
 506 65 506 65 554 69 c 128,-1,32
 602 73 602 73 643 81.5 c 128,-1,33
 684 90 684 90 720.5 103.5 c 128,-1,34
 757 117 757 117 790 136 c 0,35,36
 1003 259 1003 259 1003 569 c 0,37,38
 1003 856 1003 856 796 1001 c 0,39,40
 671 1088 671 1088 449 1088 c 0,41,42
 422 1088 422 1088 404.5 1085 c 128,-1,43
 387 1082 387 1082 377 1074.5 c 128,-1,44
 367 1067 367 1067 363 1053.5 c 128,-1,45
 359 1040 359 1040 359 1020 c 2,46,-1
 359 136 l 2,25,26
EndSplineSet
EndChar

StartChar: E
Encoding: 69 69 494
Width: 1063
Flags: W
LayerCount: 2
Fore
SplineSet
960 0 m 1,0,-1
 21 0 l 1,1,-1
 21 33 l 1,2,3
 69 36 69 36 98.5 43.5 c 128,-1,4
 128 51 128 51 144.5 68.5 c 128,-1,5
 161 86 161 86 167 115 c 128,-1,6
 173 144 173 144 173 190 c 2,7,-1
 173 963 l 2,8,9
 173 1009 173 1009 167.5 1037.5 c 128,-1,10
 162 1066 162 1066 145.5 1083 c 128,-1,11
 129 1100 129 1100 99 1107.5 c 128,-1,12
 69 1115 69 1115 21 1119 c 1,13,-1
 21 1153 l 1,14,-1
 945 1153 l 1,15,-1
 945 904 l 1,16,-1
 907 904 l 1,17,18
 896 962 896 962 881 998 c 128,-1,19
 866 1034 866 1034 837.5 1053.5 c 128,-1,20
 809 1073 809 1073 762.5 1079.5 c 128,-1,21
 716 1086 716 1086 643 1086 c 2,22,-1
 407 1086 l 2,23,24
 372 1086 372 1086 361 1074.5 c 128,-1,25
 350 1063 350 1063 350 1027 c 2,26,-1
 350 641 l 1,27,-1
 618 641 l 2,28,29
 738 641 738 641 771 684 c 0,30,31
 778 693 778 693 783 703.5 c 128,-1,32
 788 714 788 714 792 727.5 c 128,-1,33
 796 741 796 741 800 760 c 128,-1,34
 804 779 804 779 809 806 c 1,35,-1
 849 806 l 1,36,-1
 849 402 l 1,37,-1
 809 402 l 1,38,39
 801 456 801 456 790.5 489 c 128,-1,40
 780 522 780 522 759.5 540 c 128,-1,41
 739 558 739 558 705.5 563.5 c 128,-1,42
 672 569 672 569 618 569 c 2,43,-1
 350 569 l 1,44,-1
 350 139 l 2,45,46
 350 117 350 117 353 103 c 128,-1,47
 356 89 356 89 362 85 c 0,48,49
 366 80 366 80 381 76.5 c 128,-1,50
 396 73 396 73 419.5 70.5 c 128,-1,51
 443 68 443 68 472 66.5 c 128,-1,52
 501 65 501 65 533 65 c 2,53,-1
 580 65 l 2,54,55
 673 65 673 65 737 74.5 c 128,-1,56
 801 84 801 84 846.5 109 c 128,-1,57
 892 134 892 134 925 178.5 c 128,-1,58
 958 223 958 223 990 294 c 1,59,-1
 1040 294 l 1,60,-1
 960 0 l 1,0,-1
EndSplineSet
EndChar

StartChar: F
Encoding: 70 70 495
Width: 968
Flags: W
LayerCount: 2
Fore
SplineSet
794 402 m 1,0,1
 786 454 786 454 775 487 c 128,-1,2
 764 520 764 520 743 538 c 128,-1,3
 722 556 722 556 688.5 562.5 c 128,-1,4
 655 569 655 569 603 569 c 2,5,-1
 350 569 l 1,6,-1
 350 190 l 2,7,8
 350 143 350 143 356 113.5 c 128,-1,9
 362 84 362 84 379 67 c 128,-1,10
 396 50 396 50 427 43 c 128,-1,11
 458 36 458 36 508 33 c 1,12,-1
 508 0 l 1,13,-1
 21 0 l 1,14,-1
 21 33 l 1,15,16
 70 36 70 36 100 44 c 128,-1,17
 130 52 130 52 146.5 70.5 c 128,-1,18
 163 89 163 89 168 122 c 128,-1,19
 173 155 173 155 173 209 c 2,20,-1
 173 963 l 2,21,22
 173 1009 173 1009 167.5 1037.5 c 128,-1,23
 162 1066 162 1066 145.5 1083 c 128,-1,24
 129 1100 129 1100 99 1107.5 c 128,-1,25
 69 1115 69 1115 21 1119 c 1,26,-1
 21 1153 l 1,27,-1
 945 1153 l 1,28,-1
 945 904 l 1,29,-1
 907 904 l 1,30,31
 896 962 896 962 881 998 c 128,-1,32
 866 1034 866 1034 837.5 1053.5 c 128,-1,33
 809 1073 809 1073 762.5 1079.5 c 128,-1,34
 716 1086 716 1086 643 1086 c 2,35,-1
 405 1086 l 2,36,37
 388 1086 388 1086 377 1083.5 c 128,-1,38
 366 1081 366 1081 360 1074.5 c 128,-1,39
 354 1068 354 1068 352 1056.5 c 128,-1,40
 350 1045 350 1045 350 1027 c 2,41,-1
 350 641 l 1,42,-1
 603 641 l 2,43,44
 654 641 654 641 687.5 647 c 128,-1,45
 721 653 721 653 742 671 c 128,-1,46
 763 689 763 689 774.5 721 c 128,-1,47
 786 753 786 753 794 806 c 1,48,-1
 834 806 l 1,49,-1
 834 402 l 1,50,-1
 794 402 l 1,0,1
EndSplineSet
EndChar

StartChar: G
Encoding: 71 71 496
Width: 1257
Flags: W
LayerCount: 2
Fore
SplineSet
1234 585 m 1,0,1
 1196 582 1196 582 1172.5 575 c 128,-1,2
 1149 568 1149 568 1135.5 553 c 128,-1,3
 1122 538 1122 538 1117.5 513.5 c 128,-1,4
 1113 489 1113 489 1113 450 c 2,5,-1
 1113 98 l 1,6,7
 1087 75 1087 75 1036.5 53 c 128,-1,8
 986 31 986 31 924.5 13.5 c 128,-1,9
 863 -4 863 -4 797.5 -14.5 c 128,-1,10
 732 -25 732 -25 676 -25 c 0,11,12
 529 -25 529 -25 409 22.5 c 128,-1,13
 289 70 289 70 201 161 c 0,14,15
 126 239 126 239 91 337.5 c 128,-1,16
 56 436 56 436 56 566 c 0,17,18
 56 699 56 699 100 811 c 128,-1,19
 144 923 144 923 223.5 1004 c 128,-1,20
 303 1085 303 1085 412.5 1130.5 c 128,-1,21
 522 1176 522 1176 653 1176 c 0,22,23
 773 1176 773 1176 890 1136 c 0,24,25
 941 1119 941 1119 966 1119 c 0,26,27
 994 1119 994 1119 1015.5 1135.5 c 128,-1,28
 1037 1152 1037 1152 1045 1176 c 1,29,-1
 1083 1176 l 1,30,-1
 1083 809 l 1,31,-1
 1057 809 l 1,32,33
 1040 849 1040 849 1025.5 878.5 c 128,-1,34
 1011 908 1011 908 997 931.5 c 128,-1,35
 983 955 983 955 967.5 974 c 128,-1,36
 952 993 952 993 933 1011 c 0,37,38
 830 1108 830 1108 683 1108 c 0,39,40
 588 1108 588 1108 509.5 1072 c 128,-1,41
 431 1036 431 1036 374 967 c 128,-1,42
 317 898 317 898 285.5 797.5 c 128,-1,43
 254 697 254 697 254 568 c 0,44,45
 254 446 254 446 285.5 349.5 c 128,-1,46
 317 253 317 253 376.5 185 c 128,-1,47
 436 117 436 117 520.5 81 c 128,-1,48
 605 45 605 45 712 45 c 0,49,50
 759 45 759 45 801 53.5 c 128,-1,51
 843 62 843 62 874.5 76 c 128,-1,52
 906 90 906 90 924.5 108.5 c 128,-1,53
 943 127 943 127 943 148 c 2,54,-1
 943 430 l 2,55,56
 943 487 943 487 935 518 c 128,-1,57
 927 549 927 549 907 560 c 0,58,59
 899 566 899 566 890.5 569.5 c 128,-1,60
 882 573 882 573 869 576 c 128,-1,61
 856 579 856 579 837 581 c 128,-1,62
 818 583 818 583 790 585 c 1,63,-1
 790 616 l 1,64,-1
 1234 616 l 1,65,-1
 1234 585 l 1,0,1
EndSplineSet
EndChar

StartChar: H
Encoding: 72 72 497
Width: 1257
Flags: W
LayerCount: 2
Fore
SplineSet
892 625 m 1,0,-1
 892 963 l 2,1,2
 892 1009 892 1009 887 1038 c 128,-1,3
 882 1067 882 1067 865.5 1083.5 c 128,-1,4
 849 1100 849 1100 818.5 1107.5 c 128,-1,5
 788 1115 788 1115 738 1119 c 1,6,-1
 738 1153 l 1,7,-1
 1222 1153 l 1,8,-1
 1222 1119 l 1,9,10
 1172 1115 1172 1115 1141.5 1107.5 c 128,-1,11
 1111 1100 1111 1100 1094.5 1083.5 c 128,-1,12
 1078 1067 1078 1067 1073 1038 c 128,-1,13
 1068 1009 1068 1009 1068 963 c 2,14,-1
 1068 190 l 2,15,16
 1068 143 1068 143 1073.5 114.5 c 128,-1,17
 1079 86 1079 86 1095.5 69 c 128,-1,18
 1112 52 1112 52 1142 44.5 c 128,-1,19
 1172 37 1172 37 1222 33 c 1,20,-1
 1222 0 l 1,21,-1
 738 0 l 1,22,-1
 738 33 l 1,23,24
 789 36 789 36 819.5 43.5 c 128,-1,25
 850 51 850 51 866 69.5 c 128,-1,26
 882 88 882 88 887 121 c 128,-1,27
 892 154 892 154 892 209 c 2,28,-1
 892 548 l 1,29,-1
 364 548 l 1,30,-1
 364 190 l 2,31,32
 364 143 364 143 369.5 114.5 c 128,-1,33
 375 86 375 86 391.5 69 c 128,-1,34
 408 52 408 52 438 44.5 c 128,-1,35
 468 37 468 37 517 33 c 1,36,-1
 517 0 l 1,37,-1
 33 0 l 1,38,-1
 33 33 l 1,39,40
 84 36 84 36 114.5 43.5 c 128,-1,41
 145 51 145 51 160.5 69.5 c 128,-1,42
 176 88 176 88 181 121 c 128,-1,43
 186 154 186 154 186 209 c 2,44,-1
 186 963 l 2,45,46
 186 1009 186 1009 181 1038 c 128,-1,47
 176 1067 176 1067 160 1083.5 c 128,-1,48
 144 1100 144 1100 113.5 1107.5 c 128,-1,49
 83 1115 83 1115 33 1119 c 1,50,-1
 33 1153 l 1,51,-1
 517 1153 l 1,52,-1
 517 1119 l 1,53,54
 467 1115 467 1115 436.5 1107.5 c 128,-1,55
 406 1100 406 1100 390 1083.5 c 128,-1,56
 374 1067 374 1067 369 1038 c 128,-1,57
 364 1009 364 1009 364 963 c 2,58,-1
 364 625 l 1,59,-1
 892 625 l 1,0,-1
EndSplineSet
EndChar

StartChar: I
Encoding: 73 73 498
Width: 580
Flags: W
LayerCount: 2
Fore
SplineSet
201 963 m 2,0,1
 201 1011 201 1011 195 1040 c 128,-1,2
 189 1069 189 1069 171 1085.5 c 128,-1,3
 153 1102 153 1102 119.5 1109 c 128,-1,4
 86 1116 86 1116 31 1119 c 1,5,-1
 31 1153 l 1,6,-1
 548 1153 l 1,7,-1
 548 1119 l 1,8,9
 493 1117 493 1117 459.5 1110.5 c 128,-1,10
 426 1104 426 1104 407.5 1087 c 128,-1,11
 389 1070 389 1070 383 1040.5 c 128,-1,12
 377 1011 377 1011 377 963 c 2,13,-1
 377 190 l 2,14,15
 377 142 377 142 383.5 112.5 c 128,-1,16
 390 83 390 83 409 66 c 128,-1,17
 428 49 428 49 461 42 c 128,-1,18
 494 35 494 35 548 33 c 1,19,-1
 548 0 l 1,20,-1
 31 0 l 1,21,-1
 31 33 l 1,22,23
 86 35 86 35 119.5 41.5 c 128,-1,24
 153 48 153 48 171 64.5 c 128,-1,25
 189 81 189 81 195 111 c 128,-1,26
 201 141 201 141 201 190 c 2,27,-1
 201 963 l 2,0,1
EndSplineSet
EndChar

StartChar: J
Encoding: 74 74 499
Width: 677
Flags: W
LayerCount: 2
Fore
SplineSet
484 319 m 2,0,1
 484 153 484 153 408.5 64 c 128,-1,2
 333 -25 333 -25 190 -25 c 0,3,4
 152 -25 152 -25 120 -15.5 c 128,-1,5
 88 -6 88 -6 65 10.5 c 128,-1,6
 42 27 42 27 29.5 50.5 c 128,-1,7
 17 74 17 74 17 101 c 0,8,9
 17 119 17 119 24 134.5 c 128,-1,10
 31 150 31 150 42.5 162 c 128,-1,11
 54 174 54 174 69.5 181 c 128,-1,12
 85 188 85 188 103 188 c 0,13,14
 167 188 167 188 193 99 c 0,15,16
 203 67 203 67 212.5 54.5 c 128,-1,17
 222 42 222 42 241 42 c 0,18,19
 275 42 275 42 290.5 69 c 128,-1,20
 306 96 306 96 306 156 c 2,21,-1
 306 963 l 2,22,23
 306 1011 306 1011 301 1039.5 c 128,-1,24
 296 1068 296 1068 279 1084.5 c 128,-1,25
 262 1101 262 1101 230 1108 c 128,-1,26
 198 1115 198 1115 144 1119 c 1,27,-1
 144 1153 l 1,28,-1
 644 1153 l 1,29,-1
 644 1119 l 1,30,31
 591 1115 591 1115 559.5 1108 c 128,-1,32
 528 1101 528 1101 511 1084.5 c 128,-1,33
 494 1068 494 1068 489 1039.5 c 128,-1,34
 484 1011 484 1011 484 963 c 2,35,-1
 484 319 l 2,0,1
EndSplineSet
EndChar

StartChar: K
Encoding: 75 75 500
Width: 1257
Flags: W
LayerCount: 2
Fore
SplineSet
719 1153 m 1,0,-1
 1175 1153 l 1,1,-1
 1175 1119 l 1,2,3
 1131 1116 1131 1116 1100.5 1110.5 c 128,-1,4
 1070 1105 1070 1105 1042.5 1090.5 c 128,-1,5
 1015 1076 1015 1076 984.5 1050.5 c 128,-1,6
 954 1025 954 1025 910 983 c 2,7,-1
 580 656 l 1,8,-1
 985 221 l 2,9,10
 1045 158 1045 158 1082.5 121 c 128,-1,11
 1120 84 1120 84 1148 65 c 128,-1,12
 1176 46 1176 46 1200.5 40 c 128,-1,13
 1225 34 1225 34 1259 33 c 1,14,-1
 1259 0 l 1,15,-1
 728 0 l 1,16,-1
 728 33 l 1,17,18
 733 35 733 35 738.5 35 c 128,-1,19
 744 35 744 35 749 35 c 2,20,-1
 762 35 l 1,21,-1
 776 35 l 2,22,23
 813 35 813 35 831 45.5 c 128,-1,24
 849 56 849 56 849 73 c 0,25,26
 849 89 849 89 832 119 c 128,-1,27
 815 149 815 149 785 188 c 128,-1,28
 755 227 755 227 713.5 273 c 128,-1,29
 672 319 672 319 623 369 c 2,30,-1
 439 552 l 1,31,-1
 394 515 l 1,32,-1
 394 190 l 2,33,34
 394 143 394 143 399 113.5 c 128,-1,35
 404 84 404 84 420.5 67 c 128,-1,36
 437 50 437 50 468 43 c 128,-1,37
 499 36 499 36 550 33 c 1,38,-1
 550 0 l 1,39,-1
 59 0 l 1,40,-1
 59 33 l 1,41,42
 110 36 110 36 141 44 c 128,-1,43
 172 52 172 52 188.5 70.5 c 128,-1,44
 205 89 205 89 210.5 122 c 128,-1,45
 216 155 216 155 216 209 c 2,46,-1
 216 963 l 2,47,48
 216 1009 216 1009 210.5 1038 c 128,-1,49
 205 1067 205 1067 188.5 1083.5 c 128,-1,50
 172 1100 172 1100 141 1107.5 c 128,-1,51
 110 1115 110 1115 59 1119 c 1,52,-1
 59 1153 l 1,53,-1
 553 1153 l 1,54,-1
 553 1119 l 1,55,56
 500 1115 500 1115 468.5 1108 c 128,-1,57
 437 1101 437 1101 420.5 1084.5 c 128,-1,58
 404 1068 404 1068 399 1039.5 c 128,-1,59
 394 1011 394 1011 394 963 c 2,60,-1
 394 606 l 1,61,-1
 701 886 l 2,62,63
 774 952 774 952 805 994 c 128,-1,64
 836 1036 836 1036 837 1065 c 0,65,66
 837 1083 837 1083 831 1092.5 c 128,-1,67
 825 1102 825 1102 811 1107.5 c 128,-1,68
 797 1113 797 1113 774.5 1115 c 128,-1,69
 752 1117 752 1117 719 1119 c 1,70,-1
 719 1153 l 1,0,-1
EndSplineSet
EndChar

StartChar: L
Encoding: 76 76 501
Width: 1063
Flags: W
LayerCount: 2
Fore
SplineSet
1041 303 m 1,0,-1
 957 0 l 1,1,-1
 21 0 l 1,2,-1
 21 33 l 1,3,4
 69 36 69 36 98.5 43.5 c 128,-1,5
 128 51 128 51 144.5 68.5 c 128,-1,6
 161 86 161 86 167 115 c 128,-1,7
 173 144 173 144 173 190 c 2,8,-1
 173 963 l 2,9,10
 173 1009 173 1009 167.5 1037.5 c 128,-1,11
 162 1066 162 1066 145.5 1083 c 128,-1,12
 129 1100 129 1100 99 1107.5 c 128,-1,13
 69 1115 69 1115 21 1119 c 1,14,-1
 21 1153 l 1,15,-1
 512 1153 l 1,16,-1
 512 1119 l 1,17,18
 460 1116 460 1116 428.5 1108.5 c 128,-1,19
 397 1101 397 1101 379.5 1084 c 128,-1,20
 362 1067 362 1067 356 1038 c 128,-1,21
 350 1009 350 1009 350 963 c 2,22,-1
 350 139 l 2,23,24
 350 116 350 116 355.5 102 c 128,-1,25
 361 88 361 88 377 80.5 c 128,-1,26
 393 73 393 73 422.5 70.5 c 128,-1,27
 452 68 452 68 500 68 c 2,28,-1
 616 68 l 2,29,30
 725 68 725 68 798.5 92 c 128,-1,31
 872 116 872 116 917 167 c 0,32,33
 937 189 937 189 956 220 c 128,-1,34
 975 251 975 251 998 303 c 1,35,-1
 1041 303 l 1,0,-1
EndSplineSet
EndChar

StartChar: M
Encoding: 77 77 502
Width: 1548
Flags: W
LayerCount: 2
Fore
SplineSet
728 0 m 1,0,-1
 703 0 l 1,1,-1
 266 957 l 1,2,-1
 266 256 l 2,3,4
 266 190 266 190 273 148 c 128,-1,5
 280 106 280 106 298 81.5 c 128,-1,6
 316 57 316 57 348 46.5 c 128,-1,7
 380 36 380 36 430 33 c 1,8,-1
 430 0 l 1,9,-1
 21 0 l 1,10,-1
 21 33 l 1,11,12
 75 37 75 37 108.5 47 c 128,-1,13
 142 57 142 57 160 81 c 128,-1,14
 178 105 178 105 184 146.5 c 128,-1,15
 190 188 190 188 190 256 c 2,16,-1
 190 963 l 2,17,18
 190 1011 190 1011 184 1040 c 128,-1,19
 178 1069 178 1069 160.5 1085.5 c 128,-1,20
 143 1102 143 1102 110.5 1109 c 128,-1,21
 78 1116 78 1116 25 1119 c 1,22,-1
 25 1153 l 1,23,-1
 369 1153 l 1,24,-1
 771 274 l 1,25,-1
 1156 1153 l 1,26,-1
 1502 1153 l 1,27,-1
 1502 1119 l 1,28,29
 1454 1115 1454 1115 1424.5 1107.5 c 128,-1,30
 1395 1100 1395 1100 1378.5 1083.5 c 128,-1,31
 1362 1067 1362 1067 1356.5 1038 c 128,-1,32
 1351 1009 1351 1009 1351 963 c 2,33,-1
 1351 190 l 2,34,35
 1351 143 1351 143 1356.5 114 c 128,-1,36
 1362 85 1362 85 1378.5 68 c 128,-1,37
 1395 51 1395 51 1424.5 43.5 c 128,-1,38
 1454 36 1454 36 1502 33 c 1,39,-1
 1502 0 l 1,40,-1
 1015 0 l 1,41,-1
 1015 33 l 1,42,43
 1067 36 1067 36 1098 44 c 128,-1,44
 1129 52 1129 52 1145.5 70.5 c 128,-1,45
 1162 89 1162 89 1167.5 122 c 128,-1,46
 1173 155 1173 155 1173 209 c 2,47,-1
 1173 998 l 1,48,-1
 728 0 l 1,0,-1
EndSplineSet
EndChar

StartChar: N
Encoding: 78 78 503
Width: 1257
Flags: W
LayerCount: 2
Fore
SplineSet
1036 -20 m 1,0,-1
 266 938 l 1,1,-1
 266 256 l 2,2,3
 266 190 266 190 273 148 c 128,-1,4
 280 106 280 106 298 81.5 c 128,-1,5
 316 57 316 57 348 46.5 c 128,-1,6
 380 36 380 36 430 33 c 1,7,-1
 430 0 l 1,8,-1
 21 0 l 1,9,-1
 21 33 l 1,10,11
 75 37 75 37 108.5 47 c 128,-1,12
 142 57 142 57 160 81 c 128,-1,13
 178 105 178 105 184 146.5 c 128,-1,14
 190 188 190 188 190 256 c 2,15,-1
 190 1023 l 1,16,17
 164 1054 164 1054 144.5 1072.5 c 128,-1,18
 125 1091 125 1091 107 1101.5 c 128,-1,19
 89 1112 89 1112 68.5 1115.5 c 128,-1,20
 48 1119 48 1119 21 1119 c 1,21,-1
 21 1153 l 1,22,-1
 319 1153 l 1,23,-1
 989 310 l 1,24,-1
 989 897 l 2,25,26
 989 966 989 966 982 1008 c 128,-1,27
 975 1050 975 1050 956.5 1073 c 128,-1,28
 938 1096 938 1096 905.5 1105.5 c 128,-1,29
 873 1115 873 1115 822 1119 c 1,30,-1
 822 1153 l 1,31,-1
 1231 1153 l 1,32,-1
 1231 1119 l 1,33,34
 1205 1117 1205 1117 1187.5 1114 c 128,-1,35
 1170 1111 1170 1111 1157 1107.5 c 128,-1,36
 1144 1104 1144 1104 1134.5 1099 c 128,-1,37
 1125 1094 1125 1094 1116 1088 c 0,38,39
 1065 1052 1065 1052 1065 897 c 2,40,-1
 1065 -20 l 1,41,-1
 1036 -20 l 1,0,-1
EndSplineSet
EndChar

StartChar: O
Encoding: 79 79 504
Width: 1257
Flags: W
LayerCount: 2
Fore
SplineSet
628 1176 m 0,0,1
 746 1176 746 1176 849.5 1134.5 c 128,-1,2
 953 1093 953 1093 1030.5 1014.5 c 128,-1,3
 1108 936 1108 936 1153 823.5 c 128,-1,4
 1198 711 1198 711 1198 569 c 0,5,6
 1198 438 1198 438 1155.5 328.5 c 128,-1,7
 1113 219 1113 219 1036.5 140.5 c 128,-1,8
 960 62 960 62 853 18.5 c 128,-1,9
 746 -25 746 -25 618 -25 c 0,10,11
 561 -25 561 -25 504 -12.5 c 128,-1,12
 447 0 447 0 394 23 c 128,-1,13
 341 46 341 46 294 79 c 128,-1,14
 247 112 247 112 209 153 c 0,15,16
 137 231 137 231 98 340.5 c 128,-1,17
 59 450 59 450 59 576 c 0,18,19
 59 707 59 707 101 817.5 c 128,-1,20
 143 928 143 928 219 1007.5 c 128,-1,21
 295 1087 295 1087 399 1131.5 c 128,-1,22
 503 1176 503 1176 628 1176 c 0,0,1
628 1114 m 0,23,24
 556 1114 556 1114 493 1086 c 128,-1,25
 430 1058 430 1058 379 1001 c 0,26,27
 351 969 351 969 328.5 923.5 c 128,-1,28
 306 878 306 878 290.5 822.5 c 128,-1,29
 275 767 275 767 266.5 703.5 c 128,-1,30
 258 640 258 640 258 573 c 0,31,32
 258 501 258 501 268.5 432.5 c 128,-1,33
 279 364 279 364 298 305 c 128,-1,34
 317 246 317 246 344 199.5 c 128,-1,35
 371 153 371 153 405 123 c 0,36,37
 453 81 453 81 509 60 c 128,-1,38
 565 39 565 39 625 38 c 0,39,40
 764 38 764 38 857 131 c 0,41,42
 918 192 918 192 942 258 c 0,43,44
 968 326 968 326 984 409.5 c 128,-1,45
 1000 493 1000 493 1000 571 c 0,46,47
 1000 703 1000 703 972.5 804.5 c 128,-1,48
 945 906 945 906 895.5 975 c 128,-1,49
 846 1044 846 1044 777.5 1079 c 128,-1,50
 709 1114 709 1114 628 1114 c 0,23,24
EndSplineSet
EndChar

StartChar: P
Encoding: 80 80 505
Width: 968
Flags: W
LayerCount: 2
Fore
SplineSet
352 190 m 2,0,1
 352 142 352 142 358 112.5 c 128,-1,2
 364 83 364 83 381.5 66 c 128,-1,3
 399 49 399 49 431 42 c 128,-1,4
 463 35 463 35 515 33 c 1,5,-1
 515 0 l 1,6,-1
 28 0 l 1,7,-1
 28 33 l 1,8,9
 77 37 77 37 106 44.5 c 128,-1,10
 135 52 135 52 150 70.5 c 128,-1,11
 165 89 165 89 169.5 122 c 128,-1,12
 174 155 174 155 174 209 c 2,13,-1
 174 963 l 2,14,15
 174 1009 174 1009 169 1037.5 c 128,-1,16
 164 1066 164 1066 149 1082.5 c 128,-1,17
 134 1099 134 1099 105 1106.5 c 128,-1,18
 76 1114 76 1114 28 1119 c 1,19,-1
 28 1153 l 1,20,-1
 487 1153 l 2,21,22
 548 1153 548 1153 606 1144 c 128,-1,23
 664 1135 664 1135 714.5 1118.5 c 128,-1,24
 765 1102 765 1102 805.5 1078.5 c 128,-1,25
 846 1055 846 1055 872 1027 c 0,26,27
 907 989 907 989 925 940.5 c 128,-1,28
 943 892 943 892 943 837 c 0,29,30
 943 750 943 750 898.5 676 c 128,-1,31
 854 602 854 602 776 560 c 0,32,33
 747 544 747 544 715 532.5 c 128,-1,34
 683 521 683 521 646.5 514 c 128,-1,35
 610 507 610 507 567 504 c 128,-1,36
 524 501 524 501 472 501 c 0,37,38
 438 501 438 501 412 502.5 c 128,-1,39
 386 504 386 504 352 507 c 1,40,-1
 352 190 l 2,0,1
352 576 m 1,41,42
 382 574 382 574 403 572.5 c 128,-1,43
 424 571 424 571 450 571 c 0,44,45
 754 571 754 571 754 827 c 0,46,47
 754 962 754 962 671 1025 c 128,-1,48
 588 1088 588 1088 411 1088 c 0,49,50
 376 1088 376 1088 364 1076 c 128,-1,51
 352 1064 352 1064 352 1028 c 2,52,-1
 352 576 l 1,41,42
EndSplineSet
EndChar

StartChar: Q
Encoding: 81 81 506
Width: 1257
Flags: W
LayerCount: 2
Fore
SplineSet
1221 -308 m 1,0,1
 1209 -310 1209 -310 1202 -310 c 128,-1,2
 1195 -310 1195 -310 1190 -310 c 0,3,4
 961 -310 961 -310 800 -259.5 c 128,-1,5
 639 -209 639 -209 543 -98 c 2,6,-1
 462 -2 l 1,7,8
 415 14 415 14 380 29 c 128,-1,9
 345 44 345 44 316.5 61.5 c 128,-1,10
 288 79 288 79 263.5 100 c 128,-1,11
 239 121 239 121 214 148 c 0,12,13
 59 315 59 315 59 573 c 0,14,15
 59 705 59 705 101 816 c 128,-1,16
 143 927 143 927 219 1007 c 128,-1,17
 295 1087 295 1087 399 1131.5 c 128,-1,18
 503 1176 503 1176 628 1176 c 0,19,20
 752 1176 752 1176 857 1131.5 c 128,-1,21
 962 1087 962 1087 1037.5 1007.5 c 128,-1,22
 1113 928 1113 928 1155.5 817.5 c 128,-1,23
 1198 707 1198 707 1198 576 c 0,24,25
 1198 284 1198 284 1003 110 c 0,26,27
 973 83 973 83 945 63.5 c 128,-1,28
 917 44 917 44 886.5 30 c 128,-1,29
 856 16 856 16 821 6 c 128,-1,30
 786 -4 786 -4 741 -12 c 1,31,32
 794 -81 794 -81 847.5 -130 c 128,-1,33
 901 -179 901 -179 959 -211 c 128,-1,34
 1017 -243 1017 -243 1081.5 -259 c 128,-1,35
 1146 -275 1146 -275 1221 -277 c 1,36,-1
 1221 -308 l 1,0,1
633 1114 m 0,37,38
 558 1114 558 1114 495.5 1086.5 c 128,-1,39
 433 1059 433 1059 379 1001 c 0,40,41
 352 972 352 972 329.5 926.5 c 128,-1,42
 307 881 307 881 291.5 825.5 c 128,-1,43
 276 770 276 770 267 708 c 128,-1,44
 258 646 258 646 258 583 c 0,45,46
 258 449 258 449 285 347 c 128,-1,47
 312 245 312 245 361 176.5 c 128,-1,48
 410 108 410 108 478 73 c 128,-1,49
 546 38 546 38 628 38 c 0,50,51
 700 38 700 38 765 67 c 128,-1,52
 830 96 830 96 879 150 c 0,53,54
 906 180 906 180 928 226.5 c 128,-1,55
 950 273 950 273 966 330 c 128,-1,56
 982 387 982 387 991 451 c 128,-1,57
 1000 515 1000 515 1000 580 c 0,58,59
 1000 705 1000 705 972 804 c 128,-1,60
 944 903 944 903 895 972 c 128,-1,61
 846 1041 846 1041 778.5 1077.5 c 128,-1,62
 711 1114 711 1114 633 1114 c 0,37,38
EndSplineSet
EndChar

StartChar: R
Encoding: 82 82 507
Width: 1161
Flags: W
LayerCount: 2
Fore
SplineSet
1147 0 m 1,0,-1
 867 0 l 1,1,-1
 452 536 l 1,2,-1
 355 536 l 1,3,-1
 355 190 l 2,4,5
 355 143 355 143 360.5 114 c 128,-1,6
 366 85 366 85 383 68 c 128,-1,7
 400 51 400 51 430.5 43.5 c 128,-1,8
 461 36 461 36 512 33 c 1,9,-1
 512 0 l 1,10,-1
 30 0 l 1,11,-1
 30 33 l 1,12,13
 79 37 79 37 108 44.5 c 128,-1,14
 137 52 137 52 152.5 70.5 c 128,-1,15
 168 89 168 89 173 122 c 128,-1,16
 178 155 178 155 178 209 c 2,17,-1
 178 963 l 2,18,19
 178 1009 178 1009 173 1037 c 128,-1,20
 168 1065 168 1065 152.5 1081.5 c 128,-1,21
 137 1098 137 1098 108 1106 c 128,-1,22
 79 1114 79 1114 30 1119 c 1,23,-1
 30 1153 l 1,24,-1
 510 1153 l 2,25,26
 728 1153 728 1153 840 1073 c 128,-1,27
 952 993 952 993 952 846 c 0,28,29
 952 783 952 783 929 731.5 c 128,-1,30
 906 680 906 680 864 646 c 0,31,32
 842 628 842 628 820.5 615 c 128,-1,33
 799 602 799 602 772.5 591.5 c 128,-1,34
 746 581 746 581 713.5 572.5 c 128,-1,35
 681 564 681 564 637 555 c 1,36,-1
 995 115 l 2,37,38
 1014 93 1014 93 1031 78 c 128,-1,39
 1048 63 1048 63 1065.5 53.5 c 128,-1,40
 1083 44 1083 44 1102.5 39.5 c 128,-1,41
 1122 35 1122 35 1147 33 c 1,42,-1
 1147 0 l 1,0,-1
355 597 m 1,43,44
 417 598 417 598 462 601 c 128,-1,45
 507 604 507 604 541.5 610.5 c 128,-1,46
 576 617 576 617 604.5 628 c 128,-1,47
 633 639 633 639 663 656 c 0,48,49
 711 681 711 681 736.5 732 c 128,-1,50
 762 783 762 783 762 849 c 0,51,52
 762 972 762 972 684.5 1030 c 128,-1,53
 607 1088 607 1088 444 1088 c 0,54,55
 418 1088 418 1088 400.5 1085 c 128,-1,56
 383 1082 383 1082 373 1075 c 128,-1,57
 363 1068 363 1068 359 1055.5 c 128,-1,58
 355 1043 355 1043 355 1025 c 2,59,-1
 355 597 l 1,43,44
EndSplineSet
EndChar

StartChar: S
Encoding: 83 83 508
Width: 968
Flags: W
LayerCount: 2
Fore
SplineSet
817 806 m 1,0,-1
 773 806 l 1,1,2
 762 845 762 845 752 873.5 c 128,-1,3
 742 902 742 902 730 925 c 128,-1,4
 718 948 718 948 702.5 968.5 c 128,-1,5
 687 989 687 989 666 1010 c 0,6,7
 618 1058 618 1058 566.5 1081.5 c 128,-1,8
 515 1105 515 1105 455 1105 c 0,9,10
 414 1105 414 1105 381 1093.5 c 128,-1,11
 348 1082 348 1082 324 1060.5 c 128,-1,12
 300 1039 300 1039 287 1009 c 128,-1,13
 274 979 274 979 274 943 c 0,14,15
 274 908 274 908 288.5 875.5 c 128,-1,16
 303 843 303 843 333.5 810.5 c 128,-1,17
 364 778 364 778 412.5 744 c 128,-1,18
 461 710 461 710 530 672 c 0,19,20
 616 625 616 625 677.5 580 c 128,-1,21
 739 535 739 535 778.5 489 c 128,-1,22
 818 443 818 443 836.5 394.5 c 128,-1,23
 855 346 855 346 855 292 c 0,24,25
 855 225 855 225 827.5 167 c 128,-1,26
 800 109 800 109 752.5 66.5 c 128,-1,27
 705 24 705 24 640 -0.5 c 128,-1,28
 575 -25 575 -25 500 -25 c 0,29,30
 446 -25 446 -25 395.5 -14.5 c 128,-1,31
 345 -4 345 -4 294 15 c 0,32,33
 240 35 240 35 212 35 c 0,34,35
 192 35 192 35 179 18.5 c 128,-1,36
 166 2 166 2 164 -23 c 1,37,-1
 125 -23 l 1,38,-1
 73 347 l 1,39,-1
 113 347 l 1,40,41
 179 187 179 187 264 112.5 c 128,-1,42
 349 38 349 38 465 38 c 0,43,44
 513 38 513 38 552 52.5 c 128,-1,45
 591 67 591 67 619.5 93 c 128,-1,46
 648 119 648 119 663.5 155 c 128,-1,47
 679 191 679 191 679 235 c 0,48,49
 679 267 679 267 672 292.5 c 128,-1,50
 665 318 665 318 654 336 c 0,51,52
 621 387 621 387 555 438 c 128,-1,53
 489 489 489 489 395 540 c 0,54,55
 322 579 322 579 270.5 617 c 128,-1,56
 219 655 219 655 186 695.5 c 128,-1,57
 153 736 153 736 138 781 c 128,-1,58
 123 826 123 826 123 879 c 0,59,60
 123 1015 123 1015 216 1096 c 0,61,62
 261 1134 261 1134 314.5 1155 c 128,-1,63
 368 1176 368 1176 425 1176 c 0,64,65
 467 1176 467 1176 514 1166.5 c 128,-1,66
 561 1157 561 1157 609 1138 c 0,67,68
 658 1118 658 1118 686 1118 c 0,69,70
 731 1118 731 1118 741 1176 c 1,71,-1
 778 1176 l 1,72,-1
 817 806 l 1,0,-1
EndSplineSet
EndChar

StartChar: T
Encoding: 84 84 509
Width: 1063
Flags: W
LayerCount: 2
Fore
SplineSet
348 1079 m 2,0,1
 275 1079 275 1079 228.5 1071 c 128,-1,2
 182 1063 182 1063 152.5 1039 c 128,-1,3
 123 1015 123 1015 105 971.5 c 128,-1,4
 87 928 87 928 71 857 c 1,5,-1
 30 857 l 1,6,-1
 30 1153 l 1,7,-1
 1022 1153 l 1,8,-1
 1022 857 l 1,9,-1
 990 857 l 1,10,11
 975 929 975 929 958 972.5 c 128,-1,12
 941 1016 941 1016 911.5 1039.5 c 128,-1,13
 882 1063 882 1063 835 1071 c 128,-1,14
 788 1079 788 1079 714 1079 c 2,15,-1
 620 1079 l 1,16,-1
 620 190 l 2,17,18
 620 142 620 142 626 112.5 c 128,-1,19
 632 83 632 83 650 66.5 c 128,-1,20
 668 50 668 50 700.5 43 c 128,-1,21
 733 36 733 36 787 33 c 1,22,-1
 787 0 l 1,23,-1
 279 0 l 1,24,-1
 279 33 l 1,25,26
 333 36 333 36 365 43 c 128,-1,27
 397 50 397 50 414.5 68.5 c 128,-1,28
 432 87 432 87 437 120 c 128,-1,29
 442 153 442 153 442 209 c 2,30,-1
 442 1079 l 1,31,-1
 348 1079 l 2,0,1
EndSplineSet
EndChar

StartChar: U
Encoding: 85 85 510
Width: 1257
Flags: W
LayerCount: 2
Fore
SplineSet
1063 442 m 2,0,1
 1063 392 1063 392 1060 351 c 128,-1,2
 1057 310 1057 310 1050 275.5 c 128,-1,3
 1043 241 1043 241 1032.5 211.5 c 128,-1,4
 1022 182 1022 182 1006 155 c 0,5,6
 901 -25 901 -25 618 -25 c 0,7,8
 396 -25 396 -25 288.5 84 c 128,-1,9
 181 193 181 193 181 420 c 2,10,-1
 181 963 l 2,11,12
 181 1011 181 1011 175.5 1039.5 c 128,-1,13
 170 1068 170 1068 153.5 1084.5 c 128,-1,14
 137 1101 137 1101 106.5 1108 c 128,-1,15
 76 1115 76 1115 25 1119 c 1,16,-1
 25 1153 l 1,17,-1
 517 1153 l 1,18,-1
 517 1119 l 1,19,20
 464 1115 464 1115 433 1107.5 c 128,-1,21
 402 1100 402 1100 385.5 1083.5 c 128,-1,22
 369 1067 369 1067 364 1038 c 128,-1,23
 359 1009 359 1009 359 963 c 2,24,-1
 359 405 l 2,25,26
 359 323 359 323 369 270 c 128,-1,27
 379 217 379 217 402 176 c 0,28,29
 472 52 472 52 658 52 c 0,30,31
 707 52 707 52 751.5 61.5 c 128,-1,32
 796 71 796 71 833.5 89 c 128,-1,33
 871 107 871 107 900 132.5 c 128,-1,34
 929 158 929 158 947 190 c 0,35,36
 968 229 968 229 977.5 283.5 c 128,-1,37
 987 338 987 338 987 427 c 2,38,-1
 987 897 l 2,39,40
 987 962 987 962 980.5 1003 c 128,-1,41
 974 1044 974 1044 956 1068.5 c 128,-1,42
 938 1093 938 1093 906.5 1104 c 128,-1,43
 875 1115 875 1115 824 1119 c 1,44,-1
 824 1153 l 1,45,-1
 1227 1153 l 1,46,-1
 1227 1119 l 1,47,48
 1174 1113 1174 1113 1141.5 1102.5 c 128,-1,49
 1109 1092 1109 1092 1091.5 1068 c 128,-1,50
 1074 1044 1074 1044 1068.5 1003.5 c 128,-1,51
 1063 963 1063 963 1063 897 c 2,52,-1
 1063 442 l 2,0,1
EndSplineSet
EndChar

StartChar: V
Encoding: 86 86 511
Width: 1257
Flags: W
LayerCount: 2
Fore
SplineSet
1213 1119 m 1,0,1
 1181 1117 1181 1117 1160.5 1111 c 128,-1,2
 1140 1105 1140 1105 1123.5 1088 c 128,-1,3
 1107 1071 1107 1071 1091 1040 c 128,-1,4
 1075 1009 1075 1009 1053 957 c 2,5,-1
 666 -20 l 1,6,-1
 641 -20 l 1,7,-1
 212 937 l 2,8,9
 184 995 184 995 164 1030 c 128,-1,10
 144 1065 144 1065 124.5 1084.5 c 128,-1,11
 105 1104 105 1104 82.5 1111 c 128,-1,12
 60 1118 60 1118 28 1119 c 1,13,-1
 28 1153 l 1,14,-1
 491 1153 l 1,15,-1
 491 1119 l 1,16,17
 424 1116 424 1116 392 1106 c 128,-1,18
 360 1096 360 1096 360 1062 c 0,19,20
 360 1052 360 1052 363 1038.5 c 128,-1,21
 366 1025 366 1025 374 1003 c 128,-1,22
 382 981 382 981 396 948.5 c 128,-1,23
 410 916 410 916 432 869 c 2,24,-1
 694 280 l 1,25,-1
 950 919 l 2,26,27
 967 959 967 959 975 992 c 128,-1,28
 983 1025 983 1025 983 1046 c 0,29,30
 983 1083 983 1083 955.5 1099 c 128,-1,31
 928 1115 928 1115 857 1119 c 1,32,-1
 857 1153 l 1,33,-1
 1213 1153 l 1,34,-1
 1213 1119 l 1,0,1
EndSplineSet
EndChar

StartChar: W
Encoding: 87 87 512
Width: 1643
Flags: W
LayerCount: 2
Fore
SplineSet
1623 1119 m 1,0,1
 1588 1113 1588 1113 1565.5 1105.5 c 128,-1,2
 1543 1098 1543 1098 1527.5 1085 c 128,-1,3
 1512 1072 1512 1072 1501 1050.5 c 128,-1,4
 1490 1029 1490 1029 1478 995 c 0,5,6
 1431 867 1431 867 1397 773.5 c 128,-1,7
 1363 680 1363 680 1335.5 605 c 128,-1,8
 1308 530 1308 530 1285.5 466 c 128,-1,9
 1263 402 1263 402 1239 332 c 128,-1,10
 1215 262 1215 262 1187.5 178 c 128,-1,11
 1160 94 1160 94 1123 -20 c 1,12,-1
 1096 -20 l 1,13,-1
 819 717 l 1,14,-1
 550 -20 l 1,15,-1
 524 -20 l 1,16,-1
 188 915 l 2,17,18
 164 976 164 976 145.5 1014.5 c 128,-1,19
 127 1053 127 1053 107.5 1075 c 128,-1,20
 88 1097 88 1097 65 1106.5 c 128,-1,21
 42 1116 42 1116 8 1119 c 1,22,-1
 8 1153 l 1,23,-1
 435 1153 l 1,24,-1
 435 1119 l 1,25,26
 402 1117 402 1117 380 1113.5 c 128,-1,27
 358 1110 358 1110 345.5 1103.5 c 128,-1,28
 333 1097 333 1097 327.5 1087.5 c 128,-1,29
 322 1078 322 1078 322 1063 c 0,30,31
 322 1049 322 1049 327 1028 c 128,-1,32
 332 1007 332 1007 341 983 c 2,33,-1
 592 329 l 1,34,-1
 778 820 l 1,35,-1
 721 963 l 2,36,37
 698 1015 698 1015 682 1046 c 128,-1,38
 666 1077 666 1077 648 1093 c 128,-1,39
 630 1109 630 1109 606.5 1114 c 128,-1,40
 583 1119 583 1119 545 1119 c 1,41,-1
 545 1153 l 1,42,-1
 1010 1153 l 1,43,-1
 1010 1119 l 1,44,45
 938 1118 938 1118 906.5 1104 c 128,-1,46
 875 1090 875 1090 875 1058 c 0,47,48
 875 1035 875 1035 888.5 1002 c 128,-1,49
 902 969 902 969 922 917 c 2,50,-1
 1153 324 l 1,51,-1
 1370 914 l 2,52,53
 1384 950 1384 950 1391 983.5 c 128,-1,54
 1398 1017 1398 1017 1398 1045 c 0,55,56
 1398 1080 1398 1080 1371.5 1096.5 c 128,-1,57
 1345 1113 1345 1113 1278 1119 c 1,58,-1
 1278 1153 l 1,59,-1
 1623 1153 l 1,60,-1
 1623 1119 l 1,0,1
EndSplineSet
EndChar

